<svg width="117" height="122" viewBox="0 0 117 122" fill="none" xmlns="http://www.w3.org/2000/svg">
<path d="M84.5 5.66138C95.2858 4.35777 103.024 11.3685 107.162 20.425C114.944 37.4544 112.764 66.1445 96.3164 88.4973L96.3594 88.5842L94.1455 91.3127L88.7227 97.9993L88.4941 97.5325C81.1034 104.806 71.7877 110.958 60.3496 115.17L58.4463 115.871L56.543 115.168C15.485 99.9958 2.36511 60.2862 6.10352 33.7122C7.91302 20.8496 14.2033 8.38236 26.0527 5.93774C31.9782 4.71533 38.2268 6.33168 44.3477 10.3215C48.9734 13.3368 53.6947 17.8044 58.4795 23.8079C67.2419 12.8072 76.0081 6.68776 84.5 5.66138Z" fill="#B42C16" stroke="#6D411B" stroke-width="11" stroke-linecap="round"/>
</svg>
