<svg width="117" height="122" viewBox="0 0 117 122" fill="none" xmlns="http://www.w3.org/2000/svg">
<path d="M84.5 5.66138C95.2858 4.35777 103.024 11.3685 107.162 20.425C115.262 38.152 112.571 68.5158 94.2246 91.2122C94.1986 91.2459 94.1724 91.2796 94.1455 91.3127C86.055 101.287 74.9246 109.802 60.3496 115.17L58.4463 115.871L56.543 115.168C15.485 99.9958 2.36511 60.2862 6.10352 33.7122C7.91302 20.8496 14.2033 8.38236 26.0527 5.93774C31.9782 4.71533 38.2268 6.33168 44.3477 10.3215C48.9209 13.3026 53.5882 17.7028 58.3174 23.6038L58.4795 23.3694L58.6416 23.6038C67.3499 12.7312 76.0607 6.68141 84.5 5.66138Z" fill="#E23232" stroke="#3F2005" stroke-width="11" stroke-linecap="round"/>
</svg>
