<svg width="235" height="314" viewBox="0 0 235 314" fill="none" xmlns="http://www.w3.org/2000/svg">
<ellipse opacity="0.4" cx="103.41" cy="281.819" rx="98.8631" ry="31.818" fill="#2C925F"/>
<g filter="url(#filter0_n_122_43)">
<path d="M195.389 150.8C180.397 153.302 169.832 164.848 171.792 176.589C173.637 194.331 187.647 196.743 202.639 194.241C217.631 191.739 233.693 183.041 230.968 166.712C228.859 154.08 210.38 148.298 195.389 150.8Z" fill="#F69603"/>
</g>
<g filter="url(#filter1_n_122_43)">
<path d="M90.7146 273.071C98.2549 259.874 95.9892 244.389 85.6542 238.484C70.7416 228.695 60.0148 238.025 52.4746 251.221C44.9343 264.418 41.5172 282.362 55.8911 290.574C67.0105 296.928 83.1744 286.267 90.7146 273.071Z" fill="#F69603"/>
</g>
<g filter="url(#filter2_n_122_43)">
<path d="M123.022 275.665C128.478 289.85 141.908 297.886 153.017 293.613C170.03 288.248 169.584 274.039 164.127 259.853C158.671 245.667 146.93 231.675 131.479 237.618C119.526 242.216 117.565 261.479 123.022 275.665Z" fill="#F69603"/>
</g>
<g filter="url(#filter3_n_122_43)">
<path d="M202.843 139.96C202.843 190.575 145.271 287.498 102.274 287.498C37.9608 291.164 43.7531 190.575 43.7531 139.96C43.7531 89.3456 65.1908 49.9998 124.991 49.9998C171.251 49.9998 202.843 89.3456 202.843 139.96Z" fill="#FD5C01"/>
</g>
<g filter="url(#filter4_n_122_43)">
<path fill-rule="evenodd" clip-rule="evenodd" d="M153.221 70.3371C154.207 71.0034 155.47 71.1081 156.552 70.612L181.652 59.1007C184.971 57.5782 183.897 52.6087 180.245 52.5931L158.03 52.501L164.153 45.2592C166.178 42.8636 162.176 38.981 158.919 40.181L144.315 45.5614C144.255 45.5836 144.19 45.6006 144.124 45.6122L137.212 46.8145C139.861 36.1958 142.93 27.841 148.419 16.3401C149.596 13.8722 148.393 10.9124 145.811 10.0121L145.667 9.96135C143.548 9.2227 141.2 10.142 140.175 12.1376C133.982 24.1948 130.743 32.8716 128.078 44.7726L126.819 42.874C126.768 42.7977 126.729 42.7182 126.701 42.6384L122.21 29.8214C121.143 26.7769 115.821 25.9606 114.887 28.698L110.361 41.9695C110.186 42.4823 110.222 43.0404 110.435 43.5807L89.9367 35.7632C86.5243 34.4619 83.7321 38.7111 86.2803 41.3271L105.549 61.1071C106.379 61.9596 107.595 62.3168 108.755 62.0502L131.819 56.7486C132.181 56.6655 132.518 56.5249 132.825 56.3389C133.043 56.6227 133.308 56.8756 133.615 57.0832L153.221 70.3371Z" fill="#4D9634"/>
</g>
<g filter="url(#filter5_n_122_43)">
<path d="M142.059 253.75C140.548 255.434 138.02 255.719 136.155 254.439L136.026 254.35C133.785 252.812 133.392 249.662 135.154 247.591C145.616 235.288 151.472 226.672 158.496 213.629C159.79 211.226 162.88 210.451 165.13 211.995L165.24 212.07C167.103 213.349 167.746 215.807 166.723 217.822C159.32 232.393 153.299 241.23 142.059 253.75Z" fill="#FF6F25"/>
</g>
<g filter="url(#filter6_n_122_43)">
<path d="M132.278 263.012C131.084 263.622 129.656 263.41 128.551 262.651L127.299 261.792C125.26 260.393 125.821 257.313 127.222 255.275C128.641 253.213 131.287 251.797 133.351 253.214L134.531 254.024C135.612 254.766 136.309 255.991 136.183 257.296C135.91 260.112 134.848 261.701 132.278 263.012Z" fill="#FF6F25"/>
</g>
<path d="M136.364 145.345C136.364 157.269 142.469 166.935 150 166.935C157.532 166.935 163.637 157.269 163.637 145.345C163.637 133.42 160.228 119.208 144.319 132.845C144.319 146.481 136.364 133.42 136.364 145.345Z" fill="#F6F6F6"/>
<path d="M136.364 149.615C136.364 159.181 142.469 166.935 150 166.935C157.532 166.935 163.637 159.181 163.637 149.615C163.637 140.049 160.228 128.648 144.319 139.588C144.319 150.527 136.364 140.049 136.364 149.615Z" fill="#3C1212"/>
<path d="M122.728 145.345C122.728 157.269 116.622 166.935 109.091 166.935C101.56 166.935 95.4551 157.269 95.4551 145.345C95.4551 133.42 98.8642 119.208 114.773 132.845C114.773 146.481 122.728 133.42 122.728 145.345Z" fill="#F6F6F6"/>
<path d="M122.728 149.615C122.728 159.181 116.622 166.935 109.091 166.935C101.56 166.935 95.4551 159.181 95.4551 149.615C95.4551 140.049 98.8642 128.648 114.773 139.588C114.773 150.527 122.728 140.049 122.728 149.615Z" fill="#3C1212"/>
<g filter="url(#filter7_n_122_43)">
<path d="M24.394 163.61C35.8114 173.642 51.4364 174.527 59.2934 165.585C71.8726 152.938 64.8828 140.558 53.4654 130.526C42.048 120.493 25.1539 113.548 14.2263 125.984C5.77297 135.604 12.9767 153.577 24.394 163.61Z" fill="#F69603"/>
</g>
<path opacity="0.3" d="M188.41 89.6105L180.52 108.07L180.416 108.313L180.21 108.487L179.029 109.49L180.041 112.805L190.635 126.016L188.999 127.526L175.659 117L175.372 116.773L175.268 116.434L174.36 113.461L173.698 114.025L165.74 128.78L163.567 128.049L167.741 112.169L167.83 111.834L168.103 111.603L172.464 107.894L161.363 90.9406L163.188 89.6339L176.401 103.432L186.345 88.6359L188.41 89.6105Z" fill="#3C1212"/>
<path opacity="0.3" d="M81.5928 198.701L73.7021 217.161L73.5986 217.403L73.3926 217.578L72.2129 218.581L73.2246 221.895L83.8184 235.106L82.1826 236.616L68.8428 226.09L68.5557 225.863L68.4512 225.524L67.5439 222.551L66.8818 223.115L58.9229 237.871L56.751 237.139L60.9248 221.259L61.0127 220.924L61.2861 220.693L65.6475 216.983L54.5469 200.031L56.3701 198.724L69.585 212.522L79.5283 197.726L81.5928 198.701Z" fill="#3C1212"/>
<defs>
<filter id="filter0_n_122_43" x="171.558" y="150.228" width="59.7148" height="44.8427" filterUnits="userSpaceOnUse" color-interpolation-filters="sRGB">
<feFlood flood-opacity="0" result="BackgroundImageFix"/>
<feBlend mode="normal" in="SourceGraphic" in2="BackgroundImageFix" result="shape"/>
<feTurbulence type="fractalNoise" baseFrequency="0.8800048828125 0.8800048828125" stitchTiles="stitch" numOctaves="3" result="noise" seed="6898" />
<feColorMatrix in="noise" type="luminanceToAlpha" result="alphaNoise" />
<feComponentTransfer in="alphaNoise" result="coloredNoise1">
<feFuncA type="discrete" tableValues="1 1 1 1 1 1 1 1 1 1 1 1 1 1 1 1 1 1 1 1 1 1 1 1 1 1 1 1 1 1 1 1 1 1 1 1 1 1 1 1 1 1 1 1 1 1 1 1 1 1 1 0 0 0 0 0 0 0 0 0 0 0 0 0 0 0 0 0 0 0 0 0 0 0 0 0 0 0 0 0 0 0 0 0 0 0 0 0 0 0 0 0 0 0 0 0 0 0 0 0 "/>
</feComponentTransfer>
<feComposite operator="in" in2="shape" in="coloredNoise1" result="noise1Clipped" />
<feFlood flood-color="rgba(93, 49, 49, 0.25)" result="color1Flood" />
<feComposite operator="in" in2="noise1Clipped" in="color1Flood" result="color1" />
<feMerge result="effect1_noise_122_43">
<feMergeNode in="shape" />
<feMergeNode in="color1" />
</feMerge>
</filter>
<filter id="filter1_n_122_43" x="45.9648" y="234.419" width="49.2021" height="58.0424" filterUnits="userSpaceOnUse" color-interpolation-filters="sRGB">
<feFlood flood-opacity="0" result="BackgroundImageFix"/>
<feBlend mode="normal" in="SourceGraphic" in2="BackgroundImageFix" result="shape"/>
<feTurbulence type="fractalNoise" baseFrequency="0.8800048828125 0.8800048828125" stitchTiles="stitch" numOctaves="3" result="noise" seed="6898" />
<feColorMatrix in="noise" type="luminanceToAlpha" result="alphaNoise" />
<feComponentTransfer in="alphaNoise" result="coloredNoise1">
<feFuncA type="discrete" tableValues="1 1 1 1 1 1 1 1 1 1 1 1 1 1 1 1 1 1 1 1 1 1 1 1 1 1 1 1 1 1 1 1 1 1 1 1 1 1 1 1 1 1 1 1 1 1 1 1 1 1 1 0 0 0 0 0 0 0 0 0 0 0 0 0 0 0 0 0 0 0 0 0 0 0 0 0 0 0 0 0 0 0 0 0 0 0 0 0 0 0 0 0 0 0 0 0 0 0 0 0 "/>
</feComponentTransfer>
<feComposite operator="in" in2="shape" in="coloredNoise1" result="noise1Clipped" />
<feFlood flood-color="rgba(93, 49, 49, 0.25)" result="color1Flood" />
<feComposite operator="in" in2="noise1Clipped" in="color1Flood" result="color1" />
<feMerge result="effect1_noise_122_43">
<feMergeNode in="shape" />
<feMergeNode in="color1" />
</feMerge>
</filter>
<filter id="filter2_n_122_43" x="120.128" y="236.215" width="47.3682" height="58.5446" filterUnits="userSpaceOnUse" color-interpolation-filters="sRGB">
<feFlood flood-opacity="0" result="BackgroundImageFix"/>
<feBlend mode="normal" in="SourceGraphic" in2="BackgroundImageFix" result="shape"/>
<feTurbulence type="fractalNoise" baseFrequency="0.8800048828125 0.8800048828125" stitchTiles="stitch" numOctaves="3" result="noise" seed="6898" />
<feColorMatrix in="noise" type="luminanceToAlpha" result="alphaNoise" />
<feComponentTransfer in="alphaNoise" result="coloredNoise1">
<feFuncA type="discrete" tableValues="1 1 1 1 1 1 1 1 1 1 1 1 1 1 1 1 1 1 1 1 1 1 1 1 1 1 1 1 1 1 1 1 1 1 1 1 1 1 1 1 1 1 1 1 1 1 1 1 1 1 1 0 0 0 0 0 0 0 0 0 0 0 0 0 0 0 0 0 0 0 0 0 0 0 0 0 0 0 0 0 0 0 0 0 0 0 0 0 0 0 0 0 0 0 0 0 0 0 0 0 "/>
</feComponentTransfer>
<feComposite operator="in" in2="shape" in="coloredNoise1" result="noise1Clipped" />
<feFlood flood-color="rgba(93, 49, 49, 0.25)" result="color1Flood" />
<feComposite operator="in" in2="noise1Clipped" in="color1Flood" result="color1" />
<feMerge result="effect1_noise_122_43">
<feMergeNode in="shape" />
<feMergeNode in="color1" />
</feMerge>
</filter>
<filter id="filter3_n_122_43" x="43.6182" y="49.9998" width="159.225" height="237.596" filterUnits="userSpaceOnUse" color-interpolation-filters="sRGB">
<feFlood flood-opacity="0" result="BackgroundImageFix"/>
<feBlend mode="normal" in="SourceGraphic" in2="BackgroundImageFix" result="shape"/>
<feTurbulence type="fractalNoise" baseFrequency="0.8800048828125 0.8800048828125" stitchTiles="stitch" numOctaves="3" result="noise" seed="6898" />
<feColorMatrix in="noise" type="luminanceToAlpha" result="alphaNoise" />
<feComponentTransfer in="alphaNoise" result="coloredNoise1">
<feFuncA type="discrete" tableValues="1 1 1 1 1 1 1 1 1 1 1 1 1 1 1 1 1 1 1 1 1 1 1 1 1 1 1 1 1 1 1 1 1 1 1 1 1 1 1 1 1 1 1 1 1 1 1 1 1 1 1 0 0 0 0 0 0 0 0 0 0 0 0 0 0 0 0 0 0 0 0 0 0 0 0 0 0 0 0 0 0 0 0 0 0 0 0 0 0 0 0 0 0 0 0 0 0 0 0 0 "/>
</feComponentTransfer>
<feComposite operator="in" in2="shape" in="coloredNoise1" result="noise1Clipped" />
<feFlood flood-color="rgba(93, 49, 49, 0.25)" result="color1Flood" />
<feComposite operator="in" in2="noise1Clipped" in="color1Flood" result="color1" />
<feMerge result="effect1_noise_122_43">
<feMergeNode in="shape" />
<feMergeNode in="color1" />
</feMerge>
</filter>
<filter id="filter4_n_122_43" x="85.291" y="9.7077" width="98.3535" height="61.2144" filterUnits="userSpaceOnUse" color-interpolation-filters="sRGB">
<feFlood flood-opacity="0" result="BackgroundImageFix"/>
<feBlend mode="normal" in="SourceGraphic" in2="BackgroundImageFix" result="shape"/>
<feTurbulence type="fractalNoise" baseFrequency="0.8800048828125 0.8800048828125" stitchTiles="stitch" numOctaves="3" result="noise" seed="9760" />
<feColorMatrix in="noise" type="luminanceToAlpha" result="alphaNoise" />
<feComponentTransfer in="alphaNoise" result="coloredNoise1">
<feFuncA type="discrete" tableValues="1 1 1 1 1 1 1 1 1 1 1 1 1 1 1 1 1 1 1 1 1 1 1 1 1 1 1 1 1 1 1 1 1 1 1 1 1 1 1 1 1 1 1 1 1 1 1 1 1 1 1 0 0 0 0 0 0 0 0 0 0 0 0 0 0 0 0 0 0 0 0 0 0 0 0 0 0 0 0 0 0 0 0 0 0 0 0 0 0 0 0 0 0 0 0 0 0 0 0 0 "/>
</feComponentTransfer>
<feComposite operator="in" in2="shape" in="coloredNoise1" result="noise1Clipped" />
<feFlood flood-color="rgba(0, 0, 0, 0.25)" result="color1Flood" />
<feComposite operator="in" in2="noise1Clipped" in="color1Flood" result="color1" />
<feMerge result="effect1_noise_122_43">
<feMergeNode in="shape" />
<feMergeNode in="color1" />
</feMerge>
</filter>
<filter id="filter5_n_122_43" x="134.052" y="211.196" width="33.1562" height="44.0393" filterUnits="userSpaceOnUse" color-interpolation-filters="sRGB">
<feFlood flood-opacity="0" result="BackgroundImageFix"/>
<feBlend mode="normal" in="SourceGraphic" in2="BackgroundImageFix" result="shape"/>
<feTurbulence type="fractalNoise" baseFrequency="0.8800048828125 0.8800048828125" stitchTiles="stitch" numOctaves="3" result="noise" seed="1891" />
<feColorMatrix in="noise" type="luminanceToAlpha" result="alphaNoise" />
<feComponentTransfer in="alphaNoise" result="coloredNoise1">
<feFuncA type="discrete" tableValues="1 1 1 1 1 1 1 1 1 1 1 1 1 1 1 1 1 1 1 1 1 1 1 1 1 1 1 1 1 1 1 1 1 1 1 1 1 1 1 1 1 1 1 1 1 1 1 1 1 1 1 0 0 0 0 0 0 0 0 0 0 0 0 0 0 0 0 0 0 0 0 0 0 0 0 0 0 0 0 0 0 0 0 0 0 0 0 0 0 0 0 0 0 0 0 0 0 0 0 0 "/>
</feComponentTransfer>
<feComposite operator="in" in2="shape" in="coloredNoise1" result="noise1Clipped" />
<feFlood flood-color="rgba(255, 255, 255, 0.25)" result="color1Flood" />
<feComposite operator="in" in2="noise1Clipped" in="color1Flood" result="color1" />
<feMerge result="effect1_noise_122_43">
<feMergeNode in="shape" />
<feMergeNode in="color1" />
</feMerge>
</filter>
<filter id="filter6_n_122_43" x="125.964" y="252.642" width="10.2334" height="10.7251" filterUnits="userSpaceOnUse" color-interpolation-filters="sRGB">
<feFlood flood-opacity="0" result="BackgroundImageFix"/>
<feBlend mode="normal" in="SourceGraphic" in2="BackgroundImageFix" result="shape"/>
<feTurbulence type="fractalNoise" baseFrequency="0.8800048828125 0.8800048828125" stitchTiles="stitch" numOctaves="3" result="noise" seed="1891" />
<feColorMatrix in="noise" type="luminanceToAlpha" result="alphaNoise" />
<feComponentTransfer in="alphaNoise" result="coloredNoise1">
<feFuncA type="discrete" tableValues="1 1 1 1 1 1 1 1 1 1 1 1 1 1 1 1 1 1 1 1 1 1 1 1 1 1 1 1 1 1 1 1 1 1 1 1 1 1 1 1 1 1 1 1 1 1 1 1 1 1 1 0 0 0 0 0 0 0 0 0 0 0 0 0 0 0 0 0 0 0 0 0 0 0 0 0 0 0 0 0 0 0 0 0 0 0 0 0 0 0 0 0 0 0 0 0 0 0 0 0 "/>
</feComponentTransfer>
<feComposite operator="in" in2="shape" in="coloredNoise1" result="noise1Clipped" />
<feFlood flood-color="rgba(255, 255, 255, 0.25)" result="color1Flood" />
<feComposite operator="in" in2="noise1Clipped" in="color1Flood" result="color1" />
<feMerge result="effect1_noise_122_43">
<feMergeNode in="shape" />
<feMergeNode in="color1" />
</feMerge>
</filter>
<filter id="filter7_n_122_43" x="10.5361" y="119.309" width="55.4521" height="52.4445" filterUnits="userSpaceOnUse" color-interpolation-filters="sRGB">
<feFlood flood-opacity="0" result="BackgroundImageFix"/>
<feBlend mode="normal" in="SourceGraphic" in2="BackgroundImageFix" result="shape"/>
<feTurbulence type="fractalNoise" baseFrequency="0.8800048828125 0.8800048828125" stitchTiles="stitch" numOctaves="3" result="noise" seed="6898" />
<feColorMatrix in="noise" type="luminanceToAlpha" result="alphaNoise" />
<feComponentTransfer in="alphaNoise" result="coloredNoise1">
<feFuncA type="discrete" tableValues="1 1 1 1 1 1 1 1 1 1 1 1 1 1 1 1 1 1 1 1 1 1 1 1 1 1 1 1 1 1 1 1 1 1 1 1 1 1 1 1 1 1 1 1 1 1 1 1 1 1 1 0 0 0 0 0 0 0 0 0 0 0 0 0 0 0 0 0 0 0 0 0 0 0 0 0 0 0 0 0 0 0 0 0 0 0 0 0 0 0 0 0 0 0 0 0 0 0 0 0 "/>
</feComponentTransfer>
<feComposite operator="in" in2="shape" in="coloredNoise1" result="noise1Clipped" />
<feFlood flood-color="rgba(93, 49, 49, 0.25)" result="color1Flood" />
<feComposite operator="in" in2="noise1Clipped" in="color1Flood" result="color1" />
<feMerge result="effect1_noise_122_43">
<feMergeNode in="shape" />
<feMergeNode in="color1" />
</feMerge>
</filter>
</defs>
</svg>
