<svg width="88" height="172" viewBox="0 0 88 172" fill="none" xmlns="http://www.w3.org/2000/svg">
<path d="M45 2.5C56.8109 2.5 66.9734 9.47246 74.0752 18.9219C81.1829 28.3792 85.5 40.6498 85.5 52.002C85.4999 63.075 81.3287 92.057 74.4961 118.21C71.0759 131.301 66.9462 143.853 62.2578 153.183C59.9175 157.84 57.3743 161.825 54.6143 164.68C51.8684 167.52 48.6481 169.5 45 169.5C41.3601 169.5 38.1128 167.528 35.3184 164.699C32.506 161.852 29.8834 157.875 27.4482 153.22C22.57 143.895 18.1874 131.346 14.5156 118.253C7.18447 92.1117 2.50014 63.1074 2.5 52.002C2.5 40.5753 7.3692 28.2843 14.9775 18.8535C22.5755 9.4358 33.2234 2.5 45 2.5Z" fill="#69B203" stroke="#227600" stroke-width="5"/>
</svg>
