<svg width="4314" height="2703" viewBox="0 0 4314 2703" fill="none" xmlns="http://www.w3.org/2000/svg">
<g clip-path="url(#clip0_165_167)">
<rect width="4314" height="2702.75" fill="#3EBD76"/>
<ellipse cx="2132.46" cy="2162.05" rx="457.677" ry="140.768" fill="#2C925F"/>
<path d="M898.594 1114.58C954.848 1098.93 1003.37 1108.03 1020.75 1114.62C1044.16 1123.49 1083.68 1152.45 1112.98 1201.67C1141.75 1250 1188.51 1253.49 1208.15 1249.26L1208.29 1249.23L1208.44 1249.23C1222.26 1249.11 1243.31 1252.28 1261.62 1262.21C1279.99 1272.17 1295.68 1288.99 1298.42 1316.08C1303.81 1369.46 1285.7 1407.11 1275.79 1419.43C1267.87 1429.26 1247.48 1464.59 1208.67 1470.47C1173.35 1475.82 1155.32 1481.96 1144.13 1488.45C1138.55 1491.68 1134.64 1495.03 1131.1 1498.47C1127.6 1501.86 1124.29 1505.56 1120.2 1509.16C1103.55 1523.87 1072.75 1538.62 945.76 1550.89C843.895 1560.74 789.914 1538.81 759.836 1508.34C729.848 1477.95 723.92 1439.27 717.609 1416.73C712.52 1398.56 709.11 1373.39 713.771 1350.73C718.448 1328 731.294 1307.68 758.721 1299.71C811.578 1284.36 830.086 1247 832.81 1230.41C831.957 1214.39 834.187 1189.52 843.657 1166.63C853.17 1143.64 870.061 1122.51 898.594 1114.58Z" fill="#FBCF88" stroke="#598E84" stroke-width="2.88755"/>
<ellipse opacity="0.5" cx="433.132" cy="900.194" rx="14.4378" ry="13.7159" fill="#196848"/>
<ellipse opacity="0.5" cx="14.4378" cy="13.7159" rx="14.4378" ry="13.7159" transform="matrix(1 0 0 -1 1423.56 1241.65)" fill="#196848"/>
<path opacity="0.5" d="M1283.52 473.145C1283.52 465.399 1290.16 459.12 1298.37 459.12C1306.57 459.12 1313.22 465.399 1313.22 473.145C1313.22 480.891 1306.57 487.171 1298.37 487.171C1290.16 487.171 1283.52 480.891 1283.52 473.145Z" fill="#196848"/>
<ellipse opacity="0.5" cx="479.334" cy="932.679" rx="25.988" ry="24.5442" fill="#196848"/>
<ellipse opacity="0.5" cx="25.988" cy="24.5442" rx="25.988" ry="24.5442" transform="matrix(1 0 0 -1 1458.21 1219.99)" fill="#196848"/>
<path d="M744.629 1453.38C727.809 1417.68 707.332 1342.25 759.986 1326.08C812.639 1309.9 831.166 1270.42 833.847 1252.69C832.141 1219.75 842.477 1149.81 897.47 1133.63C952.464 1117.46 999.852 1126.89 1016.67 1133.63C1039.34 1142.71 1077.96 1172.57 1106.62 1223.49C1135.29 1274.41 1181.95 1278.15 1201.69 1273.66C1228.51 1273.41 1283.45 1286.69 1288.72 1341.8C1293.98 1396.91 1261.66 1424.42 1252.15 1436.9C1245.81 1447.14 1233.58 1458.62 1162.2 1470.6C1072.98 1485.57 1115.4 1537.24 989.614 1540.99C863.83 1544.73 787.045 1541.74 744.629 1453.38Z" fill="#ACEEFF"/>
<path fill-rule="evenodd" clip-rule="evenodd" d="M1684.1 871.91C1694.53 897.499 1647.06 896.009 1622.01 892.066L1629.42 881.988L1648.7 870.596H1682.44L1684.1 871.91Z" fill="#D9D9D9"/>
<path d="M1703.04 889.218L1699.53 884.179L1684.1 871.91C1694.53 897.499 1647.06 896.009 1622.01 892.066L1618.47 896.886C1626.36 908.278 1701.28 917.435 1703.04 889.218Z" fill="#C5C5C5"/>
<path d="M1618.47 896.886L1622.41 909.592C1630.38 911.537 1638.72 912.669 1646.95 913.224C1652.15 913.575 1657.31 913.696 1662.29 913.646C1663.61 913.633 1664.93 913.608 1666.23 913.571C1681.54 913.145 1694.81 911.2 1702.16 909.592L1706.54 894.257L1703.04 889.218C1701.28 917.435 1626.36 908.278 1618.47 896.886Z" fill="#969696"/>
<path fill-rule="evenodd" clip-rule="evenodd" d="M285.079 756.409C295.516 781.997 248.04 780.508 222.998 776.564L230.408 766.486L249.687 755.094H283.426L285.079 756.409Z" fill="#D9D9D9"/>
<path d="M304.019 773.716L300.514 768.677L285.079 756.409C295.516 781.997 248.04 780.508 222.998 776.564L219.454 781.384C227.341 792.776 302.266 801.934 304.019 773.716Z" fill="#C5C5C5"/>
<path d="M219.454 781.384L223.398 794.091C231.363 796.036 239.708 797.167 247.935 797.722C253.136 798.073 258.29 798.194 263.27 798.144C264.598 798.131 265.913 798.106 267.214 798.07C282.521 797.643 295.793 795.698 303.143 794.091L307.524 778.755L304.019 773.716C302.266 801.934 227.341 792.776 219.454 781.384Z" fill="#969696"/>
<ellipse cx="945.673" cy="844.331" rx="111.171" ry="35.8165" fill="#2C925F"/>
<ellipse cx="721.794" cy="258.435" rx="40.3319" ry="12.994" fill="#2C925F"/>
<ellipse cx="1020.5" cy="895.962" rx="25.988" ry="8.37269" fill="#2C925F"/>
<ellipse cx="3109.89" cy="1093.66" rx="119.833" ry="71.4669" fill="#FBCF88"/>
<path opacity="0.5" d="M3544.26 527.803C3544.26 523.474 3547.96 519.965 3552.51 519.965C3557.07 519.965 3560.76 523.474 3560.76 527.803C3560.76 532.131 3557.07 535.64 3552.51 535.64C3547.96 535.64 3544.26 532.131 3544.26 527.803Z" fill="#196848"/>
<ellipse opacity="0.5" cx="2660.88" cy="936.288" rx="14.4378" ry="13.7159" fill="#196848"/>
<ellipse opacity="0.5" cx="14.4378" cy="13.7159" rx="14.4378" ry="13.7159" transform="matrix(1 0 0 -1 3651.31 1277.74)" fill="#196848"/>
<path opacity="0.5" d="M3511.26 509.24C3511.26 501.494 3517.91 495.215 3526.11 495.215C3534.31 495.215 3540.96 501.494 3540.96 509.24C3540.96 516.986 3534.31 523.265 3526.11 523.265C3517.91 523.265 3511.26 516.986 3511.26 509.24Z" fill="#196848"/>
<ellipse opacity="0.5" cx="25.988" cy="24.5442" rx="25.988" ry="24.5442" transform="matrix(1 0 0 -1 3685.96 1256.08)" fill="#196848"/>
<path fill-rule="evenodd" clip-rule="evenodd" d="M3228.94 467.158C3239.37 492.747 3191.9 491.257 3166.85 487.313L3174.26 477.236L3193.54 465.844H3227.28L3228.94 467.158Z" fill="#D9D9D9"/>
<path d="M3247.88 484.465L3244.37 479.426L3228.94 467.158C3239.37 492.747 3191.9 491.257 3166.85 487.313L3163.31 492.133C3171.2 503.525 3246.12 512.683 3247.88 484.465Z" fill="#969696"/>
<path d="M3163.31 492.133L3167.25 504.84C3175.22 506.785 3183.56 507.916 3191.79 508.471C3196.99 508.822 3202.15 508.943 3207.13 508.894C3208.45 508.88 3209.77 508.855 3211.07 508.819C3226.38 508.392 3239.65 506.447 3247 504.84L3251.38 489.504L3247.88 484.465C3246.12 512.683 3171.2 503.525 3163.31 492.133Z" fill="#828282"/>
<path fill-rule="evenodd" clip-rule="evenodd" d="M3911.84 908.005C3922.28 933.594 3874.81 932.104 3849.76 928.161L3857.17 918.083L3876.45 906.691H3910.19L3911.84 908.005Z" fill="#D9D9D9"/>
<path d="M3930.78 925.313L3927.28 920.274L3911.84 908.005C3922.28 933.594 3874.81 932.104 3849.76 928.161L3846.22 932.981C3854.11 944.373 3929.03 953.53 3930.78 925.313Z" fill="#C5C5C5"/>
<path d="M3846.22 932.981L3850.16 945.687C3858.13 947.632 3866.47 948.764 3874.7 949.319C3879.9 949.67 3885.05 949.791 3890.03 949.741C3891.36 949.728 3892.68 949.703 3893.98 949.666C3909.29 949.24 3922.56 947.295 3929.91 945.687L3934.29 930.352L3930.78 925.313C3929.03 953.53 3854.11 944.373 3846.22 932.981Z" fill="#969696"/>
<path fill-rule="evenodd" clip-rule="evenodd" d="M2580.68 1137.57C2591.12 1163.15 2543.64 1161.66 2518.6 1157.72L2526.01 1147.64L2545.29 1136.25H2579.03L2580.68 1137.57Z" fill="#D9D9D9"/>
<path d="M2599.62 1154.87L2596.12 1149.83L2580.68 1137.57C2591.12 1163.15 2543.64 1161.66 2518.6 1157.72L2515.06 1162.54C2522.94 1173.93 2597.87 1183.09 2599.62 1154.87Z" fill="#C5C5C5"/>
<path d="M2515.06 1162.54L2519 1175.25C2526.97 1177.19 2535.31 1178.32 2543.54 1178.88C2548.74 1179.23 2553.89 1179.35 2558.87 1179.3C2560.2 1179.29 2561.52 1179.26 2562.82 1179.23C2578.12 1178.8 2591.4 1176.85 2598.75 1175.25L2603.13 1159.91L2599.62 1154.87C2597.87 1183.09 2522.94 1173.93 2515.06 1162.54Z" fill="#969696"/>
<ellipse cx="2833.41" cy="214.4" rx="172.531" ry="55.5853" fill="#2C925F"/>
<ellipse cx="3109.89" cy="1103.04" rx="111.171" ry="62.0823" fill="#FFEBAC"/>
<ellipse cx="2949.54" cy="294.53" rx="40.3319" ry="12.994" fill="#2C925F"/>
<ellipse cx="3184.97" cy="1192.56" rx="25.988" ry="14.4378" fill="#FBCF88"/>
<path fill-rule="evenodd" clip-rule="evenodd" d="M4035.19 825.71C4024.75 851.298 4072.22 849.808 4097.27 845.865L4089.86 835.787L4070.58 824.395H4036.84L4035.19 825.71Z" fill="#D9D9D9"/>
<path d="M4016.25 843.017L4019.75 837.978L4035.19 825.71C4024.75 851.298 4072.22 849.808 4097.27 845.865L4100.81 850.685C4092.92 862.077 4018 871.234 4016.25 843.017Z" fill="#C5C5C5"/>
<path d="M4100.81 850.685L4096.87 863.391C4088.9 865.336 4080.56 866.468 4072.33 867.023C4067.13 867.374 4061.98 867.495 4056.99 867.445C4055.67 867.432 4054.35 867.407 4053.05 867.37C4037.74 866.944 4024.47 864.999 4017.12 863.391L4012.74 848.056L4016.25 843.017C4018 871.234 4092.92 862.077 4100.81 850.685Z" fill="#969696"/>
<ellipse opacity="0.5" cx="2402.44" cy="1292.9" rx="14.4378" ry="13.7159" fill="#196848"/>
<path opacity="0.5" d="M3320.48 2013.45C3320.48 2009.12 3324.17 2005.61 3328.73 2005.61C3333.28 2005.61 3336.98 2009.12 3336.98 2013.45C3336.98 2017.78 3333.28 2021.28 3328.73 2021.28C3324.17 2021.28 3320.48 2017.78 3320.48 2013.45Z" fill="#196848"/>
<ellipse opacity="0.5" cx="2616.12" cy="2224.14" rx="14.4378" ry="13.7159" fill="#196848"/>
<ellipse opacity="0.5" cx="14.4378" cy="13.7159" rx="14.4378" ry="13.7159" transform="matrix(1 0 0 -1 3606.55 2565.59)" fill="#196848"/>
<path opacity="0.5" d="M3287.48 1994.88C3287.48 1987.14 3294.12 1980.86 3302.33 1980.86C3310.53 1980.86 3317.18 1987.14 3317.18 1994.88C3317.18 2002.63 3310.53 2008.91 3302.33 2008.91C3294.12 2008.91 3287.48 2002.63 3287.48 1994.88Z" fill="#196848"/>
<ellipse opacity="0.5" cx="25.988" cy="24.5442" rx="25.988" ry="24.5442" transform="matrix(1 0 0 -1 3641.2 2543.93)" fill="#196848"/>
<path fill-rule="evenodd" clip-rule="evenodd" d="M3187.21 1760.84C3194.22 1778.04 3162.31 1777.04 3145.48 1774.39L3150.46 1767.62L3163.42 1759.96H3186.09L3187.21 1760.84Z" fill="#D9D9D9"/>
<path d="M3199.94 1772.48L3197.58 1769.09L3187.21 1760.84C3194.22 1778.04 3162.31 1777.04 3145.48 1774.39L3143.1 1777.63C3148.4 1785.29 3198.76 1791.44 3199.94 1772.48Z" fill="#969696"/>
<path d="M3143.1 1777.63L3145.75 1786.17C3151.1 1787.48 3156.71 1788.24 3162.24 1788.61C3165.74 1788.85 3169.2 1788.93 3172.55 1788.9C3173.44 1788.89 3174.32 1788.87 3175.2 1788.85C3185.49 1788.56 3194.41 1787.25 3199.35 1786.17L3202.29 1775.86L3199.94 1772.48C3198.76 1791.44 3148.4 1785.29 3143.1 1777.63Z" fill="#828282"/>
<path fill-rule="evenodd" clip-rule="evenodd" d="M3867.09 2195.85C3877.52 2221.44 3830.05 2219.95 3805 2216.01L3812.41 2205.93L3831.69 2194.54H3865.43L3867.09 2195.85Z" fill="#D9D9D9"/>
<path d="M3886.03 2213.16L3882.52 2208.12L3867.09 2195.85C3877.52 2221.44 3830.05 2219.95 3805 2216.01L3801.46 2220.83C3809.35 2232.22 3884.27 2241.38 3886.03 2213.16Z" fill="#C5C5C5"/>
<path d="M3801.46 2220.83L3805.4 2233.53C3813.37 2235.48 3821.72 2236.61 3829.94 2237.17C3835.14 2237.52 3840.3 2237.64 3845.28 2237.59C3846.6 2237.58 3847.92 2237.55 3849.22 2237.51C3864.53 2237.09 3877.8 2235.14 3885.15 2233.53L3889.53 2218.2L3886.03 2213.16C3884.27 2241.38 3809.35 2232.22 3801.46 2220.83Z" fill="#969696"/>
<path fill-rule="evenodd" clip-rule="evenodd" d="M2535.93 2425.41C2546.36 2451 2498.89 2449.51 2473.84 2445.57L2481.25 2435.49L2500.53 2424.1H2534.27L2535.93 2425.41Z" fill="#D9D9D9"/>
<path d="M2554.87 2442.72L2551.36 2437.68L2535.93 2425.41C2546.36 2451 2498.89 2449.51 2473.84 2445.57L2470.3 2450.39C2478.19 2461.78 2553.11 2470.94 2554.87 2442.72Z" fill="#C5C5C5"/>
<path d="M2470.3 2450.39L2474.24 2463.09C2482.21 2465.04 2490.55 2466.17 2498.78 2466.73C2503.98 2467.08 2509.14 2467.2 2514.12 2467.15C2515.44 2467.14 2516.76 2467.11 2518.06 2467.07C2533.37 2466.65 2546.64 2464.7 2553.99 2463.09L2558.37 2447.76L2554.87 2442.72C2553.11 2470.94 2478.19 2461.78 2470.3 2450.39Z" fill="#969696"/>
<ellipse cx="2788.65" cy="1502.25" rx="172.531" ry="55.5853" fill="#2C925F"/>
<ellipse cx="2904.78" cy="1582.38" rx="40.3319" ry="12.994" fill="#2C925F"/>
<ellipse opacity="0.5" cx="14.4378" cy="13.7159" rx="14.4378" ry="13.7159" transform="matrix(-1 0 0 1 3738.42 1586.71)" fill="#196848"/>
<ellipse opacity="0.5" cx="25.988" cy="24.5442" rx="25.988" ry="24.5442" transform="matrix(-1 0 0 1 3703.77 1608.37)" fill="#196848"/>
<path d="M3081.58 2438.52C3137.84 2422.87 3186.36 2431.97 3203.74 2438.56C3227.15 2447.43 3266.67 2476.39 3295.97 2525.61C3324.74 2573.94 3371.5 2577.43 3391.13 2573.21L3391.28 2573.17L3391.43 2573.17C3405.25 2573.05 3426.29 2576.22 3444.61 2586.15C3462.98 2596.12 3478.66 2612.93 3481.4 2640.02C3486.79 2693.41 3468.69 2731.05 3458.77 2743.37L3458.34 2743.9L3457.66 2743.91L2926.5 2748.95L2925.6 2748.96L2925.2 2748.15C2916.59 2730.88 2907.01 2703.94 2906.35 2679.27C2906.02 2666.93 2907.93 2655.04 2913.41 2645.21C2918.91 2635.34 2927.97 2627.65 2941.71 2623.66C2994.56 2608.3 3013.07 2570.95 3015.8 2554.36C3014.94 2538.34 3017.17 2513.46 3026.64 2490.57C3036.16 2467.58 3053.05 2446.45 3081.58 2438.52Z" fill="#FBCF88" stroke="#598E84" stroke-width="2.88755"/>
<path d="M2949.63 2642.11C2897.66 2657.7 2917.87 2730.42 2934.47 2764.83L3449.9 2759.78C3459.28 2747.74 3476.75 2710.4 3471.56 2657.27C3466.36 2604.14 3412.12 2591.34 3385.65 2591.58C3366.16 2595.91 3320.11 2592.3 3291.81 2543.21C3263.51 2494.12 3225.39 2465.34 3203.01 2456.58C3186.41 2450.09 3139.63 2440.99 3085.35 2456.58C3031.06 2472.18 3020.86 2539.6 3022.54 2571.36C3019.9 2588.45 3001.61 2626.52 2949.63 2642.11Z" fill="#ACEEFF"/>
<ellipse cx="881.199" cy="2138.84" rx="153.536" ry="91.5669" fill="#FBCF88"/>
<ellipse cx="881.2" cy="2150.86" rx="142.437" ry="79.543" fill="#FFEBAC"/>
<ellipse cx="977.391" cy="2265.55" rx="33.2971" ry="18.4984" fill="#FBCF88"/>
<ellipse cx="1967.77" cy="2487.62" rx="40.3319" ry="12.994" fill="#2C925F"/>
<path opacity="0.5" d="M713.017 2609.73C713.017 2605.4 716.711 2601.89 721.267 2601.89C725.824 2601.89 729.518 2605.4 729.518 2609.73C729.518 2614.06 725.824 2617.56 721.267 2617.56C716.711 2617.56 713.017 2614.06 713.017 2609.73Z" fill="#196848"/>
<ellipse opacity="0.5" cx="1279.19" cy="2284.77" rx="14.4378" ry="13.7159" transform="rotate(180 1279.19 2284.77)" fill="#196848"/>
<path opacity="0.5" d="M680.018 2591.16C680.018 2583.42 686.667 2577.14 694.868 2577.14C703.07 2577.14 709.719 2583.42 709.719 2591.16C709.719 2598.91 703.07 2605.19 694.868 2605.19C686.667 2605.19 680.018 2598.91 680.018 2591.16Z" fill="#196848"/>
<ellipse opacity="0.5" cx="1232.98" cy="2252.29" rx="25.988" ry="24.5442" transform="rotate(180 1232.98 2252.29)" fill="#196848"/>
<path opacity="0.5" d="M1205.35 1811.82C1205.35 1807.49 1209.04 1803.98 1213.6 1803.98C1218.15 1803.98 1221.85 1807.49 1221.85 1811.82C1221.85 1816.14 1218.15 1819.65 1213.6 1819.65C1209.04 1819.65 1205.35 1816.14 1205.35 1811.82Z" fill="#196848"/>
<path opacity="0.5" d="M1172.34 1793.25C1172.34 1785.51 1178.99 1779.23 1187.19 1779.23C1195.4 1779.23 1202.04 1785.51 1202.04 1793.25C1202.04 1801 1195.4 1807.28 1187.19 1807.28C1178.99 1807.28 1172.34 1801 1172.34 1793.25Z" fill="#196848"/>
<path fill-rule="evenodd" clip-rule="evenodd" d="M890.022 1751.17C900.458 1776.76 852.983 1775.27 827.94 1771.32L835.35 1761.25L854.63 1749.85H888.368L890.022 1751.17Z" fill="#D9D9D9"/>
<path d="M908.961 1768.48L905.456 1763.44L890.022 1751.17C900.458 1776.76 852.983 1775.27 827.94 1771.32L824.396 1776.14C832.283 1787.54 907.209 1796.69 908.961 1768.48Z" fill="#969696"/>
<path d="M824.396 1776.14L828.34 1788.85C836.306 1790.8 844.651 1791.93 852.877 1792.48C858.078 1792.83 863.232 1792.95 868.213 1792.91C869.54 1792.89 870.855 1792.87 872.156 1792.83C887.464 1792.4 900.736 1790.46 908.085 1788.85L912.467 1773.52L908.961 1768.48C907.209 1796.69 832.283 1787.54 824.396 1776.14Z" fill="#828282"/>
<path d="M580.586 187.428C558.063 227.276 579.864 257.451 593.58 267.557C605.13 276.942 637.326 291.813 673.709 276.22C710.092 260.627 694.644 214.859 682.371 193.925C671.543 181.653 655.229 151.333 676.596 128.233C713.557 72.7919 702.103 35.35 691.756 23.5592C679.243 8.88079 639.492 -16.0003 580.586 1.90255C521.679 19.8054 537.272 54.1191 552.432 69.0381C571.201 91.8979 603.108 147.579 580.586 187.428Z" fill="url(#paint0_linear_165_167)"/>
<path fill-rule="evenodd" clip-rule="evenodd" d="M925.566 214.239C975.868 337.567 747.051 330.387 626.355 311.381L662.069 262.81L754.988 207.903H917.596L925.566 214.239Z" fill="#D9D9D9"/>
<path d="M1016.85 297.654L999.956 273.369L925.566 214.239C975.868 337.567 747.051 330.387 626.355 311.381L609.274 334.611C647.287 389.517 1008.4 433.654 1016.85 297.654Z" fill="#969696"/>
<path d="M609.274 334.611L628.281 395.853C666.672 405.227 706.892 410.68 746.541 413.356C771.609 415.048 796.449 415.629 820.453 415.391C826.852 415.327 833.191 415.205 839.46 415.031C913.239 412.974 977.205 403.601 1012.63 395.853L1033.74 321.94L1016.85 297.654C1008.4 433.654 647.287 389.517 609.274 334.611Z" fill="#828282"/>
<ellipse cx="674.967" cy="468.505" rx="172.531" ry="55.5853" fill="#2C925F"/>
<ellipse cx="721.795" cy="258.435" rx="40.3319" ry="12.994" fill="#2C925F"/>
<rect x="573.606" y="343.388" width="74.4251" height="36.954" transform="rotate(33.6201 573.606 343.388)" fill="#D9D9D9"/>
<rect x="689.504" y="408.453" width="74.4251" height="36.954" transform="rotate(17.0027 689.504 408.453)" fill="#D9D9D9"/>
<rect width="72.3942" height="36.954" transform="matrix(-0.999977 -0.00672484 -0.00672484 0.999977 894.199 441.419)" fill="#D9D9D9"/>
<ellipse cx="736.639" cy="380.681" rx="197.088" ry="63.1297" transform="rotate(17.0027 736.639 380.681)" fill="#007EC3"/>
<ellipse cx="756.821" cy="334.685" rx="266.376" ry="72.9841" transform="rotate(17.0027 756.821 334.685)" fill="#D0D2DE"/>
<path d="M1015.52 399.62C1004.23 436.54 881.029 431.596 740.343 388.576C599.658 345.557 494.762 280.754 506.051 243.834C517.34 206.915 640.54 211.859 781.226 254.878C921.911 297.897 1026.81 362.701 1015.52 399.62Z" fill="#45C4D3"/>
<mask id="mask0_165_167" style="mask-type:alpha" maskUnits="userSpaceOnUse" x="505" y="219" width="512" height="206">
<path d="M1015.52 399.62C1004.23 436.54 881.029 431.596 740.343 388.576C599.658 345.557 494.762 280.754 506.051 243.834C517.34 206.915 640.54 211.859 781.226 254.878C921.911 297.897 1026.81 362.701 1015.52 399.62Z" fill="#45C4D3"/>
</mask>
<g mask="url(#mask0_165_167)">
<line x1="732.678" y1="386.232" x2="772.66" y2="255.479" stroke="#ACEEFF" stroke-width="4.33133"/>
<line x1="594.806" y1="329.577" x2="715.534" y2="265.392" stroke="#ACEEFF" stroke-width="4.33133"/>
<line y1="-2.16566" x2="136.73" y2="-2.16566" transform="matrix(-0.46943 -0.88297 -0.88297 0.46943 892.652 422.255)" stroke="#ACEEFF" stroke-width="4.33133"/>
<line x1="525.342" y1="225.056" x2="656.096" y2="265.038" stroke="#ACEEFF" stroke-width="4.33133"/>
<line y1="-2.16566" x2="136.73" y2="-2.16566" transform="matrix(-0.956291 -0.292416 -0.292416 0.956291 1009.97 375.511)" stroke="#ACEEFF" stroke-width="4.33133"/>
</g>
<path d="M614.908 269.07L630.91 266.235L879.272 338.637L887.9 352.546C761.66 355.936 653.305 298.308 614.908 269.07Z" fill="#D0D2DE"/>
<path fill-rule="evenodd" clip-rule="evenodd" d="M881.522 342.867C902.708 273.581 863.716 200.239 794.43 179.053C776.503 211.703 745.558 286.225 765.192 323.113C800.172 332.511 836.268 337.916 881.522 342.867Z" fill="#97EAFF"/>
<path d="M794.43 179.053C725.145 157.867 651.803 196.859 630.616 266.144C643.398 273.151 655.456 279.458 666.989 285.153C691.994 217.701 762.369 186.315 794.43 179.053Z" fill="#CDF5FF"/>
<path d="M794.43 179.053C762.369 186.315 691.994 217.701 666.989 285.153C702.785 302.828 733.531 314.606 765.192 323.113C745.558 286.225 776.503 211.703 794.43 179.053Z" fill="#ACEEFF"/>
<path fill-rule="evenodd" clip-rule="evenodd" d="M726.143 421.151C745.647 468.972 656.923 466.188 610.122 458.819L623.97 439.985L660 418.695H723.052L726.143 421.151Z" fill="#D9D9D9"/>
<path d="M761.539 453.496L754.988 444.079L726.143 421.151C745.647 468.972 656.923 466.188 610.122 458.819L603.499 467.826C618.238 489.116 758.263 506.23 761.539 453.496Z" fill="#969696"/>
<path d="M603.499 467.826L610.869 491.573C625.755 495.208 641.351 497.322 656.725 498.36C666.445 499.016 676.077 499.241 685.385 499.149C687.866 499.124 690.324 499.077 692.754 499.009C721.363 498.212 746.166 494.577 759.901 491.573L768.089 462.913L761.539 453.496C758.263 506.23 618.238 489.116 603.499 467.826Z" fill="#828282"/>
<path d="M841.91 315.923C819.387 355.772 841.188 385.947 854.904 396.053C866.454 405.438 898.65 420.308 935.033 404.716C971.416 389.123 955.968 343.355 943.696 322.421C932.867 310.148 916.553 279.829 937.921 256.729C974.881 201.288 963.427 163.846 953.08 152.055C940.568 137.377 900.816 112.496 841.91 130.398C783.004 148.301 798.597 182.615 813.756 197.534C832.525 220.394 864.433 276.075 841.91 315.923Z" fill="url(#paint1_linear_165_167)"/>
<path fill-rule="evenodd" clip-rule="evenodd" d="M1032.41 378.83C1082.71 502.158 853.891 494.978 733.195 475.972L768.909 427.401L861.828 372.494H1024.44L1032.41 378.83Z" fill="#D9D9D9"/>
<path d="M1123.69 462.245L1106.8 437.96L1032.41 378.83C1082.71 502.158 853.891 494.978 733.195 475.972L716.114 499.202C754.126 554.108 1115.24 598.245 1123.69 462.245Z" fill="#969696"/>
<path d="M716.114 499.202L735.12 560.443C773.512 569.818 813.732 575.271 853.381 577.947C878.449 579.638 903.289 580.22 927.293 579.982C933.692 579.918 940.031 579.796 946.299 579.621C1020.08 577.565 1084.05 568.192 1119.47 560.443L1140.58 486.531L1123.69 462.245C1115.24 598.245 754.126 554.108 716.114 499.202Z" fill="#828282"/>
<g filter="url(#filter0_d_165_167)">
<path d="M707.451 168.921L691.57 163.868L682.907 177.584L657.641 179.75L650.422 201.406L635.262 196.353L622.99 209.347L604.221 196.353L589.062 204.294L573.18 194.187L558.021 207.181" stroke="white" stroke-width="1.44378"/>
</g>
<g filter="url(#filter1_d_165_167)">
<path d="M908.137 293.808L924.018 288.755L932.681 302.471L957.947 304.636L965.166 326.293L980.325 321.24L992.597 334.234L1011.37 321.24L1026.53 329.181L1042.41 319.074L1057.57 332.068" stroke="white" stroke-width="1.44378"/>
</g>
<g filter="url(#filter2_d_165_167)">
<path d="M519.761 386.21L535.642 381.157L544.305 394.873L569.571 397.038L576.79 418.695L591.949 413.642L604.222 426.636L622.991 413.642L638.15 421.582L654.032 411.476L669.191 424.47" stroke="white" stroke-width="1.44378"/>
</g>
<path d="M1759.64 2400.42C1762.31 2397.95 1766.65 2395.33 1772.3 2395.8L1775.51 2396.07L1778.73 2396.34C1782.51 2396.66 1786.1 2397.72 1789.45 2399.32L1792.66 2400.86L1795.87 2402.4C1795.91 2402.42 1795.95 2402.43 1795.98 2402.44L1798.95 2402.15L1802.16 2401.83C1811.28 2400.93 1817.12 2407.3 1819.91 2411.27L1823.12 2415.83L1823.93 2416.98L1824.5 2416.76C1827.84 2415.42 1831.36 2414.62 1835.01 2414.48L1841.43 2414.22C1842.37 2414.18 1843.38 2414.01 1844.49 2413.65L1847.7 2412.59L1850.71 2411.6C1850.73 2411.59 1850.75 2411.57 1850.78 2411.55C1851.01 2411.39 1851.43 2411.04 1852.03 2410.38L1855.24 2406.82L1858.45 2403.27C1860.38 2401.14 1863.1 2398.83 1866.76 2397.56C1870.73 2396.17 1874.91 2396.33 1878.71 2397.88L1885.13 2400.5C1888.7 2401.95 1891.94 2404.06 1894.87 2406.54L1898.08 2409.26L1901.3 2411.98C1902.09 2412.65 1902.53 2412.84 1902.62 2412.88L1904.6 2413.35L1906.14 2411.42L1909.35 2407.4C1912.55 2403.4 1918.7 2397.98 1927.44 2399.43L1930.65 2399.96L1933.87 2400.49C1936.61 2400.94 1939.32 2401.6 1942.01 2402.45L1945.22 2403.47L1948.43 2404.48C1948.82 2404.61 1949.04 2404.6 1949.22 2404.57L1952.44 2404.07L1955.65 2403.57C1959.48 2402.98 1963.32 2403.18 1967.05 2404.15L1973.48 2405.8C1976.45 2406.57 1980.19 2408.33 1982.84 2412.12C1985.51 2415.94 1985.87 2420.08 1985.53 2423.19L1984.82 2429.71C1984.74 2430.47 1984.78 2431.21 1984.97 2431.99L1985.73 2435.2L1986.5 2438.41C1987.22 2441.46 1987.6 2444.56 1987.6 2447.69L1987.61 2454.11C1987.61 2454.86 1987.73 2455.69 1988.04 2456.65L1989.11 2459.86L1990.18 2463.07C1992.81 2470.98 1989.4 2477.74 1985.32 2481.96L1982.23 2485.18L1979.49 2488.02L1979.48 2489.47L1979.48 2492.68C1979.48 2494.13 1979.6 2495.59 1979.84 2497.06L1980.91 2503.49C1981.26 2505.59 1981.62 2507.7 1981.98 2509.81L1982.55 2513.02L1982.85 2514.79C1982.96 2514.88 1983.08 2514.98 1983.22 2515.09L1987.28 2518.3L1991.34 2521.52C1993.59 2523.3 1996.21 2525.92 1997.76 2529.61C1999.51 2533.74 1999.51 2538.27 1997.78 2542.41L1995.08 2548.83C1993.73 2552.06 1991.91 2555.09 1989.76 2557.92L1987.34 2561.14L1984.91 2564.35C1983.7 2565.95 1982.51 2567.54 1981.34 2569.14L1986.12 2571.91C1988.59 2573.34 1992.72 2576.14 1994.77 2581.08C1995.93 2583.9 1996.27 2587.1 1995.5 2590.31C1994.76 2593.35 1993.21 2595.66 1991.77 2597.26L1988.89 2600.47L1986.01 2603.68C1984.92 2604.9 1984.62 2605.62 1984.57 2605.79L1983.75 2608.22L1984.75 2609.24L1987.93 2612.45C1991.38 2615.94 1994.65 2621 1994.69 2627.49L1994.7 2630.7L1994.72 2633.91C1994.76 2641.99 1989.39 2647.32 1985.47 2650.23C1987.64 2651.95 1990.07 2654.41 1991.6 2657.81C1993.47 2661.96 1993.58 2666.59 1991.79 2670.86L1989.11 2677.28C1987.55 2681 1985.26 2684.31 1982.59 2687.25L1982.4 2687.46L1984 2688.82C1988.31 2692.5 1993.47 2699.63 1990.26 2708.74L1989.47 2710.99L1990.4 2711.91L1993.65 2715.12C1996.02 2717.46 1998.79 2721.3 1999.01 2726.59C1999.24 2732.01 1996.7 2736.14 1994.3 2738.73L1991.32 2741.94L1988.37 2745.13L1988.25 2747.15L1988.05 2750.36C1987.91 2752.64 1987.73 2754.92 1987.51 2757.2L1986.9 2763.62C1986.41 2768.74 1984.18 2773.09 1981.37 2776.59L1978.8 2779.8L1976.32 2782.9L1976.3 2784.43L1980.9 2787.2L1986.22 2790.41C1988.55 2791.82 1993.69 2795.32 1994.94 2801.9C1996.45 2809.83 1991.34 2815.05 1988.67 2817.14L1987.51 2818.05C1991.55 2822.08 1995.3 2828.76 1992.75 2836.83L1990.72 2843.25C1989.46 2847.24 1987.31 2850.77 1984.74 2853.86L1983.9 2854.87L1985.55 2856.53C1988.47 2859.47 1991.03 2862.88 1992.7 2866.83L1995.42 2873.26C1997.06 2877.13 1997.81 2881.33 1997.39 2885.68L1997.08 2888.9L1996.76 2892.11C1995.93 2900.72 1988.96 2905.63 1984.94 2908L1979.46 2911.21L1975.76 2913.38L1975.97 2914.71C1976.17 2915.96 1976.51 2917.27 1977.04 2918.65L1978.25 2921.86L1979.46 2925.04C1979.47 2925.05 1979.77 2925.67 1981.01 2926.82L1984.47 2930.04L1987.94 2933.25C1991.68 2936.72 1995.66 2942.31 1995.05 2949.75L1994.78 2952.96L1994.51 2956.17C1993.94 2963.15 1989.59 2968.07 1985.82 2971.14L1981.89 2974.35L1980.23 2975.71L1980.75 2977.62C1981.34 2979.82 1981.92 2982.02 1982.48 2984.21L1984.12 2990.63C1984.57 2992.37 1985.11 2994.12 1985.75 2995.9L1988.09 3002.32C1989.6 3006.48 1990.01 3010.91 1989.13 3015.36L1988.5 3018.57L1988.09 3020.63L1989.45 3023.14L1991.19 3026.35C1993.68 3030.94 1994.61 3036.28 1993.19 3041.77L1992.35 3044.98L1991.52 3048.19C1990.41 3052.43 1988.05 3055.86 1985.41 3058.57L1987.77 3059.77C1989.36 3060.58 1991.12 3061.63 1992.74 3063.03C1994.31 3064.39 1996.36 3066.6 1997.52 3069.84C1998.81 3073.47 1998.58 3077.3 1997.09 3080.63C1995.77 3083.6 1993.72 3085.6 1992.17 3086.84L1988.16 3090.05L1984.15 3093.27C1983.36 3093.9 1982.94 3094.35 1982.76 3094.57L1981.73 3097.45L1981.35 3098.48L1982.2 3099.94L1984.04 3103.15C1987.12 3108.5 1987.7 3114.79 1985.05 3120.76L1983.62 3123.98L1982.19 3127.19C1981.77 3128.13 1981.61 3128.87 1981.57 3129.45L1981.12 3135.87C1980.89 3139.19 1980.19 3142.43 1979.08 3145.56L1978.76 3146.46L1980.17 3147.47L1984.63 3150.68C1987.04 3152.41 1990.75 3155.69 1992.04 3161C1993.55 3167.24 1990.9 3172.35 1988.14 3175.41L1985.24 3178.62L1982.9 3181.21L1982.97 3182.47L1983.06 3183.98L1986.31 3187.03L1989.73 3190.24C1992.15 3192.51 1995.15 3196.39 1995.41 3201.89C1995.67 3207.54 1992.89 3211.76 1990.43 3214.29L1987.3 3217.5L1984.18 3220.71C1983.96 3220.93 1983.81 3221.11 1983.71 3221.23L1983.47 3222.66L1986.11 3224.57L1990.55 3227.78C1993.04 3229.58 1998.47 3234.38 1997.65 3242.28C1997 3248.52 1992.76 3252.23 1990.18 3254.03C1992.58 3255.81 1995.69 3258.8 1996.96 3263.42C1998.83 3270.22 1995.6 3275.64 1992.69 3278.59L1989.52 3281.8L1987.58 3283.76L1987.62 3283.98L1988.14 3287.2C1989.1 3293.08 1987.34 3298.38 1984.44 3302.59L1982.24 3305.81L1981.22 3307.29L1981.44 3308L1982.43 3311.21C1982.81 3312.43 1983.38 3313.76 1984.2 3315.2L1986.02 3318.41L1987.84 3321.62C1991.11 3327.39 1991.27 3334.03 1988.09 3339.97L1984.65 3346.4C1983.13 3349.24 1981.31 3351.97 1979.24 3354.61L1976.72 3357.82L1975.02 3359.99V3361.86L1987.14 3368.13C1989.8 3369.51 1993.27 3371.67 1995.74 3375.09C1997.09 3376.95 1998.32 3379.45 1998.67 3382.5C1999.03 3385.63 1998.38 3388.54 1997.19 3390.96L1994.04 3397.39C1992.99 3399.54 1991.92 3401.7 1990.86 3403.86L1989.27 3407.07L1987.68 3410.28C1986.9 3411.85 1986.3 3413.36 1985.86 3414.81L1984.89 3418.02L1983.91 3421.23C1983.02 3424.17 1981.78 3426.99 1980.25 3429.68L1980.28 3429.7L1985.34 3432.91C1987.78 3434.47 1991.52 3437.31 1993.37 3442.05C1995.72 3448.05 1993.88 3453.69 1990.91 3457.43L1988.36 3460.65L1985.82 3463.86C1984.22 3465.87 1982.69 3467.88 1981.23 3469.89L1978.89 3473.1L1976.55 3476.31C1976.38 3476.54 1976.29 3476.7 1976.24 3476.8L1975.99 3479.71L1975.98 3479.89L1978.63 3482.2L1982.32 3485.41C1984.59 3487.39 1987.3 3490.48 1988.43 3494.88C1989.68 3499.75 1988.49 3504.3 1986.27 3507.78L1984.23 3510.99L1982.19 3514.2C1981.2 3515.77 1980.33 3517.3 1979.59 3518.8L1980.68 3519.44L1986.08 3522.66C1988.57 3524.14 1991.5 3526.27 1993.67 3529.35C1996.11 3532.8 1997.64 3537.59 1996.24 3542.86L1995.39 3546.07L1994.53 3549.28C1993.61 3552.78 1992.1 3556.06 1990.19 3559.11L1988.48 3561.83L1990.52 3564.76C1992.38 3567.45 1993.84 3570.94 1993.84 3575.04C1993.83 3579.14 1992.37 3582.62 1990.5 3585.3L1988.26 3588.51L1986.02 3591.72C1984.18 3594.36 1982.1 3596.93 1979.8 3599.43L1977.67 3601.75L1978.73 3603.26C1981.96 3607.86 1983.65 3613.81 1981.82 3620.18L1981.28 3622.08L1982.8 3623.35L1985.46 3625.57L1987.88 3624.7L1991.1 3623.55C1993.31 3622.76 1995.52 3621.98 1997.73 3621.23L2004.16 3619.06C2007.76 3617.84 2011.54 3617.31 2015.39 3617.57L2021.82 3618.02C2024.46 3618.2 2027.09 3618.55 2029.71 3619.05L2036.13 3620.28C2042.21 3621.44 2046.65 3625.28 2049.7 3628.91L2052.91 3632.74L2054.37 3634.48L2056.05 3634.06C2056.22 3633.93 2056.51 3633.68 2056.91 3633.25L2060.13 3629.82L2063.34 3626.39C2066.7 3622.8 2071.79 3619.12 2078.56 3619L2081.77 3618.94L2084.98 3618.89C2090.42 3618.79 2095.14 3620.8 2098.92 3623.57L2102.14 3625.93L2105.35 3628.28C2106.59 3629.19 2107.53 3629.62 2108.16 3629.81L2111.37 3630.82L2114.58 3631.82C2116.24 3632.34 2117.87 3632.74 2119.48 3633.03L2122.69 3633.6L2125.9 3634.17C2128.1 3634.56 2130.31 3634.97 2132.51 3635.39L2135.72 3636.01L2138.81 3636.61C2138.81 3636.61 2138.82 3636.61 2138.82 3636.6L2142.03 3635.45L2145.25 3634.29C2149.16 3632.88 2153.31 3632.38 2157.53 3632.96L2160.75 3633.4L2163.96 3633.83C2167.36 3634.3 2170.63 3635.28 2173.75 3636.68L2174.79 3637.14L2175.22 3636.61L2178.44 3632.71C2181.17 3629.39 2184.31 3626.38 2187.94 3624.15L2191.15 3622.18L2194.37 3620.21L2194.88 3619.91C2200.03 3616.94 2206.13 3616.34 2211.93 3618.86L2212.51 3619.12L2215.73 3620.63L2218.94 3622.15C2219.99 3622.64 2220.85 3622.87 2221.54 3622.95L2224.75 3623.33L2227.97 3623.71C2228.98 3623.83 2229.99 3623.81 2231.02 3623.65L2234.24 3623.14L2237.45 3622.64C2240.04 3622.23 2242.64 3621.97 2245.25 3621.86L2251.67 3621.58L2252.34 3621.56C2259.17 3621.5 2264.33 3625.21 2267.66 3628.78L2268.96 3630.17L2269.58 3629.6C2273.47 3626.05 2279.23 3623.07 2286.15 3624.24L2286.82 3624.36L2293.25 3625.69C2294.29 3625.9 2295.29 3625.96 2296.28 3625.89L2299.49 3625.66L2302.7 3625.42C2305.73 3625.2 2308.75 3625.31 2311.76 3625.74L2314.97 3626.2L2318.19 3626.65C2322 3627.2 2325.44 3628.62 2328.47 3630.53L2331.38 3625.38C2332.28 3623.78 2333.67 3621.69 2335.77 3619.91C2338.01 3618.02 2341.67 3616.04 2346.37 3616.43C2350.85 3616.8 2353.98 3619.15 2355.73 3620.92C2357.49 3622.69 2358.7 3624.69 2359.54 3626.31L2362.75 3632.53L2365.36 3637.59L2365.97 3637.54C2366.03 3637.49 2366.11 3637.43 2366.19 3637.36L2369.4 3634.59L2372.62 3631.83L2373.11 3631.41C2375.62 3629.38 2378.97 3627.65 2383.07 3627.36C2387.2 3627.06 2390.78 3628.29 2393.58 3629.98L2394.13 3630.33L2397.65 3632.6L2401.17 3634.88C2405.83 3637.91 2410.35 3643.2 2410.3 3650.83L2410.26 3657.25C2410.25 3658.89 2410.34 3660.52 2410.53 3662.17L2411.27 3668.59C2412.46 3678.82 2404.25 3684.71 2400.41 3687.02L2395.17 3690.18C2397.87 3695.07 2398.62 3700.89 2396.33 3706.67L2395.06 3709.88L2394.68 3710.86L2395.41 3712.18L2397.2 3715.39C2399.74 3719.94 2400.76 3725.29 2399.38 3730.82L2398.79 3733.16L2400.44 3734.62L2404.09 3737.83C2407.13 3740.5 2411.53 3746.43 2408.93 3754.21C2407.01 3759.97 2402.17 3762.99 2399.78 3764.32L2398.92 3764.8C2400.62 3766.4 2402.31 3768.49 2403.44 3771.14C2405.32 3775.54 2405.17 3780.31 2403.17 3784.52L2401.64 3787.73L2400.11 3790.94C2399.54 3792.13 2399.24 3793.16 2399.09 3794.06L2398.6 3797.05L2400.71 3798.96L2404.26 3802.17C2406.64 3804.32 2409.67 3808 2410.21 3813.29C2410.78 3818.91 2408.27 3823.29 2405.8 3826.03L2402.9 3829.24L2400.01 3832.45C2399.83 3832.65 2399.71 3832.8 2399.63 3832.91L2399.26 3835.55L2398.8 3838.76C2398.13 3843.48 2395.99 3847.49 2393.36 3850.76L2396 3852.62C2399.97 3855.41 2406.46 3861.38 2405.32 3870.65L2404.93 3873.86L2404.53 3877.07C2403.99 3881.46 2402.3 3885.41 2400.01 3888.85L2397.87 3892.06L2395.72 3895.27C2394.78 3896.69 2394.16 3897.94 2393.77 3899.03L2392.61 3902.24L2391.56 3905.16L2392.24 3907.96L2393.03 3911.17C2393.11 3911.5 2393.36 3912.21 2394.15 3913.31L2396.47 3916.52L2398.78 3919.73C2400.99 3922.8 2402.78 3926.18 2403.87 3929.86L2404.83 3933.08L2405.78 3936.29C2406.42 3938.46 2407.06 3940.63 2407.69 3942.81L2409.54 3949.23C2411.02 3954.37 2409.7 3959.17 2407.31 3962.74C2405.6 3965.3 2403.37 3967.22 2401.27 3968.66C2403.48 3970.15 2405.94 3972.26 2407.7 3975.2C2410.26 3979.46 2410.88 3984.77 2408.64 3989.79L2405.78 3996.22C2405.66 3996.49 2405.61 3996.66 2405.6 3996.74C2405.58 3996.82 2405.59 3996.85 2405.59 3996.88L2405.97 4003.3C2406.25 4008.07 2405.03 4012.51 2402.9 4016.4L2401.14 4019.61L2400.54 4020.71L2400.91 4021.57L2402.32 4024.78C2405.35 4031.72 2403.64 4038.57 2399.8 4043.63L2397.36 4046.84L2397.34 4046.87L2398.77 4049.46C2400.72 4053.01 2401.54 4057.34 2400.34 4061.82C2399.53 4064.86 2397.98 4067.28 2396.34 4069.16L2398.55 4070.44C2400.12 4071.36 2402.1 4072.72 2403.8 4074.72C2405.58 4076.82 2407.48 4080.16 2407.41 4084.53C2407.34 4088.87 2405.36 4092.12 2403.6 4094.11C2401.89 4096.04 2399.93 4097.37 2398.35 4098.27L2392.73 4101.48L2390.34 4102.85L2395.4 4105.62L2401.25 4108.83C2403.85 4110.26 2406.96 4112.33 2409.29 4115.39C2411.94 4118.89 2413.72 4123.99 2412.02 4129.64L2410.09 4136.06C2408.98 4139.76 2407.18 4143.13 2404.95 4146.2L2402.62 4149.41L2400.28 4152.62C2398.43 4155.17 2396.37 4157.66 2394.13 4160.11L2392.62 4161.77L2393.75 4163.11C2397.19 4167.21 2399.77 4172.96 2398.54 4179.7L2397.36 4186.12C2397.22 4186.88 2397.22 4187.59 2397.34 4188.33L2398.38 4194.76C2398.66 4196.43 2399.03 4198.12 2399.51 4199.83L2400.41 4203.04L2401.31 4206.25C2402.89 4211.89 2401.91 4217.39 2399.29 4222.06L2397.48 4225.27L2395.68 4228.48C2395.24 4229.26 2395.21 4229.65 2395.2 4229.73L2394.97 4232.94L2394.75 4236.15C2394.46 4240.2 2393.27 4243.98 2391.46 4247.44L2390.89 4248.53L2390.89 4248.54L2394.5 4251.75C2396.95 4253.92 2400.21 4257.82 2400.52 4263.5C2400.85 4269.4 2397.84 4273.71 2395.33 4276.19L2392.08 4279.4L2390.52 4280.94L2391.21 4283.8C2392.1 4287.54 2392.24 4291.36 2391.59 4295.17L2391.04 4298.38L2390.82 4299.69L2392.43 4301.9L2394.75 4305.12C2396.03 4306.88 2397.5 4308.69 2399.16 4310.54L2404.91 4316.97C2408.04 4320.46 2410.74 4325.17 2410.97 4330.95L2410.98 4331.51L2411.01 4334.72L2411.04 4337.93C2411.11 4344.32 2408.05 4349.39 2404.67 4352.97L2402.42 4355.35L2403.39 4356.76C2405.35 4359.62 2406.82 4363.39 2406.53 4367.78C2406.24 4372.08 2404.37 4375.52 2402.33 4378.01L2399.7 4381.22L2399.08 4381.97L2400.23 4384.81C2401.65 4388.31 2402.44 4392.03 2402.43 4395.89L2402.43 4399.1L2402.42 4402.31C2402.42 4403.44 2402.56 4404.6 2402.85 4405.82L2403.62 4409.03L2404.4 4412.24C2404.53 4412.76 2404.83 4413.58 2405.59 4414.71L2407.73 4417.92L2409.87 4421.13C2413.29 4426.25 2414.48 4432.71 2411.83 4439.13L2410.51 4442.34L2409.18 4445.55C2407.63 4449.31 2405.31 4452.65 2402.61 4455.6L2396.73 4462.02C2395.79 4463.05 2395.08 4463.84 2394.59 4464.41C2394.34 4464.7 2394.17 4464.9 2394.07 4465.03C2394.05 4465.05 2394.04 4465.07 2394.03 4465.08L2393.43 4465.94L2392.74 4466.93C2389.6 4471.43 2384.99 4472.45 2383.01 4472.73C2380.74 4473.05 2378.59 4472.87 2377.02 4472.66L2374.52 4472.31L2372.46 4475.01L2369.25 4479.21C2367.34 4481.72 2363 4486.26 2356.02 4486.15C2349.15 4486.04 2344.94 4481.47 2343.1 4479L2342.75 4478.53C2339.71 4481.99 2335.42 4485.5 2329.67 4486.62L2326.46 4487.24L2323.24 4487.86C2318.94 4488.7 2314.64 4488.37 2310.56 4487.01L2307.34 4485.93L2304.13 4484.86C2297.82 4482.76 2293.73 4477.62 2291.14 4473.47L2287.93 4468.33L2285.81 4464.93L2282.96 4469.16L2279.75 4473.93C2278.12 4476.35 2274.97 4480.24 2269.71 4481.76C2263.29 4483.61 2257.93 4480.91 2254.76 4478.03L2251.55 4475.1L2248.34 4472.18C2246.73 4470.72 2245.27 4469.65 2243.98 4468.89L2241.77 4467.6L2238.8 4470.04C2235.22 4472.99 2230.64 4475.35 2225.18 4475.64L2221.97 4475.8L2219.36 4475.94C2219.31 4475.98 2219.24 4476.02 2219.17 4476.08L2215.96 4478.52L2212.75 4480.97C2209.49 4483.45 2205.71 4485.43 2201.44 4486.35L2198.23 4487.04L2195.02 4487.74C2189.24 4488.98 2184.4 4486.75 2181.29 4484.14C2178.45 4481.77 2176.48 4478.72 2175.08 4476.08L2171.87 4470.02L2169.63 4465.79L2168.8 4465.93C2168.28 4466.02 2167.51 4466.25 2166.46 4466.86L2163.25 4468.71L2160.03 4470.55C2155.59 4473.11 2150.33 4474.26 2144.8 4473.04L2141.59 4472.34L2138.37 4471.63C2135.24 4470.94 2132.21 4469.87 2129.29 4468.47L2126.07 4466.94L2123.37 4465.65L2120.98 4466.13L2117.77 4466.77C2115.06 4467.32 2112.33 4467.67 2109.58 4467.82L2106.37 4467.99L2103.16 4468.17C2102.87 4468.18 2102.35 4468.27 2101.54 4468.67L2098.32 4470.25L2095.11 4471.84C2093.97 4472.4 2092.63 4473.26 2091.12 4474.52L2084.69 4479.86C2081.38 4482.61 2077.36 4484.89 2072.66 4485.77L2066.24 4486.98C2060.76 4488.02 2055.61 4486.77 2051.28 4484.23L2048.07 4482.34L2047.71 4482.14L2047.45 4482.29L2044.24 4484.06C2038.19 4487.42 2031.37 4487.22 2025.54 4483.77L2022.33 4481.86L2020.75 4480.93L2019.68 4481.29L2016.46 4482.36C2008.63 4484.97 2001.88 4481.66 1997.62 4477.61L1996.43 4476.47L1995.3 4477.52C1993.2 4479.49 1990.37 4481.43 1986.77 4482.37C1984.99 4482.84 1983.21 4483 1981.46 4482.9L1980.34 4485.55L1980.24 4485.79L1980.83 4486.65L1983.01 4489.86C1985.93 4494.16 1987.62 4499.57 1986.5 4505.51L1985.28 4511.94C1984.8 4514.52 1984.16 4517.09 1983.4 4519.63L1982.43 4522.85L1982.27 4523.35L1983.34 4524.8L1985.7 4528.01C1987.7 4530.72 1989.42 4533.55 1990.81 4536.5L1993.83 4542.92C1995.41 4546.29 1996 4550.17 1995.09 4554.15C1994.23 4557.91 1992.24 4560.85 1990.25 4563.01L1987.27 4566.22L1984.29 4569.43C1982.94 4570.89 1982.16 4572.07 1981.73 4572.94L1980.13 4576.15L1979.73 4576.97L1980.18 4577.83L1981.84 4581.04C1983.76 4584.75 1984.9 4588.87 1984.86 4593.28L1984.83 4596.49L1984.82 4597.43L1987.74 4600.13L1991.22 4603.35C1992.73 4604.74 1994.56 4606.88 1995.63 4609.88C1996.8 4613.16 1996.77 4616.68 1995.57 4619.92C1993.53 4625.43 1988.83 4628.34 1986.4 4629.67L1983.43 4631.31C1985.37 4633.8 1987.11 4637.33 1986.93 4641.8C1986.71 4647.6 1983.4 4651.57 1980.94 4653.76L1978.81 4655.66L1979.21 4656.15C1981.06 4658.5 1982.72 4661.57 1983.24 4665.31C1983.78 4669.16 1982.98 4672.78 1981.42 4675.84L1979.78 4679.05L1978.14 4682.27C1977.61 4683.31 1977.38 4684.14 1977.29 4684.77L1976.85 4687.98L1976.53 4690.27L1978.1 4693.06L1979.92 4696.27C1981.48 4699.03 1982.49 4702.34 1982.36 4706.02C1982.22 4709.67 1980.98 4712.85 1979.34 4715.42L1977.28 4718.64L1976.39 4720.02L1976.66 4720.8L1977.42 4723.01C1977.49 4723.06 1977.56 4723.13 1977.64 4723.19C1977.94 4723.43 1978.35 4723.72 1978.88 4724.06L1983.89 4727.28L1988.91 4730.49C1992.87 4733.03 1999.51 4738.31 1999.67 4747.1L1999.78 4753.52C1999.9 4760.6 1996.02 4765.88 1992.35 4769.25L1988.86 4772.46L1985.36 4775.68C1984.99 4776.02 1984.76 4776.28 1984.63 4776.44L1984 4779.07L1983.24 4782.28C1982.76 4784.31 1982.31 4786.33 1981.89 4788.35L1981.23 4791.56L1980.85 4793.41L1982.2 4795.78L1984.04 4798.99C1987.17 4804.46 1987.63 4810.85 1984.81 4816.82L1983.3 4820.03L1981.78 4823.24C1981.07 4824.76 1980.54 4826.2 1980.18 4827.57L1979.56 4829.9L1981.08 4831.26L1984.66 4834.48C1988.63 4838.05 1993.1 4844.29 1991.44 4852.53L1990.8 4855.74L1990.15 4858.95C1989.97 4859.86 1989.93 4860.71 1990.03 4861.57L1990.74 4867.99C1991.59 4875.65 1987.36 4881.18 1983.61 4884.49L1984.01 4884.75C1986.41 4886.33 1989.24 4888.64 1991.22 4891.98C1993.46 4895.76 1994.33 4900.52 1992.73 4905.35L1990.61 4911.78C1990.56 4911.94 1990.55 4912.02 1990.55 4912.03C1990.55 4912.05 1990.54 4912.07 1990.55 4912.12L1991.72 4918.55C1992 4920.08 1992.4 4921.65 1992.93 4923.25L1994.01 4926.46L1995.09 4929.67C1995.91 4932.14 1996.63 4934.63 1997.23 4937.13L1998.78 4943.55C2001 4952.76 1995.19 4959.25 1991.11 4962.45C1993.62 4964.4 1997.82 4968.52 1997.96 4975.09C1998.1 4982.02 1993.65 4986.37 1991.14 4988.32L1987 4991.53L1982.85 4994.75C1982.84 4994.76 1982.82 4994.77 1982.81 4994.78L1982.76 4995.19L1985.86 4997.38L1990.39 5000.59C1992.82 5002.32 1997.76 5006.51 1997.91 5013.64C1998.05 5020.91 1993.12 5025.29 1990.66 5027.08L1986.25 5030.3L1982.82 5032.8L1982.93 5035.17C1982.96 5035.23 1983 5035.29 1983.06 5035.35L1987.9 5041.78C1991.07 5045.97 1993.18 5051.52 1992.06 5057.8L1991.49 5061.01L1990.92 5064.23C1990.69 5065.52 1990.6 5066.79 1990.65 5068.04L1990.88 5074.46C1991.03 5078.67 1990.14 5082.69 1988.48 5086.39L1987.04 5089.6L1985.61 5092.81C1985.06 5094.03 1984.75 5095.12 1984.59 5096.09L1984.09 5099.3L1983.59 5102.52C1982.94 5106.68 1981.3 5110.46 1979.1 5113.81L1976.99 5117.02L1975.02 5120.03V5123.25L1975.08 5125.39C1975.12 5125.44 1975.16 5125.5 1975.21 5125.57L1979.77 5131.99C1982.24 5135.48 1984.1 5139.58 1984.61 5144.22L1984.96 5147.44L1985.31 5150.65C1985.86 5155.59 1984.41 5159.88 1982.24 5163.33C1983.82 5165.26 1985.26 5168.1 1985.08 5171.97C1984.79 5177.98 1980.6 5181.18 1979.77 5181.81C1978.34 5182.89 1976.89 5183.57 1975.99 5183.96L1972.78 5185.34L1969.57 5186.72C1968.59 5187.14 1967.38 5187.84 1965.95 5188.98L1962.74 5191.54L1959.53 5194.09C1956.14 5196.79 1952.05 5198.95 1947.3 5199.68L1944.08 5200.18L1940.87 5200.67C1935.72 5201.47 1930.85 5200.35 1926.65 5198.05L1923.43 5196.3L1920.22 5194.54C1919.2 5193.98 1918.44 5193.77 1917.91 5193.69L1914.69 5193.21L1911.48 5192.74C1910.96 5192.66 1910.43 5192.68 1909.82 5192.83L1903.39 5194.41C1903.37 5194.41 1902.83 5194.55 1901.76 5195.41L1898.55 5197.99L1895.34 5200.57C1892.13 5203.15 1887.28 5205.21 1881.62 5203.9C1876.64 5202.76 1873.37 5199.51 1871.49 5197.13L1869.61 5194.76C1866.47 5197.29 1862.86 5199.37 1858.77 5200.5L1855.56 5201.39L1852.34 5202.28C1844.99 5204.31 1838.65 5201.39 1834.41 5197.6L1833.11 5196.44L1831.71 5197.72C1829.29 5199.93 1825.68 5202.21 1820.95 5202.51C1816.09 5202.82 1812.1 5200.93 1809.3 5198.73L1802.88 5193.68C1800.07 5191.47 1797.4 5188.89 1794.86 5186.03L1794.7 5185.85L1794.26 5186.36C1792.3 5188.68 1789.09 5191.62 1784.4 5192.7C1779.35 5193.87 1774.84 5192.41 1771.54 5190.16L1769.14 5193.48C1767.43 5195.85 1764.64 5198.95 1760.41 5200.6C1755.42 5202.54 1750.36 5201.76 1746.33 5199.33L1743.12 5197.4L1743.09 5197.38L1743.05 5197.41L1739.84 5199.35C1736.89 5201.14 1733.19 5202.3 1729.07 5201.91C1725.04 5201.53 1721.77 5199.79 1719.33 5197.86L1716.12 5195.31L1712.91 5192.76C1710.95 5191.2 1709 5189.74 1707.07 5188.39L1706.57 5188.04L1704.24 5190.74C1701.08 5194.4 1696.27 5198.35 1689.65 5198.98L1686.44 5199.29L1683.22 5199.6C1681.15 5199.8 1678.11 5199.81 1674.93 5198.56C1671.27 5197.12 1668.14 5194.24 1666.59 5190.15L1665.88 5188.3L1665.18 5186.45C1664.79 5185.45 1664.18 5183.94 1663.29 5181.85L1661.91 5178.64L1660.53 5175.43L1660.39 5175.08C1658.92 5171.43 1658.71 5167.39 1660 5163.48C1661.23 5159.76 1663.53 5157 1665.65 5155.04L1666.63 5154.15L1666.11 5153.63C1663.14 5150.68 1660.53 5147.22 1658.86 5143.2L1657.52 5139.99L1656.18 5136.78L1655.91 5136.11C1653.41 5129.41 1655.26 5123.02 1658.84 5118.32L1659.2 5117.86L1664.36 5111.44C1664.37 5111.43 1664.37 5111.43 1664.37 5111.42L1664.46 5109.1L1664.53 5107.01L1662.34 5104.06L1659.96 5100.85C1656.57 5096.29 1654.64 5090.2 1656.57 5083.6L1657.5 5080.39L1658.44 5077.18C1659.76 5072.64 1662.53 5069.06 1665.49 5066.28L1664.32 5065.59C1661.8 5064.11 1658.42 5061.7 1656.22 5057.9C1653.58 5053.3 1653.37 5047.84 1655.81 5043.05L1656.05 5042.59L1657.71 5039.56L1657.58 5039.38L1655.41 5036.17L1655.19 5035.83C1652.91 5032.29 1651.7 5027.59 1653.17 5022.56C1654.5 5018.03 1657.52 5014.99 1659.85 5013.14L1663.91 5009.93L1665.19 5008.91L1664.72 5007.52C1663.99 5005.36 1663.26 5003.2 1662.54 5001.04L1661.47 4997.82L1660.4 4994.61C1660.05 4993.56 1659.48 4992.34 1658.59 4990.96L1654.47 4984.54L1654.22 4984.14C1653 4982.12 1652.05 4979.55 1651.97 4976.56C1651.9 4973.35 1652.85 4970.55 1654.16 4968.35C1655.96 4965.31 1658.53 4963.21 1660.79 4961.75C1658.39 4960.16 1655.46 4957.62 1653.82 4953.74C1652.57 4950.77 1652.27 4947.39 1653.19 4944.05C1654 4941.13 1655.56 4938.94 1656.98 4937.41L1657.26 4937.12L1660.22 4934.08L1659.33 4932.5C1656.9 4928.14 1656.52 4922.91 1658.74 4918.09C1659.95 4915.47 1661.71 4913.44 1663.46 4911.9L1663.14 4911.73C1660.49 4910.35 1656.95 4908.14 1654.49 4904.58C1653.14 4902.62 1651.96 4900.02 1651.72 4896.88C1651.5 4893.89 1652.19 4891.17 1653.32 4888.93L1653.55 4888.48L1655.28 4885.27L1657.02 4882.06C1657.69 4880.81 1658.07 4879.74 1658.28 4878.83L1658.99 4875.62L1659.71 4872.4C1659.84 4871.82 1659.84 4871.3 1659.75 4870.76L1658.65 4864.33L1658.58 4863.91C1657.28 4855.2 1662.85 4849.14 1666.81 4846.06L1668.46 4844.78C1665.31 4841.37 1662.52 4836.79 1662.07 4831.09L1661.56 4824.67L1661.52 4823.94C1661.26 4817.33 1664.68 4812.34 1668.05 4809.07L1667 4808.39C1664.56 4806.82 1661.4 4804.33 1659.41 4800.52C1657.08 4796.09 1656.95 4790.99 1659.09 4786.43L1659.3 4785.99L1662.56 4779.57C1663.77 4777.19 1665.07 4774.81 1666.46 4772.45L1667.72 4770.33L1665.26 4767.38C1662.3 4763.84 1659.88 4759.32 1659.5 4753.9L1659.05 4747.48L1659.03 4747.06C1658.71 4740.2 1662.45 4735.27 1665.95 4732.15L1665.32 4731.81C1663.72 4730.96 1661.76 4729.73 1660.02 4727.95C1658.27 4726.16 1656.06 4723.08 1655.69 4718.74C1655.31 4714.21 1657.13 4710.61 1658.98 4708.33C1660.71 4706.2 1662.77 4704.77 1664.35 4703.84L1669.82 4700.63L1672.05 4699.32C1672.01 4699.29 1671.96 4699.26 1671.92 4699.24L1661.78 4692.81C1657.91 4690.36 1650.98 4684.96 1651.09 4675.94L1651.1 4675.5L1651.22 4672.29L1651.34 4669.08C1651.65 4660.63 1657.87 4655.43 1661.84 4652.81L1666.67 4649.61C1664.74 4646.15 1663.45 4642.29 1663.22 4638.1L1663.04 4634.88L1662.87 4631.67C1662.67 4628.12 1663.08 4624.62 1664.04 4621.22L1665.85 4614.79C1666.38 4612.89 1666.86 4611 1667.27 4609.1L1667.96 4605.89L1668.66 4602.68C1669.23 4600.03 1669.98 4597.4 1670.89 4594.8L1671.22 4593.84L1669.81 4592.82L1665.38 4589.6C1663.03 4587.9 1660.1 4585.25 1658.39 4581.33C1656.47 4576.91 1656.64 4572.15 1658.61 4567.99L1658.81 4567.59L1660.01 4565.22L1659.87 4565.05L1657.18 4561.84L1656.94 4561.55C1654.52 4558.54 1652.46 4554.02 1653.42 4548.57C1654.26 4543.78 1657.06 4540.47 1659.36 4538.43L1659.82 4538.04L1663.63 4534.83L1665.09 4533.6L1664.53 4531.7C1663.6 4528.55 1663.08 4525.32 1663.02 4522.03L1662.96 4518.82L1662.9 4515.61C1662.9 4515.54 1662.89 4515.22 1662.54 4514.54L1660.91 4511.33L1659.28 4508.12L1659.07 4507.71C1657.01 4503.45 1656.19 4498.64 1657.2 4493.65L1658.49 4487.23C1658.6 4486.72 1658.7 4486.21 1658.81 4485.7C1653.32 4484.26 1650.17 4479.97 1648.9 4478.01L1645.69 4473.06L1643.75 4470.06L1642.22 4470.34C1640.14 4470.72 1638.05 4471.12 1635.97 4471.53L1632.76 4472.17L1629.55 4472.8C1623.97 4473.91 1619.05 4472.36 1615.18 4469.85L1612.49 4475.2C1611.12 4477.92 1609.22 4481.03 1606.48 4483.48C1603.51 4486.13 1598.65 4488.7 1592.63 4487.5L1586.21 4486.23C1580.16 4485.04 1575.74 4481.19 1572.7 4477.55L1571.42 4476.02L1571.33 4476.11C1567.31 4479.86 1561.18 4483.04 1553.8 4481.4L1550.59 4480.68L1547.48 4479.99L1544.28 4481.03L1541.07 4482.09C1535.92 4483.78 1530.97 4482.6 1527.24 4480.16C1523.99 4478.03 1521.77 4475.06 1520.25 4472.58L1519.83 4471.89C1517.55 4474.25 1513.81 4476.98 1508.5 4477.06C1503.81 4477.13 1500.29 4475.1 1497.91 4473.02L1496.82 4475.13C1495.44 4477.82 1493.59 4480.76 1491.03 4483.14C1488.37 4485.62 1484.03 4488.24 1478.37 4487.76L1471.95 4487.22C1468.17 4486.9 1464.58 4485.84 1461.23 4484.24L1454.8 4481.16C1454.76 4481.14 1454.73 4481.13 1454.7 4481.12L1451.72 4481.41L1448.51 4481.73C1439.4 4482.64 1433.55 4476.26 1430.76 4472.3L1427.55 4467.73L1426.74 4466.58L1426.18 4466.81C1422.83 4468.14 1419.31 4468.94 1415.66 4469.09L1412.45 4469.21L1409.24 4469.34C1408.3 4469.38 1407.29 4469.55 1406.19 4469.92L1402.97 4470.97L1399.97 4471.96C1399.95 4471.97 1399.92 4471.99 1399.89 4472.01C1399.67 4472.17 1399.24 4472.52 1398.64 4473.19L1395.43 4476.74L1392.22 4480.29C1390.3 4482.42 1387.57 4484.73 1383.92 4486.01C1379.94 4487.39 1375.76 4487.24 1371.97 4485.69L1365.54 4483.07C1361.97 4481.61 1358.73 4479.5 1355.8 4477.02L1352.59 4474.3L1349.38 4471.58C1348.59 4470.91 1348.15 4470.72 1348.06 4470.69L1348.09 4470.69L1346.07 4470.21L1344.53 4472.14L1341.32 4476.16C1338.12 4480.17 1331.98 4485.58 1323.23 4484.13L1316.81 4483.07C1314.07 4482.62 1311.35 4481.96 1308.67 4481.11L1302.24 4479.08C1301.85 4478.95 1301.64 4478.96 1301.45 4478.99L1298.24 4479.49L1295.03 4479.99C1291.19 4480.59 1287.35 4480.38 1283.62 4479.42L1280.41 4478.59L1277.2 4477.76C1274.69 4477.11 1272.22 4476.34 1270.02 4475.35L1268.01 4474.46L1266 4473.56C1259.67 4470.73 1257.19 4464.98 1256.25 4461.03L1255.48 4457.82L1254.72 4454.61C1253.99 4451.56 1253.62 4448.46 1253.62 4445.33L1253.61 4442.12L1253.61 4438.91C1253.61 4438.16 1253.49 4437.33 1253.17 4436.37L1252.1 4433.16L1251.04 4429.95C1248.41 4422.04 1251.82 4415.28 1255.89 4411.06L1258.99 4407.84L1261.73 4405L1261.73 4403.55L1261.74 4400.34C1261.74 4398.89 1261.62 4397.43 1261.38 4395.96L1260.31 4389.53C1259.96 4387.43 1259.6 4385.32 1259.23 4383.21L1258.67 4380L1258.36 4378.23C1258.26 4378.14 1258.14 4378.04 1257.99 4377.93L1249.88 4371.5C1247.62 4369.72 1245.01 4367.1 1243.45 4363.41C1241.71 4359.28 1241.7 4354.75 1243.44 4350.61L1244.79 4347.4L1246.14 4344.19C1247.49 4340.96 1249.3 4337.93 1251.45 4335.1L1253.88 4331.88L1256.31 4328.67C1257.52 4327.07 1258.71 4325.48 1259.88 4323.88L1255.1 4321.12C1252.63 4319.68 1248.5 4316.88 1246.45 4311.94C1245.29 4309.12 1244.94 4305.92 1245.72 4302.71C1246.45 4299.67 1248 4297.37 1249.45 4295.76L1252.33 4292.55L1255.21 4289.33C1256.3 4288.12 1256.59 4287.4 1256.65 4287.23L1257.47 4284.8L1256.46 4283.78L1253.29 4280.57C1249.83 4277.08 1246.57 4272.02 1246.53 4265.53L1246.51 4262.32L1246.5 4259.11C1246.45 4251.03 1251.83 4245.7 1255.74 4242.79C1253.58 4241.07 1251.15 4238.61 1249.61 4235.21C1247.74 4231.06 1247.64 4226.43 1249.42 4222.16L1250.77 4218.95L1252.11 4215.74C1253.66 4212.02 1255.96 4208.71 1258.63 4205.77L1258.81 4205.56L1257.22 4204.2C1252.91 4200.52 1247.75 4193.39 1250.96 4184.28L1251.75 4182.03L1250.82 4181.11L1247.56 4177.9C1245.19 4175.56 1242.43 4171.72 1242.21 4166.43C1242.06 4162.95 1243.05 4160 1244.42 4157.65L1242.33 4157.19C1239.2 4156.5 1236.16 4155.43 1233.24 4154.03L1230.03 4152.5L1227.32 4151.21L1224.94 4151.69L1221.73 4152.33C1219.01 4152.88 1216.28 4153.23 1213.54 4153.38L1210.33 4153.55L1207.11 4153.72C1206.82 4153.74 1206.3 4153.82 1205.49 4154.23L1199.07 4157.4C1197.92 4157.96 1196.59 4158.82 1195.07 4160.08L1188.65 4165.42C1185.33 4168.17 1181.32 4170.44 1176.62 4171.33L1173.41 4171.94L1170.19 4172.54C1164.72 4173.58 1159.57 4172.32 1155.23 4169.79L1152.02 4167.9L1151.67 4167.7L1151.41 4167.84L1148.19 4169.62C1142.14 4172.97 1135.33 4172.78 1129.49 4169.32L1126.28 4167.42L1124.71 4166.49L1123.63 4166.85L1120.42 4167.92C1112.58 4170.53 1105.84 4167.22 1101.58 4163.17L1100.38 4162.03L1099.26 4163.08C1097.15 4165.05 1094.33 4166.99 1090.73 4167.93C1086.93 4168.92 1083.12 4168.57 1079.69 4167.15L1073.26 4164.5C1071 4163.57 1068.73 4162.59 1066.47 4161.57L1064.33 4160.6C1066.8 4163.92 1068.7 4167.99 1069.04 4172.76L1069.49 4179.18C1069.98 4186.26 1066.16 4191.32 1062.59 4194.5L1063.22 4194.84C1064.82 4195.7 1066.78 4196.93 1068.52 4198.71C1070.27 4200.5 1072.48 4203.57 1072.84 4207.91C1073.23 4212.45 1071.4 4216.04 1069.55 4218.33C1067.83 4220.46 1065.77 4221.88 1064.19 4222.81L1058.72 4226.02L1056.49 4227.33C1056.53 4227.36 1056.57 4227.39 1056.62 4227.42L1066.75 4233.84C1070.69 4236.34 1077.78 4241.86 1077.43 4251.15L1077.32 4254.37L1077.2 4257.58C1076.89 4266.02 1070.67 4271.22 1066.7 4273.85L1061.86 4277.05C1063.8 4280.5 1065.09 4284.37 1065.32 4288.56L1065.5 4291.77L1065.67 4294.98C1065.87 4298.53 1065.46 4302.04 1064.5 4305.44L1062.69 4311.86C1062.15 4313.76 1061.68 4315.66 1061.27 4317.55L1059.88 4323.97C1059.31 4326.63 1058.56 4329.25 1057.65 4331.86L1057.32 4332.81L1058.73 4333.84L1063.16 4337.05C1065.51 4338.75 1068.44 4341.4 1070.15 4345.33C1072.13 4349.88 1071.88 4354.81 1069.73 4359.06L1068.53 4361.43L1068.67 4361.61L1071.36 4364.82C1073.88 4367.82 1076.11 4372.46 1075.12 4378.09C1074.23 4383.19 1071.09 4386.62 1068.72 4388.62L1064.91 4391.83L1063.45 4393.06L1064.01 4394.95C1064.94 4398.11 1065.45 4401.34 1065.52 4404.63L1065.58 4407.84L1065.64 4411.05C1065.64 4411.11 1065.65 4411.43 1066 4412.11L1067.63 4415.33L1069.26 4418.54C1071.48 4422.9 1072.38 4427.86 1071.34 4433L1070.04 4439.43C1069.6 4441.61 1069.15 4443.8 1068.68 4445.98L1068 4449.19L1067.31 4452.4C1066.93 4454.19 1066.63 4455.98 1066.42 4457.75L1066.02 4460.97L1065.63 4464.18C1065.61 4464.3 1065.6 4464.5 1065.75 4464.92L1066.91 4468.14L1068.06 4471.35C1068.85 4473.56 1069.62 4475.77 1070.37 4477.99L1071.46 4481.2L1072.55 4484.41C1073.77 4488.01 1074.3 4491.79 1074.03 4495.65L1073.59 4502.07C1073.41 4504.71 1073.06 4507.34 1072.56 4509.96L1071.33 4516.38C1070.17 4522.46 1066.33 4526.9 1062.7 4529.95L1058.87 4533.16L1057.13 4534.62L1057.55 4536.3C1057.68 4536.47 1057.93 4536.76 1058.36 4537.17L1061.79 4540.38L1065.22 4543.59C1068.7 4546.85 1072.26 4551.73 1072.59 4558.18L1072.61 4558.81L1072.67 4562.02L1072.72 4565.23C1072.82 4570.67 1070.81 4575.39 1068.04 4579.18L1065.68 4582.39L1063.33 4585.6C1062.42 4586.84 1061.99 4587.78 1061.79 4588.41L1060.79 4591.62L1059.79 4594.83C1059.27 4596.49 1058.87 4598.12 1058.58 4599.73L1058.01 4602.94L1057.44 4606.16C1057.05 4608.36 1056.64 4610.56 1056.22 4612.76L1055.6 4615.97L1055 4619.06C1055 4619.06 1055 4619.07 1055 4619.08L1056.16 4622.29L1057.32 4625.5C1058.73 4629.41 1059.23 4633.56 1058.65 4637.79L1058.21 4641L1057.77 4644.21C1057.31 4647.61 1056.33 4650.88 1054.93 4654.01L1054.47 4655.04L1055 4655.48L1058.9 4658.69C1062.22 4661.42 1065.23 4664.56 1067.46 4668.19L1069.42 4671.41L1071.39 4674.62C1074.72 4680.05 1075.4 4686.59 1072.49 4692.77L1070.97 4695.98L1069.46 4699.19C1068.96 4700.24 1068.74 4701.1 1068.66 4701.8L1068.28 4705.01L1067.9 4708.22C1067.78 4709.23 1067.8 4710.24 1067.96 4711.28L1068.46 4714.49L1068.97 4717.7C1069.38 4720.29 1069.64 4722.89 1069.75 4725.5L1070.03 4731.92C1070.15 4734.58 1069.72 4741.24 1063.35 4745.13C1057.95 4748.43 1052.45 4746.93 1050.55 4746.33L1047 4745.2L1046.68 4745.1L1045.52 4746.16L1042.31 4749.09C1038.28 4752.76 1032.28 4755.82 1025.06 4754.34L1018.64 4753.01C1017.59 4752.8 1016.59 4752.73 1015.61 4752.81L1012.39 4753.04L1009.18 4753.27C1006.15 4753.5 1003.13 4753.39 1000.12 4752.96L996.907 4752.5L993.696 4752.05C989.886 4751.5 986.446 4750.08 983.407 4748.17L980.501 4753.32C979.599 4754.92 978.21 4757.01 976.109 4758.79C973.869 4760.68 970.215 4762.66 965.518 4762.27C961.031 4761.9 957.906 4759.55 956.15 4757.78C954.394 4756 953.182 4754.01 952.344 4752.39L949.133 4746.17L946.519 4741.1L945.908 4741.16C945.847 4741.21 945.773 4741.27 945.69 4741.34L942.479 4744.11L939.268 4746.87C936.84 4748.97 934.374 4750.9 931.871 4752.65L928.659 4754.9L925.447 4757.16C921.678 4759.8 917.078 4761.66 911.849 4761.62L908.637 4761.6L905.426 4761.58C903.791 4761.57 902.151 4761.66 900.506 4761.85L897.295 4762.22L894.083 4762.59C883.856 4763.78 877.964 4755.57 875.656 4751.73L872.497 4746.49C867.608 4749.19 861.784 4749.94 856.005 4747.65L852.793 4746.38L851.812 4746L850.5 4746.73L847.288 4748.52C842.733 4751.06 837.387 4752.08 831.853 4750.7L829.513 4750.11L828.061 4751.76L824.849 4755.41C822.171 4758.45 816.247 4762.85 808.462 4760.25C802.702 4758.33 799.684 4753.49 798.356 4751.1L797.878 4750.24C796.271 4751.94 794.189 4753.63 791.537 4754.76C787.139 4756.65 782.364 4756.49 778.155 4754.49L774.944 4752.96L771.732 4751.43C770.545 4750.87 769.514 4750.56 768.621 4750.41L762.197 4749.36C760.985 4749.16 758.896 4749 755.691 4748.99L750.419 4748.99L745.147 4748.98C743.774 4748.98 741.948 4748.88 740.039 4748.41C738.422 4748 734.706 4746.83 731.992 4743.15C728.684 4738.67 729.122 4733.74 730.207 4730.68C731.143 4728.05 732.694 4726.16 733.616 4725.13L736.514 4721.92L739.412 4718.71C739.589 4718.51 739.709 4718.36 739.789 4718.25L740.162 4715.61L740.618 4712.4L740.69 4711.93C741.431 4707.42 743.512 4703.57 746.054 4700.4L743.417 4698.54C739.446 4695.75 732.96 4689.78 734.098 4680.51L734.887 4674.09C735.426 4669.7 737.116 4665.75 739.41 4662.32L741.553 4659.1L743.696 4655.89C744.641 4654.48 745.26 4653.22 745.651 4652.14L746.809 4648.93L747.86 4646.01L747.174 4643.2L746.388 4639.99C746.308 4639.67 746.058 4638.96 745.264 4637.85L740.635 4631.43C738.425 4628.36 736.64 4624.99 735.546 4621.3L733.64 4614.88C732.995 4612.7 732.359 4610.53 731.733 4608.36L730.808 4605.15L729.883 4601.93C728.401 4596.79 729.716 4591.99 732.109 4588.42C733.823 4585.87 736.052 4583.95 738.147 4582.51C735.942 4581.01 733.48 4578.9 731.716 4575.96C729.161 4571.7 728.54 4566.39 730.777 4561.37L732.209 4558.16L733.64 4554.95C733.762 4554.67 733.804 4554.5 733.819 4554.42C733.834 4554.35 733.834 4554.31 733.832 4554.28L733.449 4547.86C733.165 4543.09 734.384 4538.66 736.517 4534.76L738.277 4531.55L738.881 4530.45L738.504 4529.59L737.101 4526.38C734.069 4519.44 735.777 4512.6 739.62 4507.54L742.061 4504.32L742.081 4504.3L740.648 4501.7C738.694 4498.15 737.883 4493.82 739.078 4489.34C739.889 4486.3 741.442 4483.88 743.081 4482L740.872 4480.72C739.301 4479.8 737.317 4478.44 735.616 4476.44C733.836 4474.35 731.934 4471 732.006 4466.63C732.077 4462.29 734.057 4459.05 735.82 4457.05C737.524 4455.12 739.489 4453.8 741.065 4452.9L746.686 4449.68L749.077 4448.32L744.023 4445.54L738.17 4442.33C735.569 4440.91 732.462 4438.83 730.133 4435.77C727.474 4432.28 725.696 4427.17 727.394 4421.52L729.323 4415.1C730.433 4411.41 732.237 4408.03 734.466 4404.97L736.802 4401.75L739.139 4398.54C740.991 4396 743.046 4393.5 745.285 4391.05L746.796 4389.4L745.667 4388.05C742.232 4383.95 739.643 4378.2 740.879 4371.46L741.468 4368.25L742.057 4365.04C742.195 4364.29 742.202 4363.57 742.081 4362.83L741.558 4359.62L741.035 4356.41C740.762 4354.73 740.388 4353.04 739.909 4351.33L738.108 4344.91C736.528 4339.27 737.512 4333.77 740.133 4329.1L741.937 4325.89L743.739 4322.68C744.176 4321.9 744.211 4321.51 744.217 4321.44L744.443 4318.22L744.669 4315.01C744.954 4310.97 746.148 4307.18 747.963 4303.72L748.532 4302.63L748.524 4302.63L744.914 4299.41C742.473 4297.24 739.212 4293.35 738.896 4287.66C738.568 4281.76 741.577 4277.45 744.089 4274.97L747.342 4271.76L748.897 4270.23L748.212 4267.36C747.319 4263.62 747.181 4259.8 747.83 4255.99L748.378 4252.78L748.601 4251.48L746.993 4249.26L744.665 4246.05C743.384 4244.28 741.921 4242.47 740.262 4240.62L734.504 4234.2C731.277 4230.59 728.5 4225.69 728.439 4219.65L728.406 4216.44L728.373 4213.23C728.308 4206.85 731.368 4201.77 734.749 4198.2L737 4195.81L736.031 4194.4C734.065 4191.54 732.599 4187.77 732.891 4183.38C733.176 4179.08 735.049 4175.64 737.086 4173.16L739.719 4169.94L740.336 4169.19L739.187 4166.35C738.063 4163.57 737.338 4160.66 737.087 4157.65L733.503 4158.36C727.924 4159.47 723.003 4157.92 719.136 4155.41L716.444 4160.76C715.075 4163.48 713.171 4166.59 710.433 4169.04C707.465 4171.69 702.604 4174.25 696.588 4173.06L693.376 4172.43L690.165 4171.79C684.119 4170.59 679.697 4166.75 676.659 4163.11L675.38 4161.58L675.288 4161.67C671.263 4165.41 665.137 4168.6 657.757 4166.96L654.545 4166.24L651.436 4165.54L648.237 4166.59L645.025 4167.65C639.873 4169.34 634.927 4168.16 631.197 4165.72C627.943 4163.59 625.722 4160.62 624.21 4158.14L623.786 4157.45C621.504 4159.81 617.764 4162.54 612.459 4162.62C607.767 4162.69 604.246 4160.66 601.86 4158.58L600.772 4160.69C599.391 4163.37 597.542 4166.32 594.985 4168.7C592.322 4171.17 587.982 4173.79 582.327 4173.32L579.115 4173.05L575.903 4172.78C572.122 4172.46 568.532 4171.4 565.182 4169.8L561.97 4168.26L558.758 4166.72C558.717 4166.7 558.681 4166.69 558.652 4166.68L555.678 4166.97L552.466 4167.29C543.353 4168.19 537.506 4161.82 534.719 4157.85L531.507 4153.29L530.699 4152.14L530.133 4152.36C526.787 4153.7 523.267 4154.5 519.62 4154.64L516.408 4154.77L513.196 4154.9C512.259 4154.94 511.249 4155.11 510.141 4155.47L506.929 4156.53L503.921 4157.52C503.901 4157.53 503.876 4157.55 503.848 4157.57C503.623 4157.73 503.198 4158.08 502.599 4158.75L499.387 4162.3L496.175 4165.85C494.251 4167.98 491.53 4170.29 487.871 4171.56C483.897 4172.95 479.72 4172.79 475.922 4171.24L472.711 4169.93L469.499 4168.62C465.928 4167.17 462.687 4165.06 459.758 4162.58L456.546 4159.86L453.334 4157.14C452.279 4156.25 451.845 4156.2 452.041 4156.25L450.026 4155.77L448.489 4157.7L445.277 4161.72C442.08 4165.73 435.931 4171.14 427.187 4169.69L423.975 4169.16L420.764 4168.63C418.021 4168.18 415.306 4167.52 412.622 4166.67L406.198 4164.64C405.807 4164.51 405.591 4164.52 405.404 4164.55L402.192 4165.05L398.982 4165.55C395.146 4166.14 391.31 4165.94 387.576 4164.97L384.364 4164.15L381.152 4163.32C378.683 4162.68 376.225 4161.94 373.779 4161.1L370.567 4159.99L367.54 4158.94L364.613 4159.64L361.401 4160.4C358.353 4161.13 355.256 4161.5 352.129 4161.5L348.917 4161.51L345.705 4161.51C344.955 4161.51 344.124 4161.63 343.169 4161.95L336.745 4164.08C328.837 4166.71 322.074 4163.3 317.851 4159.23L314.639 4156.13L311.796 4153.39L310.348 4153.39L307.136 4153.38C305.688 4153.38 304.229 4153.5 302.753 4153.75L299.542 4154.28L296.33 4154.81C294.224 4155.16 292.116 4155.52 290.01 4155.89L286.798 4156.45L285.029 4156.76C284.939 4156.86 284.836 4156.98 284.723 4157.13L281.511 4161.19L278.299 4165.24C276.517 4167.5 273.895 4170.11 270.204 4171.67C266.074 4173.41 261.549 4173.42 257.41 4171.68L250.986 4168.98C247.759 4167.63 244.73 4165.82 241.891 4163.67L238.679 4161.24L235.467 4158.81C233.87 4157.6 232.274 4156.41 230.679 4155.25L227.91 4160.02C226.478 4162.49 223.678 4166.62 218.734 4168.67C215.918 4169.83 212.717 4170.18 209.506 4169.4C206.468 4168.67 204.161 4167.12 202.554 4165.67L199.342 4162.79L196.13 4159.91C194.913 4158.82 194.197 4158.53 194.022 4158.47L191.594 4157.65L190.578 4158.66L187.367 4161.83C183.871 4165.29 178.813 4168.56 172.326 4168.59L169.114 4168.61L165.902 4168.62C157.826 4168.67 152.494 4163.29 149.589 4159.38C147.867 4161.54 145.407 4163.97 142.006 4165.51C137.859 4167.38 133.226 4167.48 128.956 4165.7L125.745 4164.35L122.533 4163.01C121.805 4162.71 121.093 4162.37 120.396 4162.02C122.372 4165.06 123.831 4168.65 124.118 4172.76L124.567 4179.18C125.062 4186.26 121.242 4191.32 117.67 4194.5L118.301 4194.84C119.902 4195.7 121.862 4196.93 123.599 4198.71C125.347 4200.5 127.562 4203.57 127.927 4207.91C128.307 4212.45 126.485 4216.04 124.636 4218.33C122.908 4220.46 120.851 4221.88 119.272 4222.81L113.802 4226.02L111.569 4227.33C111.613 4227.36 111.656 4227.39 111.701 4227.42L121.836 4233.84C125.769 4236.34 132.858 4241.86 132.517 4251.15L132.398 4254.37L132.28 4257.58C131.97 4266.02 125.751 4271.22 121.782 4273.85L116.945 4277.05C118.881 4280.5 120.169 4284.37 120.4 4288.56L120.577 4291.77L120.755 4294.98C120.951 4298.53 120.541 4302.04 119.583 4305.44L117.773 4311.86C117.237 4313.76 116.764 4315.66 116.355 4317.55L114.962 4323.97C114.387 4326.63 113.642 4329.25 112.733 4331.86L112.398 4332.81L113.815 4333.84L118.243 4337.05C120.59 4338.75 123.519 4341.4 125.23 4345.33C127.215 4349.88 126.966 4354.81 124.81 4359.06L123.608 4361.43L123.755 4361.61L126.443 4364.82C128.961 4367.82 131.187 4372.46 130.202 4378.09C129.309 4383.19 126.172 4386.62 123.805 4388.62L119.991 4391.83L118.533 4393.06L119.092 4394.95C120.019 4398.11 120.535 4401.34 120.599 4404.63L120.66 4407.84L120.723 4411.05C120.724 4411.11 120.733 4411.43 121.078 4412.11L122.71 4415.33L124.343 4418.54C126.559 4422.9 127.462 4427.86 126.423 4433L125.126 4439.43C124.685 4441.61 124.231 4443.8 123.766 4445.98L123.081 4449.19L122.397 4452.4C122.015 4454.19 121.716 4455.98 121.498 4457.75L121.104 4460.97L120.71 4464.18C120.695 4464.3 120.682 4464.5 120.835 4464.92L121.988 4468.14L123.141 4471.35C123.935 4473.56 124.706 4475.77 125.455 4477.99L126.543 4481.2L127.63 4484.41C128.85 4488.01 129.384 4491.79 129.116 4495.65L128.671 4502.07C128.488 4504.71 128.145 4507.34 127.644 4509.96L126.415 4516.38C125.253 4522.46 121.412 4526.9 117.778 4529.95L113.949 4533.16L112.212 4534.62L112.634 4536.3C112.762 4536.47 113.01 4536.76 113.442 4537.17L116.871 4540.38L120.3 4543.59C123.781 4546.85 127.342 4551.73 127.669 4558.18L127.69 4558.81L127.747 4562.02L127.803 4565.23C127.898 4570.67 125.893 4575.39 123.117 4579.18L120.764 4582.39L118.409 4585.6C117.5 4586.84 117.074 4587.78 116.877 4588.41L115.873 4591.62L114.868 4594.83C114.35 4596.49 113.951 4598.12 113.665 4599.73L113.095 4602.94L112.523 4606.16C112.132 4608.36 111.723 4610.56 111.298 4612.76L110.678 4615.97L110.081 4619.06C110.083 4619.06 110.085 4619.07 110.087 4619.08L111.244 4622.29L112.401 4625.5C113.812 4629.41 114.314 4633.56 113.735 4637.79L113.295 4641L112.856 4644.21C112.39 4647.61 111.41 4650.88 110.012 4654.01L109.548 4655.04L110.079 4655.48L113.982 4658.69C117.305 4661.42 120.31 4664.56 122.537 4668.19L124.507 4671.41L126.476 4674.62C129.807 4680.05 130.483 4686.59 127.571 4692.77L126.057 4695.98L124.542 4699.19C124.045 4700.24 123.824 4701.1 123.742 4701.8L123.362 4705.01L122.983 4708.22C122.863 4709.23 122.881 4710.24 123.043 4711.28L123.547 4714.49L124.052 4717.7C124.458 4720.29 124.72 4722.89 124.834 4725.5L125.115 4731.92C125.232 4734.58 124.801 4741.24 118.435 4745.13C113.029 4748.43 107.527 4746.93 105.635 4746.33L102.08 4745.2L101.762 4745.1L100.6 4746.16L97.3878 4749.09C93.3654 4752.76 87.3596 4755.82 80.1436 4754.34L73.7198 4753.01C72.6732 4752.8 71.6733 4752.73 70.6885 4752.81L67.4766 4753.04L64.2647 4753.27C61.2364 4753.5 58.2099 4753.39 55.2012 4752.96L51.9893 4752.5L48.7784 4752.05C44.9675 4751.5 41.5281 4750.08 38.4893 4748.17L35.5831 4753.32C34.6815 4754.92 33.2918 4757.01 31.1915 4758.79C28.9506 4760.68 25.2969 4762.66 20.5997 4762.27C16.1131 4761.9 12.9885 4759.55 11.2325 4757.78C9.47609 4756 8.26399 4754.01 7.42584 4752.39L4.21491 4746.17L1.60065 4741.1L0.990296 4741.16C0.928536 4741.21 0.855461 4741.27 0.772523 4741.34L-2.43939 4744.11L-5.65033 4746.87C-8.07802 4748.97 -10.5435 4750.9 -13.0468 4752.65L-16.2587 4754.9L-19.4706 4757.16C-23.2402 4759.8 -27.8398 4761.66 -33.0693 4761.62L-36.2812 4761.6L-39.4921 4761.58C-41.1272 4761.57 -42.767 4761.66 -44.412 4761.85L-47.623 4762.22L-50.8349 4762.59C-61.0621 4763.78 -66.954 4755.57 -69.2617 4751.73L-72.4208 4746.49C-77.3096 4749.19 -83.1344 4749.94 -88.913 4747.65L-92.1249 4746.38L-93.1064 4746L-94.4179 4746.73L-97.6298 4748.52C-102.185 4751.06 -107.53 4752.08 -113.065 4750.7L-115.405 4750.11L-116.857 4751.76L-120.069 4755.41C-122.747 4758.45 -128.671 4762.85 -136.456 4760.25C-142.216 4758.33 -145.234 4753.49 -146.562 4751.1L-147.04 4750.24C-148.647 4751.94 -150.729 4753.63 -153.381 4754.76C-157.779 4756.65 -162.554 4756.49 -166.763 4754.49L-169.974 4752.96L-173.185 4751.43C-174.373 4750.87 -175.404 4750.56 -176.297 4750.41L-182.721 4749.36C-183.933 4749.16 -186.022 4749 -189.227 4748.99L-194.499 4748.99L-199.771 4748.98C-201.144 4748.98 -202.97 4748.88 -204.879 4748.41C-206.496 4748 -210.212 4746.83 -212.926 4743.15C-216.234 4738.67 -215.796 4733.74 -214.711 4730.68C-213.775 4728.05 -212.224 4726.16 -211.302 4725.13L-208.404 4721.92L-205.506 4718.71C-205.329 4718.51 -205.208 4718.36 -205.129 4718.25L-204.756 4715.61L-204.3 4712.4L-204.227 4711.93C-203.487 4707.42 -201.406 4703.57 -198.864 4700.4L-201.501 4698.54C-205.472 4695.75 -211.958 4689.78 -210.82 4680.51L-210.031 4674.09C-209.492 4669.7 -207.802 4665.75 -205.508 4662.32L-203.365 4659.1L-201.222 4655.89C-200.277 4654.48 -199.658 4653.22 -199.267 4652.14L-198.109 4648.93L-197.058 4646.01L-197.744 4643.2L-198.53 4639.99C-198.61 4639.67 -198.86 4638.96 -199.654 4637.85L-204.283 4631.43C-206.493 4628.36 -208.278 4624.99 -209.372 4621.3L-211.278 4614.88C-211.923 4612.7 -212.559 4610.53 -213.185 4608.36L-214.11 4605.15L-215.035 4601.93C-216.517 4596.79 -215.202 4591.99 -212.809 4588.42C-211.095 4585.87 -208.866 4583.95 -206.771 4582.51C-208.976 4581.01 -211.438 4578.9 -213.202 4575.96C-215.757 4571.7 -216.378 4566.39 -214.141 4561.37L-212.709 4558.16L-211.278 4554.95C-211.156 4554.67 -211.114 4554.5 -211.099 4554.42C-211.084 4554.35 -211.084 4554.31 -211.086 4554.28L-211.469 4547.86C-211.753 4543.09 -210.534 4538.66 -208.401 4534.76L-206.641 4531.55L-206.037 4530.45L-206.414 4529.59L-207.817 4526.38C-210.849 4519.44 -209.141 4512.6 -205.298 4507.54L-202.857 4504.32L-202.837 4504.3L-204.269 4501.7C-206.224 4498.15 -207.035 4493.82 -205.84 4489.34C-205.029 4486.3 -203.476 4483.88 -201.837 4482L-204.046 4480.72C-205.617 4479.8 -207.601 4478.44 -209.302 4476.44C-211.082 4474.35 -212.984 4471 -212.912 4466.63C-212.841 4462.29 -210.861 4459.05 -209.098 4457.05C-207.394 4455.12 -205.428 4453.8 -203.853 4452.9L-198.232 4449.68L-195.841 4448.32L-200.895 4445.54L-206.748 4442.33C-209.349 4440.91 -212.456 4438.83 -214.785 4435.77C-217.444 4432.28 -219.222 4427.17 -217.524 4421.52L-215.595 4415.1C-214.485 4411.41 -212.681 4408.03 -210.452 4404.97L-208.116 4401.75L-205.779 4398.54C-203.927 4396 -201.872 4393.5 -199.633 4391.05L-198.122 4389.4L-199.251 4388.05C-202.686 4383.95 -205.275 4378.2 -204.039 4371.46L-203.45 4368.25L-202.861 4365.04C-202.723 4364.29 -202.716 4363.57 -202.837 4362.83L-203.36 4359.62L-203.883 4356.41C-204.156 4354.73 -204.53 4353.04 -205.009 4351.33L-206.81 4344.91C-208.39 4339.27 -207.406 4333.77 -204.785 4329.1L-202.981 4325.89L-201.179 4322.68C-200.742 4321.9 -200.707 4321.51 -200.701 4321.44L-200.475 4318.22L-200.249 4315.01C-199.964 4310.97 -198.77 4307.18 -196.955 4303.72L-196.386 4302.63L-196.393 4302.63L-200.004 4299.41C-202.444 4297.24 -205.706 4293.35 -206.022 4287.66C-206.35 4281.76 -203.341 4277.45 -200.829 4274.97L-197.576 4271.76L-196.021 4270.23L-196.706 4267.36C-197.599 4263.62 -197.737 4259.8 -197.088 4255.99L-196.54 4252.78L-196.317 4251.48L-197.925 4249.26L-200.253 4246.05C-201.534 4244.28 -202.997 4242.47 -204.656 4240.62L-210.414 4234.2C-213.641 4230.59 -216.418 4225.69 -216.479 4219.65L-216.512 4216.44L-216.545 4213.23C-216.61 4206.85 -213.55 4201.77 -210.169 4198.2L-207.918 4195.81L-208.887 4194.4C-210.853 4191.54 -212.318 4187.77 -212.027 4183.38C-211.742 4179.08 -209.869 4175.64 -207.832 4173.16L-205.199 4169.94L-204.582 4169.19L-205.731 4166.35C-206.157 4165.3 -206.524 4164.23 -206.831 4163.14C-209.679 4163.63 -212.607 4163.62 -215.545 4163.04L-218.757 4162.4L-220.815 4161.99L-223.325 4163.35L-226.537 4165.09C-231.129 4167.58 -236.47 4168.52 -241.955 4167.09L-245.166 4166.26L-248.378 4165.42C-252.618 4164.32 -256.041 4161.95 -258.751 4159.31L-259.957 4161.68C-260.616 4162.97 -261.454 4164.48 -262.471 4165.84C-262.974 4166.52 -263.778 4167.51 -264.895 4168.46C-265.863 4169.29 -268.136 4171.04 -271.563 4171.56C-275.821 4172.2 -279.755 4170.65 -282.421 4168.03C-284.568 4165.93 -285.444 4163.6 -285.795 4162.52C-286.524 4160.28 -286.625 4158.07 -286.652 4156.84L-286.781 4151.05L-286.909 4145.25C-287.008 4140.78 -286.678 4136.02 -285.154 4131.79L-283.997 4128.58L-283.624 4127.54L-284.466 4126.08L-286.315 4122.87C-289.393 4117.52 -289.974 4111.23 -287.316 4105.26L-285.888 4102.04L-284.458 4098.83C-284.037 4097.89 -283.882 4097.15 -283.842 4096.57L-283.617 4093.36L-283.393 4090.15C-283.161 4086.83 -282.461 4083.59 -281.352 4080.46L-281.033 4079.56L-282.435 4078.55L-286.898 4075.34C-289.309 4073.61 -293.018 4070.33 -294.308 4065.02C-295.823 4058.78 -293.175 4053.67 -290.41 4050.61L-287.508 4047.4L-285.17 4044.81L-285.244 4043.55L-285.331 4042.04L-288.583 4038.99L-292.005 4035.78C-294.418 4033.52 -297.423 4029.63 -297.677 4024.13C-297.937 4018.48 -295.16 4014.26 -292.699 4011.73L-286.447 4005.31C-286.233 4005.09 -286.085 4004.92 -285.985 4004.79L-285.74 4003.36L-288.382 4001.45L-292.82 3998.24C-295.31 3996.44 -300.739 3991.64 -299.916 3983.74C-299.266 3977.5 -295.035 3973.79 -292.448 3971.99C-294.848 3970.21 -297.965 3967.22 -299.234 3962.6C-301.105 3955.8 -297.875 3950.38 -294.962 3947.43L-291.786 3944.22L-289.851 3942.26L-289.888 3942.04L-290.41 3938.83C-291.366 3932.94 -289.608 3927.64 -286.715 3923.43L-284.509 3920.22L-283.487 3918.73L-283.706 3918.02L-284.703 3914.81C-285.081 3913.59 -285.65 3912.27 -286.47 3910.82L-290.112 3904.4C-293.382 3898.63 -293.537 3891.99 -290.358 3886.05L-286.919 3879.63C-285.397 3876.78 -283.578 3874.05 -281.509 3871.41L-278.988 3868.2L-277.286 3866.03V3864.13L-279.945 3862.75C-281.005 3862.2 -282.694 3861.21 -284.255 3859.59C-285.828 3857.97 -288.332 3854.53 -288.056 3849.57C-287.784 3844.69 -284.994 3841.6 -283.382 3840.2C-281.74 3838.77 -280.03 3837.94 -278.937 3837.47L-275.726 3836.1L-272.515 3834.72L-272.162 3834.58C-268.514 3833.11 -264.473 3832.9 -260.566 3834.19C-256.849 3835.42 -254.081 3837.72 -252.13 3839.84L-251.232 3840.82L-250.711 3840.29C-247.761 3837.33 -244.308 3834.72 -240.286 3833.04L-237.074 3831.71L-233.862 3830.37L-233.191 3830.1C-226.493 3827.6 -220.105 3829.45 -215.409 3833.02L-214.945 3833.39L-208.521 3838.55C-208.517 3838.56 -208.512 3838.56 -208.508 3838.56L-206.186 3838.65L-204.092 3838.72L-201.145 3836.53L-197.934 3834.15C-193.371 3830.76 -187.288 3828.83 -180.688 3830.76L-177.477 3831.69L-174.265 3832.63C-169.724 3833.95 -166.14 3836.71 -163.363 3839.68L-162.674 3838.51C-161.192 3835.99 -158.789 3832.61 -154.98 3830.41C-150.38 3827.76 -144.929 3827.56 -140.133 3829.99L-139.671 3830.24L-136.646 3831.89L-136.466 3831.77L-133.254 3829.6L-132.915 3829.38C-129.372 3827.1 -124.672 3825.89 -119.649 3827.36C-115.119 3828.69 -112.079 3831.71 -110.228 3834.04L-107.017 3838.1L-106 3839.38L-104.608 3838.91C-102.446 3838.17 -100.283 3837.45 -98.121 3836.73L-94.9091 3835.66L-91.6972 3834.59C-90.6462 3834.24 -89.429 3833.67 -88.0449 3832.78L-81.621 3828.65L-81.2245 3828.41C-79.2025 3827.19 -76.6351 3826.24 -73.6415 3826.16C-70.4302 3826.08 -67.6315 3827.04 -65.4306 3828.35C-62.3996 3830.14 -60.2916 3832.72 -58.8378 3834.98C-57.2463 3832.58 -54.7083 3829.64 -50.8251 3828.01C-47.8536 3826.76 -44.4715 3826.46 -41.1318 3827.38C-38.2147 3828.19 -36.0228 3829.74 -34.4999 3831.16L-34.204 3831.45L-31.1699 3834.41L-29.582 3833.52C-25.2271 3831.09 -19.9986 3830.7 -15.1747 3832.93C-12.5534 3834.14 -10.5276 3835.9 -8.98334 3837.64L-8.8183 3837.33C-7.43947 3834.68 -5.22946 3831.13 -1.66498 3828.68C0.293513 3827.33 2.89409 3826.15 6.03424 3825.91C9.02925 3825.69 11.7423 3826.38 13.9883 3827.51L14.4317 3827.74L17.6426 3829.47L20.8546 3831.21C22.1005 3831.88 23.1745 3832.26 24.088 3832.47L27.2989 3833.18L30.5108 3833.89C31.0982 3834.02 31.6178 3834.03 32.1592 3833.94L38.5831 3832.83L39.0001 3832.77C47.7165 3831.47 53.7727 3837.04 56.8506 3841L58.1368 3842.65C61.5468 3839.5 66.1224 3836.71 71.8214 3836.25L78.2452 3835.75L78.9747 3835.7C85.586 3835.45 90.5765 3838.87 93.8467 3842.24L94.5235 3841.19C96.0932 3838.75 98.5819 3835.59 102.393 3833.59C106.829 3831.27 111.928 3831.13 116.482 3833.28L116.921 3833.49L123.345 3836.75C125.729 3837.95 128.102 3839.26 130.462 3840.65L132.587 3841.91L135.531 3839.44C138.16 3837.25 141.335 3835.35 145.014 3834.36C146.04 3831.48 147.593 3828.93 149.372 3826.71L146.735 3824.86C142.764 3822.06 136.279 3816.09 137.416 3806.83L138.205 3800.41C138.744 3796.01 140.434 3792.07 142.729 3788.63L144.871 3785.42L147.015 3782.21C147.96 3780.79 148.578 3779.54 148.97 3778.45L150.127 3775.24L151.179 3772.32L150.492 3769.52L149.706 3766.31C149.626 3765.98 149.376 3765.27 148.582 3764.17L143.953 3757.75C141.743 3754.68 139.959 3751.3 138.864 3747.61L137.911 3744.4L136.958 3741.19C136.313 3739.02 135.678 3736.84 135.052 3734.67L134.126 3731.46L133.201 3728.25C131.719 3723.1 133.034 3718.3 135.428 3714.73C137.142 3712.18 139.371 3710.26 141.465 3708.82C139.26 3707.32 136.799 3705.22 135.034 3702.28C132.48 3698.02 131.858 3692.71 134.096 3687.68L135.527 3684.47L136.958 3681.26C137.08 3680.99 137.122 3680.81 137.138 3680.74C137.152 3680.66 137.152 3680.62 137.15 3680.6L136.768 3674.17C136.483 3669.4 137.702 3664.97 139.835 3661.08L141.596 3657.87L142.199 3656.77L141.822 3655.9L140.419 3652.69C137.387 3645.76 139.095 3638.91 142.939 3633.85L145.379 3630.64L145.399 3630.61L143.967 3628.01C142.013 3624.47 141.201 3620.13 142.397 3615.66C143.207 3612.62 144.761 3610.19 146.399 3608.32L144.19 3607.03C142.707 3606.17 140.804 3604.89 139.147 3603.04C137.481 3601.18 135.239 3597.79 135.324 3593.09C135.412 3588.27 137.887 3584.87 139.852 3582.99C141.201 3581.7 142.663 3580.76 143.958 3580.06C144.628 3576.8 146.437 3574.71 147.085 3574.01C148.156 3572.85 149.226 3572.12 149.761 3571.78C150.902 3571.04 152.054 3570.52 152.793 3570.2L156.005 3568.83L159.216 3567.45L159.568 3567.31C163.217 3565.84 167.257 3565.63 171.164 3566.92C174.881 3568.15 177.649 3570.45 179.601 3572.57L180.498 3573.55L181.02 3573.02C183.97 3570.06 187.422 3567.45 191.444 3565.77L194.656 3564.44L197.868 3563.1L198.539 3562.83C205.237 3560.32 211.625 3562.18 216.321 3565.75L216.785 3566.12L223.209 3571.28C223.214 3571.28 223.218 3571.29 223.223 3571.29L225.544 3571.37L227.639 3571.45L230.585 3569.26L233.797 3566.88C238.36 3563.49 244.442 3561.56 251.042 3563.49L254.254 3564.42L257.466 3565.36C262.007 3566.68 265.59 3569.44 268.367 3572.41L269.057 3571.24C270.538 3568.72 272.942 3565.34 276.75 3563.14C281.351 3560.49 286.802 3560.29 291.598 3562.72L292.06 3562.97L295.084 3564.62L295.265 3564.5L298.477 3562.33L298.815 3562.11C302.359 3559.83 307.058 3558.62 312.081 3560.09C316.611 3561.42 319.652 3564.44 321.502 3566.77L324.714 3570.83L325.731 3572.11L327.122 3571.64C329.284 3570.9 331.447 3570.18 333.609 3569.46L336.821 3568.39L340.033 3567.32C341.084 3566.97 342.301 3566.4 343.686 3565.51L350.109 3561.38L350.506 3561.14C352.528 3559.92 355.095 3558.97 358.089 3558.89C361.3 3558.81 364.099 3559.77 366.3 3561.08C369.331 3562.87 371.439 3565.45 372.893 3567.71C374.484 3565.31 377.022 3562.37 380.905 3560.74C383.877 3559.49 387.259 3559.18 390.599 3560.11C393.516 3560.92 395.708 3562.47 397.231 3563.89L397.526 3564.18L400.561 3567.13L402.148 3566.25C406.503 3563.82 411.732 3563.43 416.556 3565.66C419.177 3566.87 421.203 3568.63 422.747 3570.37L422.912 3570.06C424.291 3567.41 426.501 3563.86 430.065 3561.41C432.024 3560.05 434.624 3558.88 437.765 3558.64C440.76 3558.42 443.473 3559.11 445.719 3560.24L446.162 3560.47L449.373 3562.2L452.585 3563.94C456.584 3566.1 459.823 3569.14 462.364 3572.72L464.728 3576.06L467.091 3579.39C469.471 3582.74 471.355 3586.62 472.106 3590.98L473.211 3597.41C474.749 3606.35 469.066 3612.55 465.047 3615.67L463.393 3616.96C466.444 3620.26 469.16 3624.65 469.739 3630.1L469.79 3630.64L470.298 3637.07C470.849 3644.04 467.303 3649.28 463.803 3652.67L464.855 3653.35C467.295 3654.92 470.455 3657.4 472.451 3661.22C474.85 3665.8 474.918 3671.08 472.555 3675.74L469.299 3682.17C468.09 3684.55 466.788 3686.93 465.395 3689.29L464.14 3691.41L466.601 3694.35C469.559 3697.89 471.976 3702.42 472.355 3707.84L472.804 3714.26C473.298 3721.34 469.479 3726.4 465.906 3729.59L466.537 3729.92C468.139 3730.78 470.099 3732.01 471.835 3733.79C473.584 3735.58 475.799 3738.66 476.163 3743C476.544 3747.53 474.722 3751.12 472.872 3753.41C471.144 3755.54 469.088 3756.97 467.508 3757.89L462.038 3761.11L459.806 3762.42C459.849 3762.44 459.892 3762.47 459.938 3762.5L470.072 3768.93C474.005 3771.42 481.094 3776.95 480.753 3786.24L480.635 3789.45L480.517 3792.66C480.206 3801.11 473.988 3806.3 470.019 3808.93L465.182 3812.13C467.117 3815.58 468.405 3819.45 468.637 3823.64L468.814 3826.85L468.912 3828.65C469.904 3828.61 470.902 3828.62 471.906 3828.69L478.33 3829.14C480.971 3829.32 483.603 3829.66 486.221 3830.16L492.645 3831.39C498.719 3832.56 503.163 3836.4 506.211 3840.03L509.422 3843.86L510.878 3845.6L512.562 3845.17C512.729 3845.05 513.021 3844.8 513.426 3844.37L516.638 3840.94L519.849 3837.51C523.215 3833.92 528.306 3830.24 535.071 3830.12L538.283 3830.06L541.494 3830.01C546.928 3829.91 551.651 3831.92 555.438 3834.69L558.649 3837.04L561.861 3839.4C563.102 3840.31 564.038 3840.73 564.669 3840.93L567.881 3841.94L571.093 3842.94C572.75 3843.46 574.382 3843.86 575.991 3844.14L579.203 3844.71L582.415 3845.29C584.616 3845.68 586.818 3846.09 589.019 3846.51L592.231 3847.13L595.318 3847.73C595.324 3847.73 595.33 3847.72 595.336 3847.72L598.547 3846.56L601.759 3845.41C605.673 3844 609.825 3843.49 614.047 3844.07L617.259 3844.51L620.471 3844.95C623.871 3845.42 627.144 3846.4 630.266 3847.8L631.3 3848.26L631.736 3847.73L634.948 3843.83C637.682 3840.5 640.821 3837.5 644.454 3835.27L647.666 3833.3L650.878 3831.33L651.39 3831.03C656.547 3828.06 662.639 3827.45 668.447 3829.97L669.027 3830.24L672.239 3831.75L675.45 3833.27C676.503 3833.76 677.361 3833.98 678.056 3834.07L681.267 3834.45L684.479 3834.83C685.494 3834.95 686.504 3834.93 687.537 3834.77L690.748 3834.26L693.96 3833.76C696.551 3833.35 699.151 3833.09 701.758 3832.97L708.182 3832.69L708.848 3832.68C715.68 3832.62 720.841 3836.33 724.171 3839.9L725.471 3841.29L726.09 3840.72C729.987 3837.17 735.745 3834.18 742.661 3835.35L743.334 3835.48L749.758 3836.8C750.804 3837.02 751.805 3837.08 752.789 3837.01L756.001 3836.78L759.212 3836.54C762.24 3836.32 765.267 3836.43 768.275 3836.86L771.487 3837.31L774.699 3837.77C778.509 3838.31 781.948 3839.74 784.986 3841.65L787.894 3836.5C788.795 3834.9 790.186 3832.81 792.286 3831.03C794.527 3829.14 798.181 3827.16 802.878 3827.55C807.365 3827.92 810.489 3830.27 812.245 3832.04C814.002 3833.81 815.213 3835.81 816.051 3837.43L819.263 3843.65L821.876 3848.71L822.485 3848.66C822.547 3848.61 822.621 3848.55 822.704 3848.48L825.916 3845.71L829.128 3842.94C831.556 3840.85 834.021 3838.92 836.524 3837.17L842.948 3832.66C846.718 3830.02 851.317 3828.16 856.546 3828.19L859.758 3828.21L862.97 3828.24C864.605 3828.25 866.244 3828.16 867.889 3827.97L874.313 3827.22L874.788 3827.18C884.723 3826.3 890.468 3834.31 892.739 3838.08L895.898 3843.33C900.623 3840.71 906.223 3839.93 911.81 3841.94L912.391 3842.16L915.602 3843.43L916.582 3843.82L917.895 3843.09L921.107 3841.3L921.536 3841.06C925.852 3838.77 930.847 3837.84 936.024 3838.99L936.543 3839.12L938.882 3839.7L940.334 3838.05L943.546 3834.41C946.223 3831.37 952.147 3826.97 959.933 3829.56C965.693 3831.48 968.712 3836.32 970.04 3838.72L970.517 3839.58C972.123 3837.88 974.206 3836.19 976.858 3835.05C981.119 3833.23 985.733 3833.32 989.843 3835.15L990.239 3835.33L993.451 3836.86L996.663 3838.39C997.851 3838.95 998.882 3839.26 999.774 3839.4L1002.77 3839.89L1004.68 3837.78L1007.89 3834.23L1008.31 3833.78C1010.51 3831.48 1014.05 3828.79 1019.01 3828.29C1024.28 3827.76 1028.46 3829.92 1031.22 3832.23L1031.75 3832.69L1034.96 3835.59L1038.17 3838.49C1038.37 3838.67 1038.52 3838.79 1038.63 3838.87L1041.27 3839.24L1044.48 3839.7C1049.2 3840.37 1053.2 3842.5 1056.48 3845.13L1058.34 3842.5C1061.09 3838.59 1066.92 3832.24 1075.94 3833.13L1076.37 3833.18L1082.79 3833.96C1087.18 3834.5 1091.13 3836.19 1094.57 3838.49L1097.78 3840.63L1100.99 3842.77C1102.41 3843.72 1103.66 3844.34 1104.74 3844.73L1107.96 3845.89L1110.87 3846.94L1113.68 3846.25L1116.89 3845.47C1117.22 3845.39 1117.93 3845.14 1119.03 3844.34L1122.24 3842.03L1125.45 3839.71C1128.52 3837.5 1131.9 3835.72 1135.58 3834.62L1138.79 3833.67L1142.01 3832.72C1144.18 3832.07 1146.35 3831.44 1148.53 3830.81L1151.74 3829.89L1154.95 3828.96L1155.43 3828.83C1160.39 3827.56 1165.01 3828.87 1168.46 3831.19C1171.02 3832.9 1172.93 3835.13 1174.37 3837.22C1175.87 3835.02 1177.98 3832.56 1180.92 3830.79C1185.05 3828.32 1190.16 3827.66 1195.04 3829.65L1195.51 3829.86L1198.72 3831.29L1201.94 3832.72C1202.21 3832.84 1202.38 3832.88 1202.46 3832.9C1202.54 3832.91 1202.57 3832.91 1202.6 3832.91L1209.02 3832.53L1209.47 3832.5C1214.07 3832.32 1218.35 3833.53 1222.12 3835.59L1225.33 3837.36L1226.43 3837.96L1227.29 3837.58L1230.5 3836.18L1231.15 3835.91C1237.65 3833.34 1244.02 3834.87 1248.87 3838.34L1249.35 3838.7L1251.47 3840.31C1252.66 3838.07 1254.18 3836.13 1255.81 3834.45L1253.44 3833.25C1251.86 3832.44 1250.1 3831.39 1248.48 3829.99C1246.91 3828.63 1244.85 3826.42 1243.7 3823.17C1242.4 3819.54 1242.64 3815.72 1244.13 3812.39C1245.45 3809.42 1247.5 3807.42 1249.05 3806.18L1253.06 3802.97L1257.07 3799.75C1257.86 3799.12 1258.27 3798.67 1258.46 3798.45L1259.49 3795.58L1259.86 3794.54L1259.02 3793.08L1257.17 3789.87C1254.09 3784.52 1253.51 3778.23 1256.17 3772.26L1257.6 3769.04L1259.03 3765.83C1259.45 3764.89 1259.61 3764.15 1259.65 3763.57L1259.87 3760.36L1260.09 3757.15C1260.33 3753.83 1261.03 3750.59 1262.14 3747.46L1262.45 3746.56L1261.05 3745.55L1256.59 3742.34C1254.18 3740.61 1250.47 3737.33 1249.18 3732.02C1247.66 3725.78 1250.31 3720.67 1253.08 3717.61L1255.98 3714.4L1258.32 3711.81L1258.24 3710.55L1258.16 3709.04L1254.9 3705.99L1251.48 3702.78C1249.07 3700.52 1246.06 3696.63 1245.81 3691.13C1245.55 3685.48 1248.33 3681.26 1250.79 3678.73L1257.04 3672.31C1257.25 3672.09 1257.4 3671.91 1257.5 3671.79L1257.75 3670.36L1255.11 3668.45L1250.67 3665.24C1248.18 3663.44 1242.75 3658.64 1243.57 3650.74C1244.31 3643.64 1249.69 3639.81 1252 3638.35L1255.33 3636.26C1256.04 3632.98 1257.88 3630.94 1258.4 3630.38C1260.04 3628.6 1261.91 3627.63 1262.28 3627.44C1263.05 3627.02 1263.85 3626.65 1264.55 3626.36L1267.76 3624.98L1270.97 3623.6L1271.33 3623.46C1274.97 3621.99 1279.01 3621.78 1282.92 3623.07C1286.64 3624.3 1289.41 3626.6 1291.36 3628.72L1292.25 3629.7L1292.78 3629.18C1295.73 3626.21 1299.18 3623.6 1303.2 3621.93L1306.41 3620.59L1309.63 3619.25L1310.3 3618.98C1316.99 3616.48 1323.38 3618.33 1328.08 3621.91L1328.54 3622.27L1334.97 3627.43C1334.97 3627.44 1334.98 3627.44 1334.98 3627.44L1337.3 3627.53L1339.4 3627.6L1342.34 3625.41L1345.55 3623.03C1350.12 3619.64 1356.2 3617.71 1362.8 3619.64L1366.01 3620.58L1369.22 3621.51C1373.76 3622.83 1377.35 3625.6 1380.12 3628.56L1380.81 3627.39C1382.3 3624.87 1384.7 3621.49 1388.51 3619.29C1393.11 3616.65 1398.56 3616.44 1403.35 3618.88L1403.82 3619.12L1406.84 3620.78L1407.02 3620.65L1410.23 3618.48L1410.57 3618.26C1414.12 3615.98 1418.82 3614.77 1423.84 3616.24C1428.37 3617.57 1431.41 3620.59 1433.26 3622.92L1436.47 3626.98L1437.49 3628.26L1438.88 3627.79C1441.04 3627.06 1443.2 3626.33 1445.37 3625.61L1448.58 3624.54L1451.79 3623.47C1452.84 3623.12 1454.06 3622.55 1455.44 3621.66L1461.87 3617.54L1462.26 3617.29C1464.28 3616.07 1466.85 3615.12 1469.85 3615.04C1473.06 3614.97 1475.86 3615.92 1478.06 3617.23C1481.09 3619.03 1483.2 3621.6 1484.65 3623.87C1486.24 3621.46 1488.78 3618.53 1492.66 3616.89C1495.63 3615.64 1499.02 3615.34 1502.36 3616.26C1505.27 3617.07 1507.46 3618.63 1508.99 3620.05L1509.28 3620.33L1512.32 3623.29L1513.91 3622.4C1518.26 3619.97 1523.49 3619.59 1528.31 3621.81C1530.93 3623.02 1532.96 3624.78 1534.5 3626.53L1534.67 3626.21C1536.05 3623.56 1538.26 3620.02 1541.82 3617.56C1543.78 3616.21 1546.38 3615.03 1549.52 3614.79C1552.52 3614.57 1555.23 3615.26 1557.48 3616.39L1557.92 3616.62L1561.13 3618.35L1564.34 3620.09C1565.59 3620.76 1566.66 3621.14 1567.58 3621.35L1570.79 3622.06L1574 3622.78C1574.59 3622.91 1575.11 3622.91 1575.65 3622.82L1582.07 3621.72L1582.49 3621.65C1591.2 3620.36 1597.26 3625.92 1600.34 3629.88L1601.62 3631.53C1605.03 3628.38 1609.61 3625.59 1615.31 3625.14L1621.73 3624.63L1622.46 3624.59C1629.07 3624.33 1634.06 3627.75 1637.33 3631.12L1638.01 3630.07C1639.58 3627.63 1642.07 3624.47 1645.88 3622.48C1650.32 3620.15 1655.42 3620.02 1659.97 3622.16L1660.41 3622.37L1660.43 3622.38C1658.67 3620.28 1656.83 3616.97 1656.9 3612.66C1656.97 3608.33 1658.95 3605.08 1660.71 3603.08C1662.41 3601.15 1664.38 3599.83 1665.95 3598.93L1671.58 3595.72L1673.97 3594.35L1668.91 3591.58L1663.06 3588.37C1660.46 3586.94 1657.35 3584.87 1655.02 3581.8C1652.36 3578.31 1650.59 3573.21 1652.28 3567.56L1654.21 3561.13C1655.32 3557.44 1657.13 3554.06 1659.36 3551L1661.69 3547.79L1664.03 3544.58C1665.88 3542.03 1667.94 3539.53 1670.17 3537.08L1671.69 3535.43L1670.56 3534.08C1667.23 3530.11 1664.7 3524.59 1665.66 3518.12L1665.77 3517.5L1666.95 3511.07C1667.08 3510.32 1667.09 3509.6 1666.97 3508.86L1666.45 3505.65L1665.92 3502.44C1665.65 3500.76 1665.28 3499.07 1664.8 3497.37L1663.9 3494.15L1663 3490.94C1661.47 3485.48 1662.34 3480.15 1664.78 3475.58L1665.02 3475.14L1666.83 3471.92L1668.63 3468.71C1669.06 3467.94 1669.1 3467.55 1669.11 3467.47L1669.33 3464.26L1669.56 3461.05C1669.84 3457 1671.04 3453.21 1672.85 3449.75L1673.42 3448.67L1673.41 3448.66L1669.8 3445.45L1669.34 3445.02C1666.97 3442.78 1664.08 3439.02 1663.79 3433.69C1663.48 3428.16 1666.1 3424.03 1668.5 3421.49L1668.98 3421L1672.23 3417.79L1673.79 3416.26L1673.1 3413.39C1672.21 3409.65 1672.07 3405.83 1672.72 3402.03L1673.27 3398.81L1673.49 3397.51L1671.88 3395.29L1669.55 3392.08C1668.27 3390.31 1666.81 3388.5 1665.15 3386.65L1659.39 3380.23C1656.17 3376.63 1653.39 3371.72 1653.33 3365.69L1653.3 3362.47L1653.26 3359.26L1653.27 3358.67C1653.39 3352.57 1656.36 3347.7 1659.64 3344.23L1661.89 3341.85L1660.92 3340.44L1660.56 3339.89C1658.78 3337.1 1657.51 3333.53 1657.78 3329.41C1658.07 3325.12 1659.94 3321.67 1661.98 3319.19L1664.61 3315.98L1665.23 3315.22L1664.08 3312.38C1662.66 3308.88 1661.87 3305.17 1661.88 3301.31L1661.88 3298.1L1661.89 3294.89C1661.89 3293.76 1661.75 3292.59 1661.46 3291.38L1660.68 3288.17L1659.91 3284.96C1659.78 3284.44 1659.48 3283.62 1658.72 3282.49L1656.58 3279.27L1654.44 3276.06C1651.02 3270.94 1649.83 3264.49 1652.48 3258.07L1655.13 3251.65C1656.68 3247.88 1659 3244.54 1661.7 3241.6L1664.64 3238.38L1666.86 3235.96L1666.77 3234.95L1666.49 3231.73C1666.22 3228.67 1666.3 3225.61 1666.72 3222.56L1667.07 3220.06L1664.37 3218L1660.16 3214.79L1659.67 3214.41C1657.11 3212.33 1653.12 3208.11 1653.23 3201.56C1653.34 3194.69 1657.91 3190.49 1660.38 3188.64L1660.85 3188.29C1657.39 3185.26 1653.88 3180.96 1652.76 3175.21L1651.51 3168.79C1650.68 3164.48 1651.01 3160.18 1652.37 3156.1L1653.44 3152.89L1654.51 3149.67C1656.62 3143.36 1661.76 3139.27 1665.9 3136.68L1671.05 3133.47L1674.45 3131.35L1670.22 3128.5L1665.45 3125.29C1663.03 3123.67 1659.14 3120.52 1657.62 3115.25C1655.83 3109.03 1658.31 3103.81 1661.08 3100.61L1661.35 3100.31L1664.27 3097.09L1667.2 3093.88C1668.66 3092.27 1669.73 3090.81 1670.49 3089.52L1671.78 3087.32L1669.33 3084.34C1666.39 3080.76 1664.03 3076.18 1663.74 3070.72L1663.57 3067.51L1663.44 3064.91C1663.4 3064.85 1663.35 3064.79 1663.3 3064.71L1660.85 3061.5L1658.41 3058.29C1655.93 3055.03 1653.95 3051.26 1653.03 3046.99L1651.64 3040.56L1651.53 3040.02C1650.54 3034.48 1652.71 3029.85 1655.23 3026.83C1657.6 3023.99 1660.66 3022.03 1663.3 3020.62L1669.36 3017.41L1673.59 3015.17L1673.45 3014.34C1673.36 3013.82 1673.12 3013.05 1672.52 3012L1670.67 3008.79L1668.83 3005.58L1668.59 3005.16C1666.28 3000.94 1665.22 2996.03 1666.23 2990.86L1666.33 2990.34L1667.04 2987.13L1667.75 2983.92C1668.44 2980.78 1669.51 2977.75 1670.9 2974.83L1672.44 2971.62L1673.73 2968.91L1673.25 2966.52L1672.6 2963.31C1672.06 2960.6 1671.71 2957.87 1671.56 2955.12L1671.39 2951.91L1671.21 2948.7C1671.2 2948.41 1671.11 2947.89 1670.71 2947.08L1669.12 2943.87L1667.54 2940.65C1666.97 2939.51 1666.12 2938.17 1664.86 2936.66L1659.52 2930.23C1656.76 2926.92 1654.49 2922.9 1653.6 2918.2L1653 2914.99L1652.39 2911.78C1651.39 2906.47 1652.53 2901.48 1654.92 2897.23L1655.15 2896.82L1657.03 2893.61L1657.24 2893.26L1657.09 2892.99L1655.31 2889.78L1655.01 2889.21C1652.07 2883.49 1652.25 2877.16 1655.3 2871.63L1655.61 2871.08L1657.51 2867.87L1658.44 2866.3L1658.09 2865.22L1657.02 2862.01L1656.9 2861.64C1654.58 2854.2 1657.58 2847.78 1661.39 2843.57L1661.77 2843.17L1662.91 2841.97L1661.85 2840.84L1661.49 2840.44C1659.65 2838.39 1657.89 2835.69 1657.01 2832.32C1656.08 2828.76 1656.33 2825.18 1657.53 2821.92L1657.78 2821.27L1660.43 2814.85C1661.37 2812.58 1662.35 2810.32 1663.37 2808.05L1666.27 2801.63C1667.69 2798.47 1669.55 2795.5 1671.73 2792.71L1674.23 2789.49L1675.32 2788.08L1675.22 2787.75L1674.27 2784.54C1673.57 2782.2 1672.94 2779.85 1672.37 2777.5L1671.6 2774.29L1670.82 2771.07C1669.55 2765.81 1670.43 2760.71 1672.71 2756.29L1672.94 2755.86L1674.64 2752.72L1674.48 2752.48L1672.36 2749.27C1670.8 2746.88 1669.34 2744.49 1667.99 2742.07L1666.2 2738.86L1664.41 2735.65C1662.93 2732.98 1661.66 2730.25 1660.64 2727.46L1659.46 2724.25L1658.29 2721.04L1658.15 2720.64C1655.33 2712.42 1659.27 2705.52 1663.46 2701.47L1666.8 2698.26L1667.52 2697.57L1666.75 2695.61C1666.65 2695.36 1666.25 2694.55 1664.99 2693.25L1658.79 2686.83L1658.4 2686.42C1654.51 2682.18 1651.43 2675.62 1653.95 2668.06L1654.08 2667.68L1655.22 2664.47L1656.36 2661.26C1657.17 2659 1658.01 2656.73 1658.89 2654.47L1661.41 2648.05C1662.23 2645.95 1663.04 2643.85 1663.83 2641.75L1664.95 2638.79L1664.22 2637.89L1661.59 2634.68L1661.16 2634.13C1659.04 2631.33 1657.26 2627.38 1657.67 2622.58C1658.07 2617.97 1660.34 2614.5 1662.51 2612.18L1662.94 2611.74L1666.12 2608.52L1666.24 2608.41L1665.38 2606.71L1665.14 2606.2C1662.75 2601.12 1662.55 2595.49 1664.76 2590.2L1664.99 2589.67L1665.41 2588.74L1664.86 2588.3L1660.88 2585.09C1658.31 2583.02 1653.97 2578.49 1654.4 2571.5C1654.78 2565.4 1658.6 2561.52 1661.11 2559.55C1658.64 2557.71 1654.74 2554.06 1653.97 2548.17C1653.12 2541.68 1656.53 2537.03 1659.16 2534.54L1659.68 2534.07L1663.33 2530.86L1666.98 2527.65C1667.43 2527.25 1667.7 2526.96 1667.85 2526.79L1668 2526.2L1665.76 2524.69L1660.99 2521.48C1658.63 2519.88 1652.98 2515.45 1653.21 2507.66C1653.43 2500.1 1659.05 2495.95 1661.36 2494.44L1666.32 2491.23L1669.31 2489.29L1669.03 2487.76C1668.65 2485.68 1668.26 2483.6 1667.84 2481.51L1666.57 2475.09L1666.46 2474.45C1665.59 2469.14 1667.11 2464.44 1669.52 2460.72L1664.18 2458.03C1661.46 2456.66 1658.35 2454.76 1655.9 2452.02C1653.33 2449.14 1650.84 2444.49 1651.77 2438.74L1651.87 2438.17L1652.51 2434.96L1653.14 2431.75C1654.37 2425.58 1658.31 2420.8 1663.91 2418.3L1666.96 2416.93L1670.02 2415.56C1670.5 2415.34 1671.48 2414.77 1672.92 2413.44L1679.34 2407.46C1683.37 2403.71 1689.49 2400.52 1696.87 2402.17L1700.09 2402.88L1703.19 2403.58L1706.39 2402.53L1709.6 2401.47C1714.76 2399.78 1719.7 2400.96 1723.43 2403.4C1726.69 2405.53 1728.91 2408.5 1730.42 2410.98L1730.84 2411.67C1733.12 2409.31 1736.87 2406.58 1742.17 2406.5C1746.86 2406.43 1750.38 2408.46 1752.77 2410.55L1753.86 2408.43C1755.24 2405.75 1757.09 2402.8 1759.64 2400.42ZM1975.02 4751.63L1975.03 4751.61L1975.02 4750.93L1975.02 4750.93V4751.63ZM2318.38 4463.57C2318.45 4463.59 2318.49 4463.6 2318.51 4463.61C2318.52 4463.61 2318.52 4463.61 2318.53 4463.61C2318.53 4463.61 2318.53 4463.61 2318.53 4463.61L2319.82 4463.36H2317.75L2318.38 4463.57ZM157.941 3573.61C157.947 3573.61 157.953 3573.6 157.958 3573.6C158.13 3573.5 158.103 3573.51 157.941 3573.61ZM1675.81 3163.92C1675.78 3163.99 1675.77 3164.03 1675.77 3164.06C1675.77 3164.06 1675.77 3164.07 1675.77 3164.07C1675.77 3164.07 1675.77 3164.07 1675.77 3164.08L1676.02 3165.36V3163.29L1675.81 3163.92Z" fill="#FEDA9E"/>
</g>
<defs>
<filter id="filter0_d_165_167" x="550.332" y="155.792" width="164.557" height="61.7202" filterUnits="userSpaceOnUse" color-interpolation-filters="sRGB">
<feFlood flood-opacity="0" result="BackgroundImageFix"/>
<feColorMatrix in="SourceAlpha" type="matrix" values="0 0 0 0 0 0 0 0 0 0 0 0 0 0 0 0 0 0 127 0" result="hardAlpha"/>
<feOffset/>
<feGaussianBlur stdDeviation="3.60944"/>
<feComposite in2="hardAlpha" operator="out"/>
<feColorMatrix type="matrix" values="0 0 0 0 1 0 0 0 0 0.617391 0 0 0 0 0 0 0 0 1 0"/>
<feBlend mode="normal" in2="BackgroundImageFix" result="effect1_dropShadow_165_167"/>
<feBlend mode="normal" in="SourceGraphic" in2="effect1_dropShadow_165_167" result="shape"/>
</filter>
<filter id="filter1_d_165_167" x="900.699" y="280.679" width="164.557" height="61.7202" filterUnits="userSpaceOnUse" color-interpolation-filters="sRGB">
<feFlood flood-opacity="0" result="BackgroundImageFix"/>
<feColorMatrix in="SourceAlpha" type="matrix" values="0 0 0 0 0 0 0 0 0 0 0 0 0 0 0 0 0 0 127 0" result="hardAlpha"/>
<feOffset/>
<feGaussianBlur stdDeviation="3.60944"/>
<feComposite in2="hardAlpha" operator="out"/>
<feColorMatrix type="matrix" values="0 0 0 0 1 0 0 0 0 0.617391 0 0 0 0 0 0 0 0 1 0"/>
<feBlend mode="normal" in2="BackgroundImageFix" result="effect1_dropShadow_165_167"/>
<feBlend mode="normal" in="SourceGraphic" in2="effect1_dropShadow_165_167" result="shape"/>
</filter>
<filter id="filter2_d_165_167" x="512.323" y="373.081" width="164.557" height="61.7202" filterUnits="userSpaceOnUse" color-interpolation-filters="sRGB">
<feFlood flood-opacity="0" result="BackgroundImageFix"/>
<feColorMatrix in="SourceAlpha" type="matrix" values="0 0 0 0 0 0 0 0 0 0 0 0 0 0 0 0 0 0 127 0" result="hardAlpha"/>
<feOffset/>
<feGaussianBlur stdDeviation="3.60944"/>
<feComposite in2="hardAlpha" operator="out"/>
<feColorMatrix type="matrix" values="0 0 0 0 1 0 0 0 0 0.617391 0 0 0 0 0 0 0 0 1 0"/>
<feBlend mode="normal" in2="BackgroundImageFix" result="effect1_dropShadow_165_167"/>
<feBlend mode="normal" in="SourceGraphic" in2="effect1_dropShadow_165_167" result="shape"/>
</filter>
<linearGradient id="paint0_linear_165_167" x1="620.236" y1="-4.3313" x2="620.236" y2="283.01" gradientUnits="userSpaceOnUse">
<stop stop-color="#D9D9D9" stop-opacity="0"/>
<stop offset="0.729857" stop-color="#737373" stop-opacity="0.8"/>
</linearGradient>
<linearGradient id="paint1_linear_165_167" x1="881.56" y1="124.165" x2="881.56" y2="411.506" gradientUnits="userSpaceOnUse">
<stop stop-color="#D9D9D9" stop-opacity="0"/>
<stop offset="0.729857" stop-color="#737373" stop-opacity="0.8"/>
</linearGradient>
<clipPath id="clip0_165_167">
<rect width="4314" height="2702.75" fill="white"/>
</clipPath>
</defs>
</svg>
