<svg width="591" height="451" viewBox="0 0 591 451" fill="none" xmlns="http://www.w3.org/2000/svg">
<path d="M188.474 10.0876C244.728 -5.55878 293.248 3.54232 310.631 10.1287C334.042 18.9993 373.56 47.9627 402.862 97.1843C431.631 145.509 478.389 149.001 498.028 144.775L498.172 144.745L498.319 144.743C512.14 144.621 533.187 147.788 551.504 157.722C569.873 167.685 585.558 184.505 588.295 211.594C593.688 264.975 575.584 302.623 565.665 314.937C557.747 324.767 537.363 360.098 498.548 365.98C463.229 371.332 445.204 377.471 434.015 383.961C428.435 387.197 424.519 390.54 420.978 393.981C417.483 397.377 414.166 401.068 410.08 404.676C393.426 419.378 362.633 434.131 235.64 446.405C133.775 456.251 79.7936 434.323 49.7158 403.847C19.7283 373.463 13.7994 334.783 7.48926 312.245C2.40013 294.068 -1.00993 268.9 3.65137 246.243C8.32756 223.514 21.174 203.194 48.6006 195.226C101.458 179.871 119.966 142.516 122.689 125.927C121.837 109.904 124.067 85.0307 133.537 62.1443C143.05 39.1545 159.941 18.0238 188.474 10.0876Z" fill="#FBCF88" stroke="#598E84" stroke-width="2.88755"/>
<path d="M34.5084 348.888C17.6885 313.194 -2.78789 237.763 49.8657 221.589C102.519 205.415 121.046 165.927 123.727 148.205C122.021 115.257 132.357 45.3178 187.35 29.1434C242.344 12.969 289.732 22.404 306.552 29.1434C329.223 38.2268 367.835 68.0818 396.502 119.001C425.169 169.921 471.826 173.665 491.571 169.172C518.386 168.922 573.331 182.201 578.596 237.314C583.861 292.427 551.537 319.933 542.03 332.414C535.692 342.647 523.455 354.129 452.08 366.11C362.862 381.087 405.277 432.755 279.493 436.499C153.71 440.243 76.9245 437.248 34.5084 348.888Z" fill="#ACEEFF"/>
</svg>
