<svg width="128" height="190" viewBox="0 0 128 190" fill="none" xmlns="http://www.w3.org/2000/svg">
<path d="M47.6671 170.056V149.443L79.8745 146.867V167.479L86.316 172.633V181.651L78.5862 189.38H50.2437L41.2256 181.651V173.921L47.6671 170.056Z" fill="#70725A"/>
<path d="M3.86489 110.794L16.7479 104.353L43.8021 101.776L61.8383 127.542L85.0276 105.641L110.794 101.776L114.658 110.794H126.253V123.677L114.658 127.542V137.849L105.64 146.867L99.1989 149.443L92.7574 155.885L83.7393 159.75V150.732L78.5862 149.443L76.0096 155.885L70.8564 162.326L61.8383 163.615L51.5319 159.75V149.443L43.8021 155.885H33.4957L27.0542 149.443V143.002H19.3245L12.883 137.849V130.119L6.44149 127.542L0 122.389L3.86489 110.794Z" fill="#31444B"/>
<path d="M5.15395 91.4697L18.0369 85.0283L45.0912 82.4517L63.1273 108.218L86.3167 86.3166L112.083 82.4517L115.948 91.4697H127.542V104.353L115.948 108.218V118.524L106.929 127.542L100.488 130.119L94.0465 136.56L85.0284 140.425V131.407L79.8752 130.119L77.2986 136.56L72.1454 143.002L63.1273 144.29L52.821 140.425V130.119L45.0912 136.56H34.7848L28.3433 130.119V123.677H20.6135L14.172 118.524V110.794L7.73055 108.218L1.28906 103.064L5.15395 91.4697Z" fill="#598E84"/>
<path d="M11.1211 80.4116L22.4266 74.5069L46.1681 72.145L61.9957 95.7638L82.3456 75.6878L104.957 72.145L108.348 80.4116H118.523V92.221L108.348 95.7638V105.211L100.434 113.478L94.7816 115.84L89.1289 121.744L81.215 125.287V117.021L76.6928 115.84L74.4318 121.744L69.9096 127.649L61.9957 128.83L52.9514 125.287V115.84L46.1681 121.744H37.1237L31.471 115.84V109.935H24.6877L19.035 105.211V98.1257L13.3822 95.7638L7.72949 91.0401L11.1211 80.4116Z" fill="#498877"/>
<path d="M18.5361 66.7768L28.7899 61.4089L50.3229 59.2617L64.6782 80.7333L83.135 62.4825L103.643 59.2617L106.719 66.7768H115.947V77.5126L106.719 80.7333V89.322L99.5411 96.8371L94.4142 98.9842L89.2873 104.352L82.1096 107.573V100.058L78.0081 98.9842L75.9574 104.352L71.8558 109.72L64.6782 110.794L56.4751 107.573V98.9842L50.3229 104.352H42.1198L36.9929 98.9842V93.6163H30.8407L25.7138 89.322V82.8805L20.5869 80.7333L15.46 76.439L18.5361 66.7768Z" fill="#4FA07F"/>
<path d="M23.3739 53.1426L32.576 48.3115L51.9005 46.379L64.7835 65.7035L81.3473 49.2777L99.7516 46.379L102.512 53.1426H110.794V62.8048L102.512 65.7035V73.4333L96.0707 80.1968L91.4696 82.1293L86.8686 86.9604L80.4271 89.8591V83.0955L76.7462 82.1293L74.9058 86.9604L71.225 91.7915L64.7835 92.7577L57.4218 89.8591V82.1293L51.9005 86.9604H44.5388L39.9377 82.1293V77.2982H34.4165L29.8154 73.4333V67.6359L25.2143 65.7035L20.6133 61.8386L23.3739 53.1426Z" fill="#80DB9E"/>
<path d="M25.7135 42.0847L34.1268 37.7904L51.7949 36.0726L63.5736 53.2499L78.7177 38.6492L95.5445 36.0726L98.0685 42.0847H105.641V50.6733L98.0685 53.2499V60.1209L92.1791 66.1329L87.9724 67.8506L83.7657 72.145L77.8764 74.7216V68.7095L74.511 67.8506L72.8284 72.145L69.463 76.4393L63.5736 77.2982L56.8429 74.7216V67.8506L51.7949 72.145H45.0642L40.8575 67.8506V63.5563H35.8095L31.6028 60.1209V54.9677L27.3961 53.2499L23.1895 49.8145L25.7135 42.0847Z" fill="#9FFBBD"/>
<path d="M32.8265 31.1768L31.5635 42.5138L36.6156 45.3481L40.4047 49.5995H47.983L54.2981 55.268H60.6133L66.9285 56.6851L69.4546 51.0166L74.5067 55.268L80.8219 51.0166H88.4001L95.9784 42.5138L94.7153 31.1768H89.6632L84.611 21.2569L78.2958 19.8398L74.5067 9.91989H71.9807L68.1915 0H59.3503L55.5612 9.91989H53.0351L49.246 19.8398L42.9308 21.2569L37.8787 31.1768H32.8265Z" fill="#8BDCA1"/>
</svg>
