<svg width="330" height="301" viewBox="0 0 330 301" fill="none" xmlns="http://www.w3.org/2000/svg">
<path d="M79.8759 213.369V192.756L47.6685 190.18V210.792L41.227 215.946V224.964L48.9568 232.694H77.2993L86.3174 224.964V217.234L79.8759 213.369Z" fill="#70725A"/>
<path d="M123.676 154.107L110.793 147.666L83.7389 145.089L65.7027 170.855L42.5134 148.954L16.7474 145.089L12.8825 154.107H1.28786V166.99L12.8825 170.855V181.162L21.9006 190.18L28.3421 192.756L34.7836 199.198L43.8017 203.063V194.045L48.9549 192.756L51.5315 199.198L56.6847 205.639L65.7027 206.928L76.0091 203.063V192.756L83.7389 199.198H94.0453L100.487 192.756V186.315H108.217L114.658 181.162V173.432L121.1 170.855L127.541 165.702L123.676 154.107Z" fill="#31444B"/>
<path d="M122.388 134.783L109.505 128.341L82.4508 125.765L64.4146 151.53L41.2253 129.629L15.4593 125.765L11.5945 134.783H-0.000228882V147.666L11.5945 151.53V161.837L20.6125 170.855L27.054 173.432L33.4955 179.873L42.5136 183.738V174.72L47.6668 173.432L50.2434 179.873L55.3966 186.314L64.4146 187.603L74.721 183.738V173.432L82.4508 179.873H92.7572L99.1987 173.432V166.99H106.928L113.37 161.837V154.107L119.811 151.53L126.253 146.377L122.388 134.783Z" fill="#598E84"/>
<path d="M116.421 123.725L105.115 117.82L81.3739 115.458L65.5463 139.077L45.1964 119.001L22.5855 115.458L19.1938 123.725H9.01891V135.534L19.1938 139.077V148.524L27.1077 156.791L32.7604 159.153L38.4131 165.058L46.327 168.6V160.334L50.8491 159.153L53.1102 165.058L57.6324 170.962L65.5463 172.143L74.5906 168.6V159.153L81.3739 165.058H90.4183L96.071 159.153V153.248H102.854L108.507 148.524V141.439L114.16 139.077L119.812 134.353L116.421 123.725Z" fill="#498877"/>
<path d="M109.006 110.09L98.7521 104.722L77.2191 102.575L62.8638 124.046L44.407 105.796L23.8994 102.575L20.8232 110.09H11.5948V120.826L20.8232 124.046V132.635L28.0009 140.15L33.1278 142.297L38.2547 147.665L45.4324 150.886V143.371L49.5339 142.297L51.5846 147.665L55.6861 153.033L62.8638 154.107L71.0668 150.886V142.297L77.2191 147.665H85.4222L90.5491 142.297V136.929H96.7013L101.828 132.635V126.194L106.955 124.046L112.082 119.752L109.006 110.09Z" fill="#4FA07F"/>
<path d="M104.168 96.4555L94.9659 91.6243L75.6415 89.6919L62.7585 109.016L46.1947 92.5906L27.7904 89.6919L25.0298 96.4555H16.7479V106.118L25.0298 109.016V116.746L31.4713 123.51L36.0723 125.442L40.6734 130.273L47.1149 133.172V126.408L50.7957 125.442L52.6362 130.273L56.317 135.104L62.7585 136.071L70.1202 133.172V125.442L75.6415 130.273H83.0032L87.6042 125.442V120.611H93.1255L97.7266 116.746V110.949L102.328 109.016L106.929 105.151L104.168 96.4555Z" fill="#80DB9E"/>
<path d="M101.829 85.3978L93.4152 81.1035L75.7471 79.3857L63.9683 96.563L48.8243 81.9623L31.9975 79.3857L29.4735 85.3978H21.9015V93.9864L29.4735 96.563V103.434L35.3629 109.446L39.5696 111.164L43.7763 115.458L49.6656 118.035V112.023L53.031 111.164L54.7136 115.458L58.079 119.752L63.9683 120.611L70.699 118.035V111.164L75.7471 115.458H82.4778L86.6845 111.164V106.869H91.7325L95.9392 103.434V98.2808L100.146 96.563L104.353 93.1276L101.829 85.3978Z" fill="#9FFBBD"/>
<path d="M94.7165 74.4899L95.9795 85.8269L90.9273 88.6612L87.1382 92.9126H79.56L73.2448 98.5811H66.9296L60.6145 99.9982L58.0884 94.3297L53.0362 98.5811L46.7211 94.3297H39.1428L31.5646 85.8269L32.8276 74.4899H37.8798L42.9319 64.57L49.2471 63.1529L53.0362 53.233H55.5623L59.3514 43.3131H68.1927L71.9818 53.233H74.5079L78.297 63.1529L84.6122 64.57L89.6643 74.4899H94.7165Z" fill="#8BDCA1"/>
<path d="M185.271 170.056V149.443L153.064 146.866V167.479L146.622 172.632V181.65L154.352 189.38H182.695L191.713 181.65V173.921L185.271 170.056Z" fill="#70725A"/>
<path d="M229.074 110.794L216.191 104.353L189.136 101.776L171.1 127.542L147.911 105.641L122.145 101.776L118.28 110.794H106.685V123.677L118.28 127.542V137.848L127.298 146.867L133.74 149.443L140.181 155.885L149.199 159.75V150.731L154.352 149.443L156.929 155.885L162.082 162.326L171.1 163.614L181.407 159.75V149.443L189.136 155.885H199.443L205.884 149.443V143.002H213.614L220.056 137.848V130.119L226.497 127.542L232.938 122.389L229.074 110.794Z" fill="#31444B"/>
<path d="M227.785 91.4694L214.903 85.0279L187.848 82.4513L169.812 108.217L146.623 86.3162L120.857 82.4513L116.992 91.4694H105.397V104.352L116.992 108.217V118.524L126.01 127.542L132.451 130.118L138.893 136.56L147.911 140.425V131.407L153.064 130.118L155.641 136.56L160.794 143.001L169.812 144.29L180.118 140.425V130.118L187.848 136.56H198.155L204.596 130.118V123.677H212.326L218.767 118.524V110.794L225.209 108.217L231.65 103.064L227.785 91.4694Z" fill="#598E84"/>
<path d="M221.818 80.4115L210.513 74.5068L186.771 72.1449L170.944 95.7637L150.594 75.6877L127.983 72.1449L124.591 80.4115H114.416V92.2209L124.591 95.7637V105.211L132.505 113.478L138.158 115.84L143.811 121.744L151.724 125.287V117.021L156.247 115.84L158.508 121.744L163.03 127.649L170.944 128.83L179.988 125.287V115.84L186.771 121.744H195.816L201.468 115.84V109.935H208.252L213.904 105.211V98.1256L219.557 95.7637L225.21 91.0399L221.818 80.4115Z" fill="#498877"/>
<path d="M214.403 66.7767L204.15 61.4088L182.617 59.2616L168.261 80.7332L149.804 62.4823L129.297 59.2616L126.221 66.7767H116.992V77.5125L126.221 80.7332V89.3219L133.398 96.8369L138.525 98.9841L143.652 104.352L150.83 107.573V100.058L154.931 98.9841L156.982 104.352L161.084 109.72L168.261 110.794L176.464 107.573V98.9841L182.617 104.352H190.82L195.947 98.9841V93.6162H202.099L207.226 89.3219V82.8804L212.353 80.7332L217.479 76.4389L214.403 66.7767Z" fill="#4FA07F"/>
<path d="M209.566 53.142L200.363 48.3109L181.039 46.3784L168.156 65.7029L151.592 49.2771L133.188 46.3784L130.427 53.142H122.145V62.8042L130.427 65.7029V73.4327L136.869 80.1962L141.47 82.1287L146.071 86.9598L152.512 89.8585V83.0949L156.193 82.1287L158.034 86.9598L161.714 91.7909L168.156 92.7571L175.518 89.8585V82.1287L181.039 86.9598H188.401L193.002 82.1287V77.2976H198.523L203.124 73.4327V67.6353L207.725 65.7029L212.326 61.838L209.566 53.142Z" fill="#80DB9E"/>
<path d="M207.226 42.0843L198.813 37.79L181.145 36.0723L169.366 53.2496L154.222 38.6489L137.395 36.0723L134.871 42.0843H127.299V50.673L134.871 53.2496V60.1205L140.76 66.1325L144.967 67.8503L149.174 72.1446L155.063 74.7212V68.7091L158.428 67.8503L160.111 72.1446L163.476 76.4389L169.366 77.2978L176.097 74.7212V67.8503L181.145 72.1446H187.875L192.082 67.8503V63.5559H197.13L201.337 60.1205V54.9673L205.543 53.2496L209.75 49.8141L207.226 42.0843Z" fill="#9FFBBD"/>
<path d="M200.113 31.1768L201.376 42.5138L196.324 45.3481L192.535 49.5995H184.956L178.641 55.268H172.326L166.011 56.6851L163.485 51.0166L158.433 55.268L152.118 51.0166H144.539L136.961 42.5138L138.224 31.1768H143.276L148.328 21.2569L154.644 19.8398L158.433 9.91989H160.959L164.748 0H173.589L177.378 9.91989H179.904L183.693 19.8398L190.009 21.2569L195.061 31.1768H200.113Z" fill="#8BDCA1"/>
<path d="M186.718 274.278V253.665L154.51 251.089V271.702L148.069 276.855V285.873L155.799 293.603H184.141L193.159 285.873V278.143L186.718 274.278Z" fill="#70725A"/>
<path d="M230.519 215.016L217.636 208.575L190.582 205.998L172.546 231.764L149.356 209.863L123.59 205.998L119.725 215.016H108.131V227.899L119.725 231.764V242.07L128.743 251.088L135.185 253.665L141.626 260.107L150.644 263.971V254.953L155.798 253.665L158.374 260.107L163.527 266.548L172.546 267.836L182.852 263.971V253.665L190.582 260.107H200.888L207.33 253.665V247.224H215.059L221.501 242.07V234.341L227.942 231.764L234.384 226.611L230.519 215.016Z" fill="#31444B"/>
<path d="M229.23 195.692L216.347 189.25L189.293 186.674L171.256 212.44L148.067 190.538L122.301 186.674L118.436 195.692H106.842V208.575L118.436 212.44V222.746L127.454 231.764L133.896 234.341L140.337 240.782L149.355 244.647V235.629L154.509 234.341L157.085 240.782L162.238 247.224L171.256 248.512L181.563 244.647V234.341L189.293 240.782H199.599L206.04 234.341V227.899H213.77L220.212 222.746V215.016L226.653 212.44L233.095 207.286L229.23 195.692Z" fill="#598E84"/>
<path d="M223.262 184.634L211.956 178.729L188.215 176.367L172.387 199.986L152.037 179.91L129.426 176.367L126.035 184.634H115.86V196.443L126.035 199.986V209.433L133.948 217.7L139.601 220.062L145.254 225.966L153.168 229.509V221.243L157.69 220.062L159.951 225.966L164.473 231.871L172.387 233.052L181.431 229.509V220.062L188.215 225.966H197.259L202.912 220.062V214.157H209.695L215.348 209.433V202.348L221.001 199.986L226.653 195.262L223.262 184.634Z" fill="#498877"/>
<path d="M215.847 170.999L205.593 165.631L184.06 163.484L169.705 184.955L151.248 166.704L130.74 163.484L127.664 170.999H118.436V181.735L127.664 184.955V193.544L134.842 201.059L139.969 203.206L145.096 208.574L152.273 211.795V204.28L156.375 203.206L158.425 208.574L162.527 213.942L169.705 215.016L177.908 211.795V203.206L184.06 208.574H192.263L197.39 203.206V197.838H203.542L208.669 193.544V187.102L213.796 184.955L218.923 180.661L215.847 170.999Z" fill="#4FA07F"/>
<path d="M211.009 157.365L201.807 152.533L182.482 150.601L169.599 169.925L153.036 153.5L134.631 150.601L131.871 157.365H123.589V167.027L131.871 169.925V177.655L138.312 184.419L142.913 186.351L147.514 191.182L153.956 194.081V187.317L157.637 186.351L159.477 191.182L163.158 196.013L169.599 196.98L176.961 194.081V186.351L182.482 191.182H189.844L194.445 186.351V181.52H199.966L204.567 177.655V171.858L209.168 169.925L213.77 166.061L211.009 157.365Z" fill="#80DB9E"/>
<path d="M208.669 146.307L200.256 142.012L182.588 140.295L170.809 157.472L155.665 142.871L138.838 140.295L136.314 146.307H128.742V154.895L136.314 157.472V164.343L142.204 170.355L146.41 172.073L150.617 176.367L156.506 178.943V172.931L159.872 172.073L161.554 176.367L164.92 180.661L170.809 181.52L177.54 178.943V172.073L182.588 176.367H189.319L193.525 172.073V167.778H198.573L202.78 164.343V159.19L206.987 157.472L211.193 154.036L208.669 146.307Z" fill="#9FFBBD"/>
<path d="M201.558 135.399L202.821 146.736L197.769 149.57L193.98 153.821H186.402L180.087 159.49H173.771L167.456 160.907L164.93 155.239L159.878 159.49L153.563 155.239H145.985L138.406 146.736L139.669 135.399H144.722L149.774 125.479L156.089 124.062L159.878 114.142H162.404L166.193 104.222H175.034L178.824 114.142H181.35L185.139 124.062L191.454 125.479L196.506 135.399H201.558Z" fill="#8BDCA1"/>
<path d="M249.798 177.275V156.662L282.005 154.085V174.698L288.447 179.851V188.869L280.717 196.599H252.375L243.356 188.869V181.139L249.798 177.275Z" fill="#70725A"/>
<path d="M205.996 118.013L218.879 111.572L245.933 108.995L263.969 134.761L287.158 112.86L312.924 108.995L316.789 118.013H328.384V130.896L316.789 134.761V145.067L307.771 154.086L301.33 156.662L294.888 163.104L285.87 166.968V157.95L280.717 156.662L278.14 163.104L272.987 169.545L263.969 170.833L253.663 166.968V156.662L245.933 163.104H235.627L229.185 156.662V150.221H221.455L215.014 145.067V137.338L208.572 134.761L202.131 129.608L205.996 118.013Z" fill="#31444B"/>
<path d="M207.283 98.6884L220.166 92.2469L247.22 89.6703L265.256 115.436L288.446 93.5352L314.212 89.6703L318.076 98.6884H329.671V111.571L318.076 115.436V125.743L309.058 134.761L302.617 137.337L296.175 143.779L287.157 147.644V138.626L282.004 137.337L279.428 143.779L274.274 150.22L265.256 151.509L254.95 147.644V137.337L247.22 143.779H236.914L230.472 137.337V130.896H222.742L216.301 125.743V118.013L209.859 115.436L203.418 110.283L207.283 98.6884Z" fill="#598E84"/>
<path d="M213.251 87.6306L224.556 81.7259L248.298 79.364L264.126 102.983L284.475 82.9068L307.086 79.364L310.478 87.6306H320.653V99.44L310.478 102.983V112.43L302.564 120.697L296.911 123.059L291.259 128.963L283.345 132.506V124.24L278.823 123.059L276.562 128.963L272.039 134.868L264.126 136.049L255.081 132.506V123.059L248.298 128.963H239.254L233.601 123.059V117.154H226.818L221.165 112.43V105.345L215.512 102.983L209.859 98.259L213.251 87.6306Z" fill="#498877"/>
<path d="M220.666 73.9954L230.92 68.6275L252.453 66.4803L266.808 87.952L285.265 69.7011L305.772 66.4803L308.849 73.9954H318.077V84.7312L308.849 87.952V96.5406L301.671 104.056L296.544 106.203L291.417 111.571L284.24 114.792V107.276L280.138 106.203L278.087 111.571L273.986 116.939L266.808 118.012L258.605 114.792V106.203L252.453 111.571H244.25L239.123 106.203V100.835H232.971L227.844 96.5406V90.0991L222.717 87.952L217.59 83.6576L220.666 73.9954Z" fill="#4FA07F"/>
<path d="M225.504 60.361L234.706 55.5299L254.03 53.5974L266.913 72.9219L283.477 56.4961L301.881 53.5974L304.642 60.361H312.924V70.0232L304.642 72.9219V80.6517L298.201 87.4152L293.6 89.3477L288.998 94.1788L282.557 97.0775V90.3139L278.876 89.3477L277.036 94.1788L273.355 99.0099L266.913 99.9761L259.552 97.0775V89.3477L254.03 94.1788H246.669L242.068 89.3477V84.5166H236.546L231.945 80.6517V74.8543L227.344 72.9219L222.743 69.057L225.504 60.361Z" fill="#80DB9E"/>
<path d="M227.843 49.3033L236.257 45.009L253.925 43.2913L265.704 60.4686L280.848 45.8679L297.674 43.2913L300.198 49.3033H307.77V57.892L300.198 60.4686V67.3395L294.309 73.3515L290.102 75.0693L285.896 79.3636L280.006 81.9402V75.9281L276.641 75.0693L274.958 79.3636L271.593 83.6579L265.704 84.5168L258.973 81.9402V75.0693L253.925 79.3636H247.194L242.987 75.0693V70.7749H237.939L233.733 67.3395V62.1863L229.526 60.4686L225.319 57.0331L227.843 49.3033Z" fill="#9FFBBD"/>
<path d="M234.956 38.3954L233.693 49.7324L238.746 52.5667L242.535 56.8181H250.113L256.428 62.4866H262.743L269.058 63.9037L271.584 58.2352L276.637 62.4866L282.952 58.2352H290.53L298.108 49.7324L296.845 38.3954H291.793L286.741 28.4755L280.426 27.0584L276.637 17.1385H274.111L270.321 7.21863H261.48L257.691 17.1385H255.165L251.376 27.0584L245.061 28.4755L240.009 38.3954H234.956Z" fill="#8BDCA1"/>
<path d="M248.353 281.497V260.884L280.56 258.308V278.921L287.002 284.074V293.092L279.272 300.822H250.929L241.911 293.092V285.362L248.353 281.497Z" fill="#70725A"/>
<path d="M204.55 222.235L217.433 215.794L244.488 213.217L262.524 238.983L285.713 217.082L311.479 213.217L315.344 222.235H326.939V235.118L315.344 238.983V249.289L306.326 258.307L299.884 260.884L293.443 267.326L284.425 271.19V262.172L279.272 260.884L276.695 267.326L271.542 273.767L262.524 275.055L252.217 271.19V260.884L244.488 267.326H234.181L227.74 260.884V254.443H220.01L213.569 249.289V241.56L207.127 238.983L200.686 233.83L204.55 222.235Z" fill="#31444B"/>
<path d="M205.84 202.911L218.723 196.469L245.778 193.893L263.814 219.659L287.003 197.757L312.769 193.893L316.634 202.911H328.229V215.794L316.634 219.659V229.965L307.616 238.983L301.174 241.56L294.733 248.001L285.715 251.866V242.848L280.562 241.56L277.985 248.001L272.832 254.443L263.814 255.731L253.507 251.866V241.56L245.778 248.001H235.471L229.03 241.56V235.118H221.3L214.859 229.965V222.235L208.417 219.659L201.976 214.505L205.84 202.911Z" fill="#598E84"/>
<path d="M211.808 191.853L223.113 185.948L246.855 183.586L262.682 207.205L283.032 187.129L305.643 183.586L309.035 191.853H319.21V203.662L309.035 207.205V216.652L301.121 224.919L295.468 227.281L289.815 233.185L281.902 236.728V228.462L277.379 227.281L275.118 233.185L270.596 239.09L262.682 240.271L253.638 236.728V227.281L246.855 233.185H237.81L232.157 227.281V221.376H225.374L219.721 216.652V209.567L214.069 207.205L208.416 202.481L211.808 191.853Z" fill="#498877"/>
<path d="M219.223 178.217L229.476 172.849L251.009 170.702L265.365 192.174L283.822 173.923L304.329 170.702L307.405 178.217H316.634V188.953L307.405 192.174V200.763L300.228 208.278L295.101 210.425L289.974 215.793L282.796 219.013V211.498L278.695 210.425L276.644 215.793L272.542 221.161L265.365 222.234L257.162 219.013V210.425L251.009 215.793H242.806L237.679 210.425V205.057H231.527L226.4 200.763V194.321L221.273 192.174L216.146 187.88L219.223 178.217Z" fill="#4FA07F"/>
<path d="M224.06 164.583L233.263 159.752L252.587 157.82L265.47 177.144L282.034 160.718L300.438 157.82L303.199 164.583H311.481V174.245L303.199 177.144V184.874L296.757 191.638L292.156 193.57L287.555 198.401L281.114 201.3V194.536L277.433 193.57L275.592 198.401L271.911 203.232L265.47 204.198L258.108 201.3V193.57L252.587 198.401H245.225L240.624 193.57V188.739H235.103L230.502 184.874V179.077L225.901 177.144L221.3 173.279L224.06 164.583Z" fill="#80DB9E"/>
<path d="M226.4 153.525L234.813 149.231L252.481 147.513L264.26 164.691L279.404 150.09L296.231 147.513L298.755 153.525H306.327V162.114L298.755 164.691V171.562L292.866 177.574L288.659 179.291L284.452 183.586L278.563 186.162V180.15L275.198 179.291L273.515 183.586L270.15 187.88L264.26 188.739L257.529 186.162V179.291L252.481 183.586H245.751L241.544 179.291V174.997H236.496L232.289 171.562V166.408L228.083 164.691L223.876 161.255L226.4 153.525Z" fill="#9FFBBD"/>
<path d="M233.511 142.618L232.248 153.955L237.3 156.789L241.089 161.04H248.668L254.983 166.709H261.298L267.613 168.126L270.139 162.458L275.191 166.709L281.506 162.458H289.085L296.663 153.955L295.4 142.618H290.348L285.296 132.698L278.98 131.281L275.191 121.361H272.665L268.876 111.441H260.035L256.246 121.361H253.72L249.931 131.281L243.615 132.698L238.563 142.618H233.511Z" fill="#8BDCA1"/>
</svg>
