<svg width="329" height="398" viewBox="0 0 329 398" fill="none" xmlns="http://www.w3.org/2000/svg">
<path d="M248.351 235.026V214.413L280.558 211.837V232.449L287 237.603V246.621L279.27 254.35H250.927L241.909 246.621V238.891L248.351 235.026Z" fill="#70725A"/>
<path d="M204.548 175.764L217.431 169.323L244.486 166.746L262.522 192.512L285.711 170.611L311.477 166.746L315.342 175.764H326.937V188.647L315.342 192.512V202.819L306.324 211.837L299.883 214.413L293.441 220.855L284.423 224.72V215.702L279.27 214.413L276.693 220.855L271.54 227.296L262.522 228.585L252.215 224.72V214.413L244.486 220.855H234.179L227.738 214.413V207.972H220.008L213.567 202.819V195.089L207.125 192.512L200.684 187.359L204.548 175.764Z" fill="#31444B"/>
<path d="M205.836 156.44L218.719 149.998L245.773 147.422L263.809 173.188L286.998 151.287L312.764 147.422L316.629 156.44H328.224V169.323L316.629 173.188V183.494L307.611 192.512L301.17 195.089L294.728 201.53L285.71 205.395V196.377L280.557 195.089L277.98 201.53L272.827 207.972L263.809 209.26L253.503 205.395V195.089L245.773 201.53H235.466L229.025 195.089V188.647H221.295L214.854 183.494V175.764L208.412 173.188L201.971 168.035L205.836 156.44Z" fill="#598E84"/>
<path d="M211.804 145.382L223.109 139.477L246.851 137.115L262.678 160.734L283.028 140.658L305.639 137.115L309.031 145.382H319.206V157.191L309.031 160.734V170.181L301.117 178.448L295.464 180.81L289.811 186.715L281.898 190.257V181.991L277.375 180.81L275.114 186.715L270.592 192.619L262.678 193.8L253.634 190.257V180.81L246.851 186.715H237.806L232.154 180.81V174.905H225.37L219.718 170.181V163.096L214.065 160.734L208.412 156.01L211.804 145.382Z" fill="#498877"/>
<path d="M219.219 131.747L229.473 126.379L251.005 124.232L265.361 145.703L283.818 127.453L304.325 124.232L307.401 131.747H316.63V142.483L307.401 145.703V154.292L300.224 161.807L295.097 163.954L289.97 169.322L282.792 172.543V165.028L278.691 163.954L276.64 169.322L272.538 174.69L265.361 175.764L257.158 172.543V163.954L251.005 169.322H242.802L237.676 163.954V158.586H231.523L226.396 154.292V147.851L221.269 145.703L216.143 141.409L219.219 131.747Z" fill="#4FA07F"/>
<path d="M224.058 118.112L233.26 113.281L252.584 111.349L265.467 130.673L282.031 114.248L300.435 111.349L303.196 118.112H311.478V127.775L303.196 130.673V138.403L296.754 145.167L292.153 147.099L287.552 151.93L281.111 154.829V148.065L277.43 147.099L275.589 151.93L271.909 156.761L265.467 157.728L258.105 154.829V147.099L252.584 151.93H245.222L240.621 147.099V142.268H235.1L230.499 138.403V132.606L225.898 130.673L221.297 126.808L224.058 118.112Z" fill="#80DB9E"/>
<path d="M226.396 107.055L234.809 102.76L252.478 101.042L264.256 118.22L279.4 103.619L296.227 101.042L298.751 107.055H306.323V115.643L298.751 118.22V125.091L292.862 131.103L288.655 132.82L284.448 137.115L278.559 139.691V133.679L275.194 132.82L273.511 137.115L270.146 141.409L264.256 142.268L257.526 139.691V132.82L252.478 137.115H245.747L241.54 132.82V128.526H236.492L232.285 125.091V119.938L228.079 118.22L223.872 114.784L226.396 107.055Z" fill="#9FFBBD"/>
<path d="M233.509 96.1467L232.246 107.484L237.298 110.318L241.087 114.569H248.666L254.981 120.238H261.296L267.611 121.655L270.137 115.986L275.189 120.238L281.505 115.986H289.083L296.661 107.484L295.398 96.1467H290.346L285.294 86.2268L278.978 84.8096L275.189 74.8897H272.663L268.874 64.9698H260.033L256.244 74.8897H253.718L249.929 84.8096L243.613 86.2268L238.561 96.1467H233.509Z" fill="#8BDCA1"/>
<path d="M155.948 170.056V149.443L188.156 146.867V167.48L194.597 172.633V181.651L186.867 189.381H158.525L149.507 181.651V173.921L155.948 170.056Z" fill="#70725A"/>
<path d="M112.146 110.794L125.029 104.353L152.083 101.776L170.12 127.542L193.309 105.641L219.075 101.776L222.94 110.794H234.534V123.677L222.94 127.542V137.848L213.922 146.867L207.48 149.443L201.039 155.885L192.021 159.75V150.731L186.867 149.443L184.291 155.885L179.138 162.326L170.12 163.614L159.813 159.75V149.443L152.083 155.885H141.777L135.335 149.443V143.002H127.606L121.164 137.848V130.119L114.723 127.542L108.281 122.389L112.146 110.794Z" fill="#31444B"/>
<path d="M113.435 91.4697L126.318 85.0283L153.372 82.4517L171.409 108.218L194.598 86.3166L220.364 82.4517L224.229 91.4697H235.823V104.353L224.229 108.218V118.524L215.211 127.542L208.769 130.119L202.328 136.56L193.31 140.425V131.407L188.156 130.119L185.58 136.56L180.427 143.002L171.409 144.29L161.102 140.425V130.119L153.372 136.56H143.066L136.625 130.119V123.677H128.895L122.453 118.524V110.794L116.012 108.218L109.57 103.064L113.435 91.4697Z" fill="#598E84"/>
<path d="M119.402 80.4115L130.708 74.5068L154.449 72.1449L170.277 95.7637L190.627 75.6877L213.238 72.1449L216.629 80.4115H226.804V92.2209L216.629 95.7637V105.211L208.716 113.478L203.063 115.84L197.41 121.744L189.496 125.287V117.021L184.974 115.84L182.713 121.744L178.191 127.649L170.277 128.83L161.233 125.287V115.84L154.449 121.744H145.405L139.752 115.84V109.935H132.969L127.316 105.211V98.1256L121.663 95.7637L116.011 91.0399L119.402 80.4115Z" fill="#498877"/>
<path d="M126.817 66.777L137.071 61.4091L158.604 59.262L172.959 80.7336L191.416 62.4827L211.924 59.262L215 66.777H224.228V77.5128L215 80.7336V89.3222L207.822 96.8373L202.695 98.9845L197.569 104.352L190.391 107.573V100.058L186.289 98.9845L184.239 104.352L180.137 109.72L172.959 110.794L164.756 107.573V98.9845L158.604 104.352H150.401L145.274 98.9845V93.6166H139.122L133.995 89.3222V82.8808L128.868 80.7336L123.741 76.4393L126.817 66.777Z" fill="#4FA07F"/>
<path d="M131.656 53.1422L140.858 48.3111L160.183 46.3787L173.066 65.7031L189.63 49.2773L208.034 46.3787L210.794 53.1422H219.076V62.8045L210.794 65.7031V73.4329L204.353 80.1965L199.752 82.1289L195.151 86.96L188.709 89.8587V83.0951L185.028 82.1289L183.188 86.96L179.507 91.7912L173.066 92.7574L165.704 89.8587V82.1289L160.183 86.96H152.821L148.22 82.1289V77.2978H142.699L138.098 73.4329V67.6356L133.497 65.7031L128.896 61.8382L131.656 53.1422Z" fill="#80DB9E"/>
<path d="M133.995 42.0843L142.408 37.79L160.076 36.0723L171.855 53.2496L186.999 38.6489L203.826 36.0723L206.35 42.0843H213.922V50.673L206.35 53.2496V60.1205L200.46 66.1325L196.254 67.8503L192.047 72.1446L186.158 74.7212V68.7091L182.792 67.8503L181.11 72.1446L177.744 76.4389L171.855 77.2978L165.124 74.7212V67.8503L160.076 72.1446H153.345L149.139 67.8503V63.5559H144.091L139.884 60.1205V54.9673L135.677 53.2496L131.471 49.8141L133.995 42.0843Z" fill="#9FFBBD"/>
<path d="M141.108 31.1768L139.845 42.5138L144.897 45.3481L148.686 49.5995H156.264L162.579 55.268H168.895L175.21 56.6851L177.736 51.0166L182.788 55.268L189.103 51.0166H196.681L204.26 42.5138L202.997 31.1768H197.944L192.892 21.2569L186.577 19.8398L182.788 9.91989H180.262L176.473 0H167.632L163.842 9.91989H161.316L157.527 19.8398L151.212 21.2569L146.16 31.1768H141.108Z" fill="#8BDCA1"/>
<path d="M49.1085 230.965V210.352L81.3159 207.776V228.388L87.7574 233.542V242.56L80.0276 250.289H51.6851L42.667 242.56V234.83L49.1085 230.965Z" fill="#70725A"/>
<path d="M5.3063 171.703L18.1893 165.262L45.2435 162.685L63.2797 188.451L86.469 166.55L112.235 162.685L116.1 171.703H127.695V184.586L116.1 188.451V198.758L107.082 207.776L100.64 210.352L94.1988 216.794L85.1807 220.659V211.64L80.0276 210.352L77.451 216.794L72.2978 223.235L63.2797 224.523L52.9733 220.659V210.352L45.2435 216.794H34.9371L28.4957 210.352V203.911H20.7659L14.3244 198.758V191.028L7.88289 188.451L1.44141 183.298L5.3063 171.703Z" fill="#31444B"/>
<path d="M6.59536 152.378L19.4783 145.937L46.5326 143.36L64.5687 169.126L87.7581 147.225L113.524 143.36L117.389 152.378H128.984V165.261L117.389 169.126V179.433L108.371 188.451L101.929 191.027L95.4879 197.469L86.4698 201.334V192.316L81.3166 191.027L78.74 197.469L73.5868 203.91L64.5687 205.199L54.2624 201.334V191.027L46.5326 197.469H36.2262L29.7847 191.027V184.586H22.0549L15.6134 179.433V171.703L9.17196 169.126L2.73047 163.973L6.59536 152.378Z" fill="#598E84"/>
<path d="M12.5625 141.32L23.868 135.416L47.6095 133.054L63.4371 156.673L83.787 136.597L106.398 133.054L109.79 141.32H119.964V153.13L109.79 156.673V166.12L101.876 174.387L96.223 176.748L90.5703 182.653L82.6564 186.196V177.929L78.1343 176.748L75.8732 182.653L71.351 188.558L63.4371 189.739L54.3928 186.196V176.748L47.6095 182.653H38.5651L32.9124 176.748V170.844H26.1291L20.4764 166.12V159.034L14.8236 156.673L9.1709 151.949L12.5625 141.32Z" fill="#498877"/>
<path d="M19.9785 127.686L30.2323 122.318L51.7653 120.171L66.1206 141.642L84.5774 123.391L105.085 120.171L108.161 127.686H117.39V138.422L108.161 141.642V150.231L100.983 157.746L95.8566 159.893L90.7297 165.261L83.552 168.482V160.967L79.4505 159.893L77.3997 165.261L73.2982 170.629L66.1206 171.703L57.9175 168.482V159.893L51.7653 165.261H43.5622L38.4353 159.893V154.525H32.283L27.1561 150.231V143.789L22.0292 141.642L16.9023 137.348L19.9785 127.686Z" fill="#4FA07F"/>
<path d="M24.8153 114.051L34.0175 109.22L53.3419 107.288L66.2249 126.612L82.7887 110.186L101.193 107.288L103.954 114.051H112.236V123.714L103.954 126.612V134.342L97.5121 141.106L92.911 143.038L88.31 147.869L81.8685 150.768V144.004L78.1876 143.038L76.3472 147.869L72.6664 152.7L66.2249 153.666L58.8632 150.768V143.038L53.3419 147.869H45.9802L41.3792 143.038V138.207H35.8579L31.2568 134.342V128.545L26.6558 126.612L22.0547 122.747L24.8153 114.051Z" fill="#80DB9E"/>
<path d="M27.1558 102.993L35.5692 98.6991L53.2373 96.9813L65.016 114.159L80.1601 99.5579L96.9868 96.9813L99.5108 102.993H107.083V111.582L99.5108 114.159V121.03L93.6215 127.042L89.4148 128.759L85.2081 133.054L79.3188 135.63V129.618L75.9534 128.759L74.2707 133.054L70.9054 137.348L65.016 138.207L58.2853 135.63V128.759L53.2373 133.054H46.5066L42.2999 128.759V124.465H37.2519L33.0452 121.03V115.876L28.8385 114.159L24.6318 110.723L27.1558 102.993Z" fill="#9FFBBD"/>
<path d="M34.2689 92.0855L33.0059 103.423L38.058 106.257L41.8471 110.508H49.4253L55.7405 116.177H62.0557L68.3709 117.594L70.897 111.925L75.9491 116.177L82.2643 111.925H89.8425L97.4207 103.423L96.1577 92.0855H91.1056L86.0534 82.1656L79.7382 80.7485L75.9491 70.8286H73.423L69.6339 60.9087H60.7927L57.0036 70.8286H54.4775L50.6884 80.7485L44.3732 82.1656L39.321 92.0855H34.2689Z" fill="#8BDCA1"/>
<path d="M153.062 378.5V357.887L185.269 355.31V375.923L191.711 381.076V390.094L183.981 397.824H155.638L146.62 390.094V382.365L153.062 378.5Z" fill="#70725A"/>
<path d="M109.259 319.238L122.142 312.797L149.197 310.22L167.233 335.986L190.422 314.085L216.188 310.22L220.053 319.238H231.648V332.121L220.053 335.986V346.293L211.035 355.311L204.593 357.887L198.152 364.329L189.134 368.194V359.176L183.981 357.887L181.404 364.329L176.251 370.77L167.233 372.059L156.926 368.194V357.887L149.197 364.329H138.89L132.449 357.887V351.446H124.719L118.278 346.293V338.563L111.836 335.986L105.395 330.833L109.259 319.238Z" fill="#31444B"/>
<path d="M110.547 299.914L123.43 293.472L150.484 290.896L168.52 316.662L191.709 294.761L217.475 290.896L221.34 299.914H232.935V312.797L221.34 316.662V326.968L212.322 335.986L205.881 338.563L199.439 345.004L190.421 348.869V339.851L185.268 338.563L182.691 345.004L177.538 351.446L168.52 352.734L158.214 348.869V338.563L150.484 345.004H140.177L133.736 338.563V332.121H126.006L119.565 326.968V319.238L113.123 316.662L106.682 311.509L110.547 299.914Z" fill="#598E84"/>
<path d="M116.515 288.856L127.82 282.951L151.562 280.589L167.389 304.208L187.739 284.132L210.35 280.589L213.742 288.856H223.917V300.665L213.742 304.208V313.655L205.828 321.922L200.175 324.284L194.522 330.189L186.609 333.731V325.465L182.086 324.284L179.825 330.189L175.303 336.093L167.389 337.274L158.345 333.731V324.284L151.562 330.189H142.517L136.865 324.284V318.379H130.081L124.429 313.655V306.57L118.776 304.208L113.123 299.484L116.515 288.856Z" fill="#498877"/>
<path d="M123.93 275.221L134.183 269.853L155.716 267.706L170.072 289.177L188.529 270.926L209.036 267.706L212.112 275.221H221.341V285.956L212.112 289.177V297.766L204.935 305.281L199.808 307.428L194.681 312.796L187.503 316.017V308.502L183.402 307.428L181.351 312.796L177.249 318.164L170.072 319.237L161.869 316.017V307.428L155.716 312.796H147.513L142.386 307.428V302.06H136.234L131.107 297.766V291.324L125.98 289.177L120.854 284.883L123.93 275.221Z" fill="#4FA07F"/>
<path d="M128.768 261.586L137.971 256.755L157.295 254.823L170.178 274.147L186.742 257.722L205.146 254.823L207.907 261.586H216.189V271.249L207.907 274.147V281.877L201.465 288.641L196.864 290.573L192.263 295.404L185.822 298.303V291.539L182.141 290.573L180.3 295.404L176.619 300.235L170.178 301.202L162.816 298.303V290.573L157.295 295.404H149.933L145.332 290.573V285.742H139.811L135.21 281.877V276.08L130.609 274.147L126.008 270.282L128.768 261.586Z" fill="#80DB9E"/>
<path d="M131.107 250.529L139.52 246.234L157.188 244.516L168.967 261.694L184.111 247.093L200.938 244.516L203.462 250.529H211.034V259.117L203.462 261.694V268.565L197.573 274.577L193.366 276.294L189.159 280.589L183.27 283.165V277.153L179.905 276.294L178.222 280.589L174.857 284.883L168.967 285.742L162.236 283.165V276.294L157.188 280.589H150.458L146.251 276.294V272H141.203L136.996 268.565V263.412L132.79 261.694L128.583 258.258L131.107 250.529Z" fill="#9FFBBD"/>
<path d="M138.22 239.621L136.957 250.958L142.009 253.792L145.798 258.043H153.377L159.692 263.712H166.007L172.322 265.129L174.848 259.46L179.9 263.712L186.215 259.46H193.794L201.372 250.958L200.109 239.621H195.057L190.005 229.701L183.689 228.284L179.9 218.364H177.374L173.585 208.444H164.744L160.955 218.364H158.429L154.64 228.284L148.324 229.701L143.272 239.621H138.22Z" fill="#8BDCA1"/>
<path d="M47.6661 335.187V314.574L79.8735 311.997V332.61L86.315 337.763V346.781L78.5852 354.511H50.2427L41.2246 346.781V339.052L47.6661 335.187Z" fill="#70725A"/>
<path d="M3.86489 275.925L16.7479 269.484L43.8021 266.907L61.8383 292.673L85.0276 270.772L110.794 266.907L114.658 275.925H126.253V288.808L114.658 292.673V302.98L105.64 311.998L99.1989 314.574L92.7574 321.016L83.7393 324.881V315.863L78.5862 314.574L76.0096 321.016L70.8564 327.457L61.8383 328.745L51.5319 324.881V314.574L43.8021 321.016H33.4957L27.0542 314.574V308.133H19.3245L12.883 302.98V295.25L6.44149 292.673L0 287.52L3.86489 275.925Z" fill="#31444B"/>
<path d="M5.15298 256.601L18.036 250.159L45.0902 247.583L63.1264 273.349L86.3157 251.448L112.082 247.583L115.947 256.601H127.541V269.484L115.947 273.349V283.655L106.928 292.673L100.487 295.25L94.0455 301.691L85.0274 305.556V296.538L79.8742 295.25L77.2976 301.691L72.1444 308.133L63.1264 309.421L52.82 305.556V295.25L45.0902 301.691H34.7838L28.3423 295.25V288.808H20.6125L14.1711 283.655V275.925L7.72957 273.349L1.28809 268.196L5.15298 256.601Z" fill="#598E84"/>
<path d="M11.1211 245.543L22.4266 239.638L46.1681 237.276L61.9957 260.895L82.3456 240.819L104.957 237.276L108.348 245.543H118.523V257.352L108.348 260.895V270.342L100.434 278.609L94.7816 280.971L89.1289 286.875L81.215 290.418V282.152L76.6928 280.971L74.4318 286.875L69.9096 292.78L61.9957 293.961L52.9514 290.418V280.971L46.1681 286.875H37.1237L31.471 280.971V275.066H24.6877L19.035 270.342V263.257L13.3822 260.895L7.72949 256.171L11.1211 245.543Z" fill="#498877"/>
<path d="M18.5361 231.908L28.7899 226.54L50.3229 224.392L64.6782 245.864L83.135 227.613L103.643 224.392L106.719 231.908H115.947V242.643L106.719 245.864V254.453L99.5411 261.968L94.4142 264.115L89.2873 269.483L82.1096 272.704V265.189L78.0081 264.115L75.9574 269.483L71.8558 274.851L64.6782 275.924L56.4751 272.704V264.115L50.3229 269.483H42.1198L36.9929 264.115V258.747H30.8407L25.7138 254.453V248.011L20.5869 245.864L15.46 241.57L18.5361 231.908Z" fill="#4FA07F"/>
<path d="M23.3739 218.273L32.576 213.442L51.9005 211.51L64.7835 230.834L81.3473 214.408L99.7516 211.51L102.512 218.273H110.794V227.936L102.512 230.834V238.564L96.0707 245.328L91.4696 247.26L86.8686 252.091L80.4271 254.99V248.226L76.7462 247.26L74.9058 252.091L71.225 256.922L64.7835 257.888L57.4218 254.99V247.26L51.9005 252.091H44.5388L39.9377 247.26V242.429H34.4165L29.8154 238.564V232.767L25.2143 230.834L20.6133 226.969L23.3739 218.273Z" fill="#80DB9E"/>
<path d="M25.7135 207.215L34.1268 202.921L51.7949 201.203L63.5736 218.381L78.7177 203.78L95.5445 201.203L98.0685 207.215H105.641V215.804L98.0685 218.381V225.252L92.1791 231.264L87.9724 232.981L83.7657 237.276L77.8764 239.852V233.84L74.511 232.981L72.8284 237.276L69.463 241.57L63.5736 242.429L56.8429 239.852V232.981L51.7949 237.276H45.0642L40.8575 232.981V228.687H35.8095L31.6028 225.252V220.098L27.3961 218.381L23.1895 214.945L25.7135 207.215Z" fill="#9FFBBD"/>
<path d="M32.8255 196.308L31.5625 207.645L36.6146 210.479L40.4038 214.73H47.982L54.2972 220.399H60.6123L66.9275 221.816L69.4536 216.147L74.5058 220.399L80.8209 216.147H88.3992L95.9774 207.645L94.7143 196.308H89.6622L84.61 186.388L78.2949 184.971L74.5058 175.051H71.9797L68.1906 165.131H59.3493L55.5602 175.051H53.0341L49.245 184.971L42.9298 186.388L37.8777 196.308H32.8255Z" fill="#8BDCA1"/>
</svg>
