<svg width="239" height="650" viewBox="0 0 239 650" fill="none" xmlns="http://www.w3.org/2000/svg">
<path d="M158.836 213.37V192.757L191.043 190.18V210.793L197.485 215.946V224.964L189.755 232.694H161.413L152.395 224.964V217.234L158.836 213.37Z" fill="#70725A"/>
<path d="M115.034 154.108L127.917 147.667L154.971 145.09L173.007 170.856L196.197 148.955L221.963 145.09L225.827 154.108H237.422V166.991L225.827 170.856V181.162L216.809 190.18L210.368 192.757L203.926 199.198L194.908 203.063V194.045L189.755 192.757L187.178 199.198L182.025 205.64L173.007 206.928L162.701 203.063V192.757L154.971 199.198H144.665L138.223 192.757V186.315H130.493L124.052 181.162V173.433L117.61 170.856L111.169 165.703L115.034 154.108Z" fill="#31444B"/>
<path d="M116.323 134.783L129.206 128.342L156.26 125.765L174.296 151.531L197.486 129.63L223.252 125.765L227.116 134.783H238.711V147.666L227.116 151.531V161.838L218.098 170.856L211.657 173.432L205.215 179.874L196.197 183.739V174.721L191.044 173.432L188.468 179.874L183.314 186.315L174.296 187.604L163.99 183.739V173.432L156.26 179.874H145.954L139.512 173.432V166.991H131.782L125.341 161.838V154.108L118.899 151.531L112.458 146.378L116.323 134.783Z" fill="#598E84"/>
<path d="M122.29 123.725L133.596 117.821L157.337 115.459L173.165 139.078L193.515 119.002L216.125 115.459L219.517 123.725H229.692V135.535L219.517 139.078V148.525L211.603 156.792L205.951 159.154L200.298 165.058L192.384 168.601V160.335L187.862 159.154L185.601 165.058L181.079 170.963L173.165 172.144L164.12 168.601V159.154L157.337 165.058H148.293L142.64 159.154V153.249H135.857L130.204 148.525V141.44L124.551 139.078L118.898 134.354L122.29 123.725Z" fill="#498877"/>
<path d="M129.705 110.09L139.959 104.722L161.492 102.575L175.847 124.047L194.304 105.796L214.812 102.575L217.888 110.09H227.116V120.826L217.888 124.047V132.636L210.71 140.151L205.583 142.298L200.456 147.666L193.279 150.886V143.371L189.177 142.298L187.126 147.666L183.025 153.034L175.847 154.107L167.644 150.886V142.298L161.492 147.666H153.289L148.162 142.298V136.93H142.01L136.883 132.636V126.194L131.756 124.047L126.629 119.753L129.705 110.09Z" fill="#4FA07F"/>
<path d="M134.544 96.4558L143.746 91.6247L163.07 89.6923L175.953 109.017L192.517 92.5909L210.921 89.6923L213.682 96.4558H221.964V106.118L213.682 109.017V116.747L207.241 123.51L202.64 125.443L198.039 130.274L191.597 133.172V126.409L187.916 125.443L186.076 130.274L182.395 135.105L175.953 136.071L168.592 133.172V125.443L163.07 130.274H155.709L151.108 125.443V120.611H145.586L140.985 116.747V110.949L136.384 109.017L131.783 105.152L134.544 96.4558Z" fill="#80DB9E"/>
<path d="M136.882 85.3983L145.296 81.104L162.964 79.3862L174.743 96.5635L189.887 81.9628L206.713 79.3862L209.237 85.3983H216.809V93.9869L209.237 96.5635V103.434L203.348 109.447L199.141 111.164L194.935 115.459L189.045 118.035V112.023L185.68 111.164L183.997 115.459L180.632 119.753L174.743 120.612L168.012 118.035V111.164L162.964 115.459H156.233L152.026 111.164V106.87H146.978L142.772 103.434V98.2813L138.565 96.5635L134.358 93.1281L136.882 85.3983Z" fill="#9FFBBD"/>
<path d="M143.995 74.4904L142.732 85.8274L147.785 88.6617L151.574 92.9131H159.152L165.467 98.5816H171.782L178.097 99.9987L180.624 94.3302L185.676 98.5816L191.991 94.3302H199.569L207.147 85.8274L205.884 74.4904H200.832L195.78 64.5705L189.465 63.1534L185.676 53.2335H183.15L179.36 43.3136H170.519L166.73 53.2335H164.204L160.415 63.1534L154.1 64.5705L149.048 74.4904H143.995Z" fill="#8BDCA1"/>
<path d="M53.4405 170.056V149.443L85.6479 146.867V167.479L92.0894 172.633V181.651L84.3597 189.38H56.0171L46.999 181.651V173.921L53.4405 170.056Z" fill="#70725A"/>
<path d="M9.63931 110.795L22.5223 104.353L49.5765 101.776L67.6127 127.542L90.802 105.641L116.568 101.776L120.433 110.795H132.028V123.678L120.433 127.542V137.849L111.415 146.867L104.973 149.443L98.5318 155.885L89.5138 159.75V150.732L84.3606 149.443L81.784 155.885L76.6308 162.326L67.6127 163.615L57.3063 159.75V149.443L49.5765 155.885H39.2701L32.8287 149.443V143.002H25.0989L18.6574 137.849V130.119L12.2159 127.542L5.77441 122.389L9.63931 110.795Z" fill="#31444B"/>
<path d="M10.9284 91.4699L23.8113 85.0284L50.8656 82.4518L68.9018 108.218L92.0911 86.3167L117.857 82.4518L121.722 91.4699H133.317V104.353L121.722 108.218V118.524L112.704 127.542L106.262 130.119L99.8209 136.56L90.8028 140.425V131.407L85.6496 130.119L83.073 136.56L77.9198 143.002L68.9018 144.29L58.5954 140.425V130.119L50.8656 136.56H40.5592L34.1177 130.119V123.677H26.3879L19.9465 118.524V110.794L13.505 108.218L7.06348 103.065L10.9284 91.4699Z" fill="#598E84"/>
<path d="M16.8955 80.412L28.201 74.5073L51.9425 72.1454L67.7702 95.7642L88.12 75.6882L110.731 72.1454L114.123 80.412H124.297V92.2214L114.123 95.7642V105.212L106.209 113.478L100.556 115.84L94.9033 121.745L86.9894 125.288V117.021L82.4673 115.84L80.2062 121.745L75.684 127.65L67.7702 128.83L58.7258 125.288V115.84L51.9425 121.745H42.8981L37.2454 115.84V109.935H30.4621L24.8094 105.212V98.1261L19.1566 95.7642L13.5039 91.0404L16.8955 80.412Z" fill="#498877"/>
<path d="M24.3105 66.7768L34.5643 61.4089L56.0973 59.2617L70.4526 80.7333L88.9094 62.4825L109.417 59.2617L112.493 66.7768H121.722V77.5126L112.493 80.7333V89.322L105.316 96.8371L100.189 98.9842L95.0617 104.352L87.8841 107.573V100.058L83.7825 98.9842L81.7318 104.352L77.6303 109.72L70.4526 110.794L62.2496 107.573V98.9842L56.0973 104.352H47.8942L42.7673 98.9842V93.6163H36.6151L31.4882 89.322V82.8805L26.3613 80.7333L21.2344 76.439L24.3105 66.7768Z" fill="#4FA07F"/>
<path d="M29.1483 53.1423L38.3505 48.3112L57.6749 46.3788L70.5579 65.7032L87.1217 49.2775L105.526 46.3788L108.287 53.1423H116.569V62.8046L108.287 65.7032V73.433L101.845 80.1966L97.2441 82.129L92.643 86.9602L86.2015 89.8588V83.0953L82.5207 82.129L80.6802 86.9602L76.9994 91.7913L70.5579 92.7575L63.1962 89.8588V82.129L57.6749 86.9602H50.3132L45.7122 82.129V77.2979H40.1909L35.5898 73.433V67.6357L30.9888 65.7032L26.3877 61.8384L29.1483 53.1423Z" fill="#80DB9E"/>
<path d="M31.4869 42.0848L39.9003 37.7905L57.5684 36.0728L69.3471 53.2501L84.4911 38.6493L101.318 36.0728L103.842 42.0848H111.414V50.6735L103.842 53.2501V60.121L97.9525 66.133L93.7459 67.8508L89.5392 72.1451L83.6498 74.7217V68.7096L80.2845 67.8508L78.6018 72.1451L75.2364 76.4394L69.3471 77.2983L62.6164 74.7217V67.8508L57.5684 72.1451H50.8377L46.631 67.8508V63.5564H41.5829L37.3763 60.121V54.9678L33.1696 53.2501L28.9629 49.8146L31.4869 42.0848Z" fill="#9FFBBD"/>
<path d="M38.599 31.1768L37.3359 42.5138L42.3881 45.3481L46.1772 49.5995H53.7554L60.0706 55.268H66.3858L72.701 56.6851L75.227 51.0166L80.2792 55.268L86.5944 51.0166H94.1726L101.751 42.5138L100.488 31.1768H95.4356L90.3835 21.2569L84.0683 19.8398L80.2792 9.91989H77.7531L73.964 0H65.1227L61.3336 9.91989H58.8076L55.0185 19.8398L48.7033 21.2569L43.6511 31.1768H38.599Z" fill="#8BDCA1"/>
<path d="M51.9962 274.278V253.665L84.2036 251.089V271.702L90.6451 276.855V285.873L82.9153 293.603H54.5728L45.5547 285.873V278.143L51.9962 274.278Z" fill="#70725A"/>
<path d="M8.19399 215.016L21.077 208.575L48.1312 205.998L66.1674 231.764L89.3567 209.863L115.123 205.998L118.988 215.016H130.582V227.899L118.988 231.764V242.071L109.969 251.089L103.528 253.665L97.0865 260.107L88.0684 263.972V254.954L82.9153 253.665L80.3387 260.107L75.1855 266.548L66.1674 267.837L55.861 263.972V253.665L48.1312 260.107H37.8248L31.3834 253.665V247.224H23.6536L17.2121 242.071V234.341L10.7706 231.764L4.3291 226.611L8.19399 215.016Z" fill="#31444B"/>
<path d="M9.48306 195.692L22.366 189.251L49.4203 186.674L67.4564 212.44L90.6458 190.539L116.412 186.674L120.277 195.692H131.871V208.575L120.277 212.44V222.746L111.259 231.764L104.817 234.341L98.3756 240.782L89.3575 244.647V235.629L84.2043 234.341L81.6277 240.782L76.4745 247.224L67.4564 248.512L57.1501 244.647V234.341L49.4203 240.782H39.1139L32.6724 234.341V227.899H24.9426L18.5011 222.746V215.016L12.0597 212.44L5.61816 207.287L9.48306 195.692Z" fill="#598E84"/>
<path d="M15.4502 184.634L26.7557 178.729L50.4972 176.367L66.3248 199.986L86.6747 179.91L109.286 176.367L112.677 184.634H122.852V196.443L112.677 199.986V209.434L104.763 217.7L99.1107 220.062L93.458 225.967L85.5441 229.51V221.243L81.0219 220.062L78.7609 225.967L74.2387 231.871L66.3248 233.052L57.2805 229.51V220.062L50.4972 225.967H41.4528L35.8001 220.062V214.157H29.0168L23.3641 209.434V202.348L17.7113 199.986L12.0586 195.262L15.4502 184.634Z" fill="#498877"/>
<path d="M22.8652 170.999L33.119 165.631L54.652 163.484L69.0073 184.956L87.4641 166.705L107.972 163.484L111.048 170.999H120.276V181.735L111.048 184.956V193.544L103.87 201.059L98.7433 203.207L93.6164 208.574L86.4387 211.795V204.28L82.3372 203.207L80.2865 208.574L76.1849 213.942L69.0073 215.016L60.8042 211.795V203.207L54.652 208.574H46.4489L41.322 203.207V197.839H35.1698L30.0429 193.544V187.103L24.916 184.956L19.7891 180.661L22.8652 170.999Z" fill="#4FA07F"/>
<path d="M27.703 157.365L36.9051 152.534L56.2296 150.601L69.1126 169.926L85.6764 153.5L104.081 150.601L106.841 157.365H115.123V167.027L106.841 169.926V177.655L100.4 184.419L95.7987 186.351L91.1977 191.182L84.7562 194.081V187.318L81.0753 186.351L79.2349 191.182L75.5541 196.014L69.1126 196.98L61.7509 194.081V186.351L56.2296 191.182H48.8679L44.2668 186.351V181.52H38.7456L34.1445 177.655V171.858L29.5434 169.926L24.9424 166.061L27.703 157.365Z" fill="#80DB9E"/>
<path d="M30.0435 146.307L38.4569 142.012L56.125 140.295L67.9037 157.472L83.0478 142.871L99.8745 140.295L102.399 146.307H109.971V154.895L102.399 157.472V164.343L96.5092 170.355L92.3025 172.073L88.0958 176.367L82.2065 178.944V172.932L78.8411 172.073L77.1584 176.367L73.7931 180.661L67.9037 181.52L61.173 178.944V172.073L56.125 176.367H49.3943L45.1876 172.073V167.778H40.1396L35.9329 164.343V159.19L31.7262 157.472L27.5195 154.037L30.0435 146.307Z" fill="#9FFBBD"/>
<path d="M37.1556 135.399L35.8926 146.736L40.9447 149.57L44.7338 153.822H52.3121L58.6272 159.49H64.9424L71.2576 160.907L73.7837 155.239L78.8358 159.49L85.151 155.239H92.7292L100.307 146.736L99.0444 135.399H93.9923L88.9401 125.479L82.6249 124.062L78.8358 114.142H76.3098L72.5206 104.222H63.6794L59.8903 114.142H57.3642L53.5751 124.062L47.2599 125.479L42.2078 135.399H37.1556Z" fill="#8BDCA1"/>
<path d="M155.949 421.814V401.201L188.157 398.624V419.237L194.598 424.39V433.408L186.868 441.138H158.526L149.508 433.408V425.679L155.949 421.814Z" fill="#70725A"/>
<path d="M112.147 362.552L125.03 356.11L152.084 353.534L170.121 379.3L193.31 357.399L219.076 353.534L222.941 362.552H234.535V375.435L222.941 379.3V389.606L213.923 398.624L207.481 401.201L201.04 407.642L192.022 411.507V402.489L186.868 401.201L184.292 407.642L179.139 414.084L170.121 415.372L159.814 411.507V401.201L152.084 407.642H141.778L135.336 401.201V394.759H127.607L121.165 389.606V381.876L114.724 379.3L108.282 374.146L112.147 362.552Z" fill="#31444B"/>
<path d="M113.434 343.227L126.317 336.786L153.371 334.209L171.408 359.975L194.597 338.074L220.363 334.209L224.228 343.227H235.822V356.11L224.228 359.975V370.282L215.21 379.3L208.768 381.876L202.327 388.318L193.309 392.183V383.165L188.155 381.876L185.579 388.318L180.426 394.759L171.408 396.048L161.101 392.183V381.876L153.371 388.318H143.065L136.624 381.876V375.435H128.894L122.452 370.282V362.552L116.011 359.975L109.569 354.822L113.434 343.227Z" fill="#598E84"/>
<path d="M119.402 332.169L130.708 326.264L154.449 323.902L170.277 347.521L190.627 327.445L213.238 323.902L216.629 332.169H226.804V343.978L216.629 347.521V356.969L208.716 365.235L203.063 367.597L197.41 373.502L189.496 377.045V368.778L184.974 367.597L182.713 373.502L178.191 379.407L170.277 380.588L161.233 377.045V367.597L154.449 373.502H145.405L139.752 367.597V361.693H132.969L127.316 356.969V349.883L121.663 347.521L116.011 342.797L119.402 332.169Z" fill="#498877"/>
<path d="M126.817 318.535L137.071 313.167L158.604 311.02L172.959 332.491L191.416 314.24L211.924 311.02L215 318.535H224.228V329.27L215 332.491V341.08L207.822 348.595L202.695 350.742L197.569 356.11L190.391 359.331V351.816L186.289 350.742L184.239 356.11L180.137 361.478L172.959 362.551L164.756 359.331V350.742L158.604 356.11H150.401L145.274 350.742V345.374H139.122L133.995 341.08V334.638L128.868 332.491L123.741 328.197L126.817 318.535Z" fill="#4FA07F"/>
<path d="M131.657 304.9L140.859 300.069L160.184 298.136L173.067 317.461L189.631 301.035L208.035 298.136L210.795 304.9H219.077V314.562L210.795 317.461V325.191L204.354 331.954L199.753 333.887L195.152 338.718L188.71 341.617V334.853L185.029 333.887L183.189 338.718L179.508 343.549L173.067 344.515L165.705 341.617V333.887L160.184 338.718H152.822L148.221 333.887V329.056H142.7L138.099 325.191V319.393L133.498 317.461L128.896 313.596L131.657 304.9Z" fill="#80DB9E"/>
<path d="M133.995 293.842L142.408 289.548L160.076 287.83L171.855 305.008L186.999 290.407L203.826 287.83L206.35 293.842H213.922V302.431L206.35 305.008V311.878L200.46 317.89L196.254 319.608L192.047 323.903L186.158 326.479V320.467L182.792 319.608L181.11 323.903L177.744 328.197L171.855 329.056L165.124 326.479V319.608L160.076 323.903H153.345L149.139 319.608V315.314H144.091L139.884 311.878V306.725L135.677 305.008L131.471 301.572L133.995 293.842Z" fill="#9FFBBD"/>
<path d="M141.108 282.934L139.845 294.271L144.897 297.106L148.686 301.357H156.264L162.579 307.025H168.895L175.21 308.443L177.736 302.774L182.788 307.025L189.103 302.774H196.681L204.26 294.271L202.997 282.934H197.944L192.892 273.014L186.577 271.597L182.788 261.677H180.262L176.473 251.757H167.632L163.842 261.677H161.316L157.527 271.597L151.212 273.014L146.16 282.934H141.108Z" fill="#8BDCA1"/>
<path d="M49.1095 482.722V462.109L81.3169 459.533V480.146L87.7584 485.299V494.317L80.0286 502.047H51.6861L42.668 494.317V486.587L49.1095 482.722Z" fill="#70725A"/>
<path d="M5.30728 423.461L18.1903 417.019L45.2445 414.443L63.2807 440.209L86.47 418.308L112.236 414.443L116.101 423.461H127.696V436.344L116.101 440.209V450.515L107.083 459.533L100.641 462.11L94.1998 468.551L85.1817 472.416V463.398L80.0285 462.11L77.4519 468.551L72.2987 474.993L63.2807 476.281L52.9743 472.416V462.11L45.2445 468.551H34.9381L28.4966 462.11V455.668H20.7668L14.3254 450.515V442.785L7.88387 440.209L1.44238 435.056L5.30728 423.461Z" fill="#31444B"/>
<path d="M6.59536 404.136L19.4783 397.695L46.5326 395.118L64.5687 420.884L87.7581 398.983L113.524 395.118L117.389 404.136H128.984V417.019L117.389 420.884V431.19L108.371 440.208L101.929 442.785L95.4879 449.226L86.4698 453.091V444.073L81.3166 442.785L78.74 449.226L73.5868 455.668L64.5687 456.956L54.2624 453.091V442.785L46.5326 449.226H36.2262L29.7847 442.785V436.343H22.0549L15.6134 431.19V423.46L9.17196 420.884L2.73047 415.731L6.59536 404.136Z" fill="#598E84"/>
<path d="M12.5635 393.078L23.869 387.173L47.6105 384.811L63.4381 408.43L83.788 388.354L106.399 384.811L109.791 393.078H119.965V404.887L109.791 408.43V417.878L101.877 426.144L96.224 428.506L90.5712 434.411L82.6574 437.954V429.687L78.1352 428.506L75.8741 434.411L71.3519 440.315L63.4381 441.496L54.3937 437.954V428.506L47.6105 434.411H38.5661L32.9134 428.506V422.601H26.1301L20.4773 417.878V410.792L14.8246 408.43L9.17188 403.706L12.5635 393.078Z" fill="#498877"/>
<path d="M19.9775 379.443L30.2313 374.075L51.7643 371.928L66.1196 393.4L84.5764 375.149L105.084 371.928L108.16 379.443H117.389V390.179L108.16 393.4V401.988L100.982 409.503L95.8556 411.65L90.7287 417.018L83.551 420.239V412.724L79.4495 411.65L77.3988 417.018L73.2972 422.386L66.1196 423.46L57.9166 420.239V411.65L51.7643 417.018H43.5612L38.4343 411.65V406.283H32.2821L27.1552 401.988V395.547L22.0283 393.4L16.9014 389.105L19.9775 379.443Z" fill="#4FA07F"/>
<path d="M24.8153 365.808L34.0175 360.977L53.3419 359.045L66.2249 378.369L82.7887 361.944L101.193 359.045L103.954 365.808H112.236V375.471L103.954 378.369V386.099L97.5121 392.863L92.911 394.795L88.31 399.626L81.8685 402.525V395.761L78.1876 394.795L76.3472 399.626L72.6664 404.457L66.2249 405.424L58.8632 402.525V394.795L53.3419 399.626H45.9802L41.3792 394.795V389.964H35.8579L31.2568 386.099V380.302L26.6558 378.369L22.0547 374.504L24.8153 365.808Z" fill="#80DB9E"/>
<path d="M27.1549 354.751L35.5682 350.456L53.2363 348.739L65.015 365.916L80.1591 351.315L96.9859 348.739L99.5099 354.751H107.082V363.339L99.5099 365.916V372.787L93.6205 378.799L89.4138 380.517L85.2071 384.811L79.3178 387.388V381.376L75.9524 380.517L74.2698 384.811L70.9044 389.105L65.015 389.964L58.2844 387.388V380.517L53.2363 384.811H46.5056L42.2989 380.517V376.222H37.2509L33.0442 372.787V367.634L28.8375 365.916L24.6309 362.48L27.1549 354.751Z" fill="#9FFBBD"/>
<path d="M34.2679 343.843L33.0049 355.18L38.057 358.014L41.8461 362.265H49.4244L55.7395 367.934H62.0547L68.3699 369.351L70.896 363.682L75.9481 367.934L82.2633 363.682H89.8415L97.4198 355.18L96.1567 343.843H91.1046L86.0524 333.923L79.7372 332.506L75.9481 322.586H73.4221L69.6329 312.666H60.7917L57.0026 322.586H54.4765L50.6874 332.506L44.3722 333.923L39.3201 343.843H34.2679Z" fill="#8BDCA1"/>
<path d="M153.061 630.258V609.645L185.268 607.068V627.681L191.71 632.834V641.853L183.98 649.582H155.637L146.619 641.853V634.123L153.061 630.258Z" fill="#70725A"/>
<path d="M109.259 570.996L122.142 564.555L149.197 561.978L167.233 587.744L190.422 565.843L216.188 561.978L220.053 570.996H231.648V583.879L220.053 587.744V598.05L211.035 607.069L204.593 609.645L198.152 616.087L189.134 619.952V610.933L183.981 609.645L181.404 616.087L176.251 622.528L167.233 623.816L156.926 619.952V609.645L149.197 616.087H138.89L132.449 609.645V603.204H124.719L118.278 598.05V590.321L111.836 587.744L105.395 582.591L109.259 570.996Z" fill="#31444B"/>
<path d="M110.547 551.672L123.43 545.23L150.484 542.654L168.52 568.42L191.709 546.519L217.475 542.654L221.34 551.672H232.935V564.555L221.34 568.42V578.726L212.322 587.744L205.881 590.321L199.439 596.762L190.421 600.627V591.609L185.268 590.321L182.691 596.762L177.538 603.204L168.52 604.492L158.214 600.627V590.321L150.484 596.762H140.177L133.736 590.321V583.879H126.006L119.565 578.726V570.996L113.123 568.42L106.682 563.266L110.547 551.672Z" fill="#598E84"/>
<path d="M116.516 540.614L127.821 534.709L151.563 532.347L167.39 555.966L187.74 535.89L210.351 532.347L213.743 540.614H223.918V552.423L213.743 555.966V565.413L205.829 573.68L200.176 576.042L194.523 581.947L186.61 585.489V577.223L182.087 576.042L179.826 581.947L175.304 587.851L167.39 589.032L158.346 585.489V576.042L151.563 581.947H142.518L136.866 576.042V570.137H130.082L124.429 565.413V558.328L118.777 555.966L113.124 551.242L116.516 540.614Z" fill="#498877"/>
<path d="M123.931 526.979L134.184 521.611L155.717 519.464L170.073 540.935L188.53 522.684L209.037 519.464L212.113 526.979H221.342V537.715L212.113 540.935V549.524L204.936 557.039L199.809 559.186L194.682 564.554L187.504 567.775V560.26L183.403 559.186L181.352 564.554L177.25 569.922L170.073 570.996L161.87 567.775V559.186L155.717 564.554H147.514L142.387 559.186V553.818H136.235L131.108 549.524V543.083L125.981 540.935L120.854 536.641L123.931 526.979Z" fill="#4FA07F"/>
<path d="M128.769 513.344L137.972 508.513L157.296 506.581L170.179 525.905L186.743 509.479L205.147 506.581L207.908 513.344H216.19V523.006L207.908 525.905V533.635L201.466 540.398L196.865 542.331L192.264 547.162L185.823 550.061V543.297L182.142 542.331L180.301 547.162L176.62 551.993L170.179 552.959L162.817 550.061V542.331L157.296 547.162H149.934L145.333 542.331V537.5H139.812L135.211 533.635V527.838L130.61 525.905L126.009 522.04L128.769 513.344Z" fill="#80DB9E"/>
<path d="M131.107 502.286L139.52 497.992L157.188 496.274L168.967 513.452L184.111 498.851L200.938 496.274L203.462 502.286H211.034V510.875L203.462 513.452V520.323L197.573 526.335L193.366 528.052L189.159 532.347L183.27 534.923V528.911L179.905 528.052L178.222 532.347L174.857 536.641L168.967 537.5L162.236 534.923V528.052L157.188 532.347H150.458L146.251 528.052V523.758H141.203L136.996 520.323V515.169L132.79 513.452L128.583 510.016L131.107 502.286Z" fill="#9FFBBD"/>
<path d="M138.22 491.379L136.957 502.716L142.009 505.55L145.798 509.801H153.377L159.692 515.47H166.007L172.322 516.887L174.848 511.219L179.9 515.47L186.215 511.219H193.794L201.372 502.716L200.109 491.379H195.057L190.005 481.459L183.689 480.042L179.9 470.122H177.374L173.585 460.202H164.744L160.955 470.122H158.429L154.64 480.042L148.324 481.459L143.272 491.379H138.22Z" fill="#8BDCA1"/>
<path d="M47.6641 586.945V566.332L79.8716 563.755V584.368L86.3131 589.521V598.54L78.5833 606.269H50.2407L41.2227 598.54V590.81L47.6641 586.945Z" fill="#70725A"/>
<path d="M3.86489 527.683L16.7479 521.242L43.8021 518.665L61.8383 544.431L85.0276 522.53L110.794 518.665L114.658 527.683H126.253V540.566L114.658 544.431V554.737L105.64 563.755L99.1989 566.332L92.7574 572.773L83.7393 576.638V567.62L78.5862 566.332L76.0096 572.773L70.8564 579.215L61.8383 580.503L51.5319 576.638V566.332L43.8021 572.773H33.4957L27.0542 566.332V559.89H19.3245L12.883 554.737V547.007L6.44149 544.431L0 539.278L3.86489 527.683Z" fill="#31444B"/>
<path d="M5.152 508.359L18.035 501.917L45.0892 499.34L63.1254 525.106L86.3147 503.205L112.081 499.34L115.946 508.359H127.54V521.242L115.946 525.106V535.413L106.928 544.431L100.486 547.007L94.0445 553.449L85.0265 557.314V548.296L79.8733 547.007L77.2967 553.449L72.1435 559.89L63.1254 561.179L52.819 557.314V547.007L45.0892 553.449H34.7828L28.3414 547.007V540.566H20.6116L14.1701 535.413V527.683L7.7286 525.106L1.28711 519.953L5.152 508.359Z" fill="#598E84"/>
<path d="M11.1202 497.3L22.4256 491.396L46.1671 489.034L61.9948 512.653L82.3446 492.577L104.956 489.034L108.347 497.3H118.522V509.11L108.347 512.653V522.1L100.433 530.367L94.7806 532.729L89.1279 538.633L81.2141 542.176V533.91L76.6919 532.729L74.4308 538.633L69.9086 544.538L61.9948 545.719L52.9504 542.176V532.729L46.1671 538.633H37.1227L31.47 532.729V526.824H24.6867L19.034 522.1V515.014L13.3812 512.653L7.72852 507.929L11.1202 497.3Z" fill="#498877"/>
<path d="M18.5351 483.665L28.7889 478.297L50.3219 476.15L64.6772 497.622L83.134 479.371L103.642 476.15L106.718 483.665H115.946V494.401L106.718 497.622V506.211L99.5401 513.726L94.4132 515.873L89.2863 521.241L82.1087 524.461V516.946L78.0071 515.873L75.9564 521.241L71.8549 526.609L64.6772 527.682L56.4742 524.461V515.873L50.3219 521.241H42.1189L36.992 515.873V510.505H30.8397L25.7128 506.211V499.769L20.5859 497.622L15.459 493.328L18.5351 483.665Z" fill="#4FA07F"/>
<path d="M23.372 470.031L32.5741 465.2L51.8986 463.268L64.7815 482.592L81.3454 466.166L99.7496 463.268L102.51 470.031H110.792V479.693L102.51 482.592V490.322L96.0688 497.085L91.4677 499.018L86.8666 503.849L80.4251 506.748V499.984L76.7443 499.018L74.9039 503.849L71.223 508.68L64.7815 509.646L57.4198 506.748V499.018L51.8986 503.849H44.5369L39.9358 499.018V494.187H34.4145L29.8135 490.322V484.524L25.2124 482.592L20.6113 478.727L23.372 470.031Z" fill="#80DB9E"/>
<path d="M25.7125 458.973L34.1259 454.679L51.7939 452.961L63.5727 470.138L78.7167 455.538L95.5435 452.961L98.0675 458.973H105.64V467.562L98.0675 470.138V477.009L92.1781 483.021L87.9714 484.739L83.7648 489.034L77.8754 491.61V485.598L74.51 484.739L72.8274 489.034L69.462 493.328L63.5727 494.187L56.842 491.61V484.739L51.7939 489.034H45.0632L40.8566 484.739V480.445H35.8085L31.6018 477.009V471.856L27.3952 470.138L23.1885 466.703L25.7125 458.973Z" fill="#9FFBBD"/>
<path d="M32.8246 448.066L31.5615 459.403L36.6137 462.237L40.4028 466.488H47.981L54.2962 472.157H60.6114L66.9266 473.574L69.4526 467.905L74.5048 472.157L80.82 467.905H88.3982L95.9764 459.403L94.7134 448.066H89.6612L84.6091 438.146L78.2939 436.729L74.5048 426.809H71.9787L68.1896 416.889H59.3483L55.5592 426.809H53.0331L49.244 436.729L42.9289 438.146L37.8767 448.066H32.8246Z" fill="#8BDCA1"/>
</svg>
